<svg id="レイヤー_1" data-name="レイヤー 1" xmlns="http://www.w3.org/2000/svg" viewBox="0 0 969.04 361.5"><path d="M100.63,9H86.81V42H78.33L36.74,9.62V34H51.07v8H14.58V34H28.72V9H14.58V1.21H39.67L78.59,31V9H64.07V1.21h36.56Z"/><path d="M168.13,42H136.86V35.28h7.83l-8.53-5.6-9,5.6h6.44V42h-28V35.28h10.77l14.64-9-14.64-9.68h-9.68V9.94H136v6.68H127.3l9.3,6,10-6h-7.45V9.94h27.9v6.68H157.3l-15.54,9.49,14.4,9.17h12Z"/><path d="M232.45,27.26H196.34V34h15.22v8H173.47V34h14V9.11h-14V1.21h59.3c6.62,0,12.86,4,12.86,13.31C245.63,23.57,239.27,27.26,232.45,27.26ZM230,9.11H196.34V19.49L230,19.43c4.65,0,6.11-2.55,6.11-5.1S235.06,9.11,230,9.11Z"/><path d="M312.25,25.09c0,10.07-8,18.86-30.32,18.86-20.31,0-32.29-8.47-32.29-22.49C249.64,11.34,259.51,0,279.38,0c14,0,21.47,4.14,24.08,6.05V1.15h7.9V16.94H304c-2.48-6.05-13.31-9.68-23.63-9.68-10.76,0-21,4.78-21,14.27s7.07,15,22.87,15c18.09,0,22.48-6.24,22.48-11.47Z"/><path d="M325,43.88c-3.56,0-6.49-2.23-6.49-4.9s2.93-5,6.49-5,6.5,2.23,6.5,5S328.55,43.88,325,43.88Z"/><path d="M411.09,42H338.93v-7.9h14.26V9H338.93V1.21h38.66V9H362.24v25h41.21V22.74h7.64Z"/><path d="M446.43,42h-30V35.28h11.28v-19H416.56V9.94h18.72V35.28h11.15Zm-15-34c-2.67,0-4.84-1.59-4.84-3.57S428.79.83,431.46.83s4.84,1.59,4.84,3.56S434.14,8,431.46,8Z"/><path d="M508,16.37h-10.7L478.85,42H472l-18.28-25.6H443.37V9.94h29.49v6.43h-9.11l12.23,17,12-17H477.89V9.94H508Z"/><path d="M556.61,30.32C555.4,33.44,550.24,44,533,44c-13.69,0-23.69-7.84-23.69-18.16,0-9.49,9-17.77,24.45-17.77,14,0,22.8,8,22.8,15.8v3.82H518.27c1.27,7.26,8,10.26,15,10.26,6.62,0,13.44-2.3,16.05-7.58Zm-8-8.67c-.89-2.93-5.1-7.83-14.33-7.83-6.82,0-13.63,2.23-15.67,7.83Z"/><path d="M644.94,16.37h-10.7L615.77,42H609l-18.28-25.6H580.29V9.94h29.49v6.43h-9.1l12.22,17,12-17H614.82V9.94h30.12Z"/><path d="M670.35,43.69c-13.5,0-24.4-5.16-24.4-17.83,0-11,10.9-17.84,24.4-17.84s24.33,6,24.33,17.84C694.68,37.32,683.79,43.69,670.35,43.69Zm0-29.42c-8.73,0-15.73,4.2-15.73,11.52,0,8.28,7,11.6,15.73,11.6s15.79-4,15.79-11.6C686.14,18.6,679.07,14.27,670.35,14.27Z"/><path d="M727.79,42H697.22V35.35H708.3V7.83H697.22V1.15h18.92v34.2h11.65Z"/><path d="M740.4,43.88c-3.57,0-6.5-2.23-6.5-4.9s2.93-5,6.5-5,6.5,2.23,6.5,5S744,43.88,740.4,43.88Z"/><path d="M780.33,43.88c-17.64,0-25.15-4.14-25.15-8.72,0-2.87,3.18-5.42,8.53-5.42s7.07,1.53,7.07,3c0,3-4.14,2.74-4.14,2.93,0,.57,3.38,1.84,13.06,1.84,18.59,0,26.75-3.69,26.75-9.93,0-5.16-5.42-7.52-19.17-7.52-13.95,0-21.28,5-22.3,6.05H756.7v-25h53.82V8.53H764.15V19c3-2,12.93-5.41,24.84-5.41,18.28,0,27.2,5.6,27.2,14.2C816.19,38.15,803.32,43.88,780.33,43.88Z"/><path d="M848.86,43.88c-17.64,0-25.16-4.14-25.16-8.72,0-2.87,3.19-5.42,8.54-5.42s7.06,1.53,7.06,3c0,3-4.14,2.74-4.14,2.93,0,.57,3.38,1.84,13.06,1.84,18.6,0,26.75-3.69,26.75-9.93,0-5.16-5.41-7.52-19.17-7.52-13.95,0-21.27,5-22.29,6.05h-8.28v-25h53.82V8.53H832.68V19c3-2,12.93-5.41,24.84-5.41,18.28,0,27.2,5.6,27.2,14.2C884.72,38.15,871.85,43.88,848.86,43.88Z"/><path d="M456.24,314.9c-6.23,0-9.24.68-10.23,3.32h18.16v-2.73h3.35v6.24H442.05v-.87c0-9.58,9.64-9,13.32-9.13,3.94-.2,8.58-.09,8.58-2.59,0-2.14-2.79-3.2-9.34-3.2-4.18,0-7.3.64-7.3.89s2.27-.08,2.27,1.44c0,1-1.51,1.57-3.34,1.57-2.17,0-3.54-.7-3.54-2.36,0-1.94,3.2-4.21,12.28-4.21,8.49,0,13,2.3,13,6.38C468,314.42,461.64,314.9,456.24,314.9Z"/><path d="M485.13,322.6c-8.06,0-14.61-2.92-14.61-9.69s6.55-9.7,14.61-9.7,14.65,3,14.65,9.7S493.23,322.6,485.13,322.6Zm0-16.24c-5.62,0-10.17,1.66-10.17,6.43,0,5.32,4.55,6.44,10.17,6.44s10.18-1.18,10.18-6.44C495.31,308,490.76,306.36,485.13,306.36Z"/><path d="M516.5,314.9c-6.24,0-9.25.68-10.23,3.32h18.15v-2.73h3.35v6.24H502.3v-.87c0-9.58,9.64-9,13.33-9.13,3.93-.2,8.57-.09,8.57-2.59,0-2.14-2.78-3.2-9.33-3.2-4.19,0-7.31.64-7.31.89s2.28-.08,2.28,1.44c0,1-1.52,1.57-3.35,1.57-2.16,0-3.54-.7-3.54-2.36,0-1.94,3.2-4.21,12.28-4.21,8.49,0,13,2.3,13,6.38C528.22,314.42,521.89,314.9,516.5,314.9Z"/><path d="M545.75,314.9c-6.24,0-9.24.68-10.23,3.32h18.16v-2.73H557v6.24H531.56v-.87c0-9.58,9.64-9,13.32-9.13,3.94-.2,8.57-.09,8.57-2.59,0-2.14-2.78-3.2-9.33-3.2-4.19,0-7.31.64-7.31.89s2.28-.08,2.28,1.44c0,1-1.52,1.57-3.34,1.57-2.17,0-3.54-.7-3.54-2.36,0-1.94,3.2-4.21,12.28-4.21,8.49,0,13,2.3,13,6.38C557.47,314.42,551.15,314.9,545.75,314.9Z"/><path d="M563.93,322.57c-1.57,0-2.86-1-2.86-2.16s1.29-2.19,2.86-2.19,2.87,1,2.87,2.19S565.51,322.57,563.93,322.57Z"/><path d="M584.51,322.52c-9.39,0-14.28-3.21-14.28-9.5,0-5.48,4.21-9.78,12.87-9.78,7.37,0,13.21,2.27,13.21,4.72,0,1.49-1.12,2.22-3.26,2.22-2.58,0-4-.9-4-1.88a1.28,1.28,0,0,1,1.15-1.1c.28-.06.48,0,.48-.11a21.31,21.31,0,0,0-7.31-1c-6.3,0-8.09,1.86-8.77,5.51l.17,0c1.18-.7,4.13-1.66,8.63-1.66,8.07,0,13.57,2.34,13.57,6.38S592.35,322.52,584.51,322.52Zm-1.41-9.64c-5.31,0-8.29,1.23-8.29,2.84,0,1.94,3.15,3.59,9.56,3.59s8-1.54,8-3.28S589,312.88,583.1,312.88Z"/><path d="M602,322.57c-1.58,0-2.87-1-2.87-2.16s1.29-2.19,2.87-2.19,2.86,1,2.86,2.19S603.53,322.57,602,322.57Z"/><path d="M625.85,321.73h-17v-3.51h6.66v-11.1h-6v-3.41h9.7v14.51h6.55Z"/><path d="M641.72,322.57c-9.83,0-13.57-2.44-13.57-5.84,0-3.18,3.68-4.25,4.72-4.39v-.11c-1.85-.5-3.54-1.46-3.54-3.91,0-2.75,3.12-5.11,12.76-5.11,8.12,0,12,2.16,12,5.28s-2.5,3.54-3.6,3.85v.12c1.89.42,4.61,1.6,4.61,4.41C655.1,320.13,652,322.57,641.72,322.57Zm0-8.37c-8.32,0-9.41.76-9.41,2.67,0,1.74,2,2.84,9.5,2.84s9.33-.93,9.33-2.76S650,314.2,641.72,314.2ZM642,306c-7.14,0-8.52,1.15-8.52,2.42,0,1.82,1.6,2.61,8.23,2.61,7.34,0,8.32-.84,8.32-2.44C650,307.2,648.72,306,642,306Z"/><path d="M668.59,325C662,323.61,658,319.15,658,313s3.68-10.76,10.57-12.06v.65c-3.12.84-6.41,3.6-6.41,11.41,0,7.45,3.29,10.26,6.41,11.38Z"/><path d="M687.64,322.57c-8.09,0-12.39-2.69-13-3.45l-.14,2.72h-3.37v-7.92H674c1.38,2.61,5,5.56,13.46,5.56,4.47,0,6.72-1.23,6.72-2.64,0-4.78-23.27,1-23.27-7.95,0-3.4,4-5.68,11.47-5.68,7,0,10.93,1.88,12.22,3l.06-2.45h3.15v7.37H695c-.48-1.88-4.89-5-12.54-5-5,0-7.45.95-7.45,2.22,0,4.3,23.75-1,23.75,8.65C698.77,320.16,694.81,322.57,687.64,322.57Z"/><path d="M739.3,307.12h-6.44v9.5c0,4.55-2.72,5.87-12.79,5.87-10.59,0-13-1.6-13-6v-9.33h-6.38v-3.38h17.23v3.38h-6.58v7.5c0,3.49,1.07,4.05,8.86,4.05s8.71-.62,8.71-3.85v-7.7h-6.44v-3.38H739.3Z"/><path d="M779.49,307.17h-6.1v14.56h-3.74L751.3,307.45v10.77h6.32v3.51h-16.1v-3.51h6.24V307.17h-6.24v-3.43h11.07l17.17,13.13v-9.7h-6.41v-3.43h16.14Z"/><path d="M782.1,325v-.65c3.12-1.12,6.4-3.93,6.4-11.38,0-7.81-3.28-10.57-6.4-11.41v-.65c6.88,1.3,10.56,5.85,10.56,12.06S788.73,323.61,782.1,325Z"/><path d="M822.37,321.73h-17v-3.51h6.66v-11.1h-6v-3.41h9.7v14.51h6.55Z"/><path d="M848.93,306.89c-6.33,4-10.82,12.06-10.82,14.84h-4.3c0-3.54,5.42-11.33,10.31-14.61h-17v4.07h-3.4v-7.45h25.16Z"/><path d="M853.28,312c-1.57,0-2.87-1-2.87-2.16s1.3-2.2,2.87-2.2,2.87,1,2.87,2.2S854.86,312,853.28,312Zm0,10.62c-1.57,0-2.87-1-2.87-2.16s1.3-2.19,2.87-2.19,2.87,1,2.87,2.19S854.86,322.57,853.28,322.57Z"/><path d="M873.54,322.6c-8.06,0-14.61-2.92-14.61-9.69s6.55-9.7,14.61-9.7,14.65,3,14.65,9.7S881.64,322.6,873.54,322.6Zm0-16.24c-5.62,0-10.17,1.66-10.17,6.43,0,5.32,4.55,6.44,10.17,6.44s10.18-1.18,10.18-6.44C883.72,308,879.17,306.36,873.54,306.36Z"/><path d="M904.54,322.6c-8.06,0-14.61-2.92-14.61-9.69s6.55-9.7,14.61-9.7,14.65,3,14.65,9.7S912.64,322.6,904.54,322.6Zm0-16.24c-5.62,0-10.17,1.66-10.17,6.43,0,5.32,4.55,6.44,10.17,6.44s10.18-1.18,10.18-6.44C914.72,308,910.16,306.36,904.54,306.36Z"/><path d="M931.21,314.65h-8.8V312h8.8Z"/><path d="M745.07,356v0a3.07,3.07,0,0,1-3.09-2.47,4.86,4.86,0,0,1-4,2.39c-2.36,0-4.32-1.69-4.32-4.86,0-3,2.67-7.87,7.16-7.87a3,3,0,0,1,3,2.05l.48-1.74h3.09l-2.5,8.77a5,5,0,0,0-.23,1.29c0,.76.28,1.07.85,1.07,1.54,0,5.22-2.31,5.22-7.82,0-4.86-3.65-8.26-9.08-8.26a11.44,11.44,0,0,0-11.52,11.78c0,5.93,3.94,9.78,10.4,9.78a15.49,15.49,0,0,0,8.69-2.9l.84,1a14.62,14.62,0,0,1-9.7,3.32c-8.12,0-13.32-4.5-13.32-11.36,0-5.85,4.38-13,14.22-13,7,0,10.79,4.3,10.79,9.61S748.38,356,745.07,356Zm-3.77-11.44c-1.63,0-4.3,3.76-4.3,7.73,0,1.06.25,2.33,1.41,2.33,2,0,4.38-4.67,4.38-7.87C742.79,345.19,742.26,344.55,741.3,344.55Z"/><path d="M793.49,343.2h-6.58l-10.7,7.11v3.91h6.21v3.54H766v-3.54h5.84v-3.83l-11.38-7.19h-6.52v-3.46h19.17v3.46h-5.77l7.12,4.38,6.68-4.38h-5.39v-3.46h17.76Z"/><path d="M802.51,358.52c-6,0-10.77-2.28-10.77-7.87,0-4.87,4.81-7.87,10.77-7.87s10.74,2.64,10.74,7.87C813.25,355.71,808.44,358.52,802.51,358.52Zm0-13c-3.85,0-6.94,1.86-6.94,5.09,0,3.65,3.09,5.11,6.94,5.11s7-1.77,7-5.11C809.48,347.44,806.36,345.53,802.51,345.53Z"/><path d="M840.84,357.76h-8v-2.87a8,8,0,0,1-7,3.49c-4.44,0-7.47-1.83-7.47-5.91V346.4h-4.33v-2.78h7.84v7.59c0,3,1.35,4.38,4.22,4.38,4.07,0,6.8-1.4,6.8-5.22v-4h-4.44v-2.78h7.92v11.16h4.44Z"/><path d="M855.48,354c0,2.64-1.49,4.36-4.94,4.36s-5.34-1-5.34-4.08V346.4h-5v-2.78h5v-3.35h3.37v3.35h5.14v2.78h-5.14v6.44c0,2.08.53,2.7,2.08,2.7,1.35,0,2.11-.73,2.11-1.77v-1.19h2.72Z"/><path d="M882.55,357.76h-8v-2.87a7.93,7.93,0,0,1-7,3.49c-4.44,0-7.48-1.83-7.48-5.91V346.4h-4.33v-2.78h7.85v7.59c0,3,1.34,4.38,4.21,4.38,4.08,0,6.8-1.4,6.8-5.22v-4h-4.44v-2.78h7.93v11.16h4.44Z"/><path d="M897.44,358.21c-3.57,0-6.6-1.24-8.23-3.52l-1.86,3.07h-1.54V342.44h-4.3v-2.7h7.84v6.89c1.66-2.11,4.75-3.24,8.57-3.24,5.37,0,9.67,3,9.67,7.62C907.59,355.37,903.32,358.21,897.44,358.21Zm-.79-12.15c-4.18,0-7.22,1.47-7.22,4.53s2.76,4.81,7.17,4.81,7.22-1.07,7.22-4.64C903.82,347.39,900.73,346.06,896.65,346.06Z"/><path d="M929.93,352.61c-.53,1.38-2.81,6-10.43,6-6,0-10.45-3.46-10.45-8,0-4.19,4-7.84,10.79-7.84,6.15,0,10.06,3.51,10.06,7v1.68H913c.56,3.21,3.54,4.53,6.63,4.53,2.93,0,5.93-1,7.09-3.35Zm-3.51-3.82c-.4-1.29-2.25-3.46-6.33-3.46-3,0-6,1-6.91,3.46Z"/><path d="M57.06,324.18C34.39,324.18,16,316,16,296.93c0-18.8,18.4-27.25,41.07-27.25s41.15,8.45,41.15,27.25S79.8,324.18,57.06,324.18Zm0-45.65c-15.8,0-28.59,4.66-28.59,18.09,0,14.92,12.79,18.08,28.59,18.08s28.59-3.32,28.59-18.08C85.65,283.27,72.85,278.53,57.06,278.53Z"/><path d="M175.68,321.73h-24v-7.66c-3.56,4.26-10.11,9.16-23.38,9.16-15.8,0-25.51-8.37-25.51-20.3s11.21-21.48,26.61-21.48c10,0,18,4,22.28,8.61V279H138.32v-7.89h23.46v42.33h13.9Zm-24-23.22c0-4.9-8.69-9.24-19-9.24-12.79,0-18.64,5.53-18.64,12.72,0,8.37,5.45,13.11,16.9,13.11,12.72,0,20.7-4.74,20.7-9.24Z"/><path d="M251.49,321.73h-24v-7.66c-3.55,4.26-10.11,9.16-23.38,9.16-15.79,0-25.51-8.37-25.51-20.3s11.22-21.48,26.62-21.48c9.95,0,18,4,22.27,8.61V279H214.13v-7.89h23.46v42.33h13.9Zm-24-23.22c0-4.9-8.69-9.24-18.95-9.24-12.8,0-18.64,5.53-18.64,12.72,0,8.37,5.45,13.11,16.9,13.11,12.71,0,20.69-4.74,20.69-9.24Z"/><path d="M312.77,307.28c-1.5,3.87-7.9,16.9-29.3,16.9-17,0-29.38-9.71-29.38-22.51,0-11.77,11.22-22,30.33-22,17.29,0,28.27,9.87,28.27,19.58V304H265.23c1.58,9,9.95,12.72,18.64,12.72,8.21,0,16.66-2.85,19.9-9.4Zm-9.87-10.74c-1.11-3.64-6.32-9.72-17.77-9.72-8.45,0-16.9,2.77-19.43,9.72Z"/><path d="M393.64,321.73H358.26v-8.21h12.48V299.38c0-6.71-3.16-11.45-12.32-11.45-7.9,0-18.41,3.71-18.41,15.95v9.64h12.4v8.21H317v-8.21h12.48V289.9H316.87V282H339.7v9.88h.23c3.16-7.51,11.93-12.24,21.64-12.24,10.11,0,19.83,5.76,19.83,19.5v14.38h12.24Z"/><path d="M565.61,195c-16.92,2.59-28.94-11.74-2.57-22.81s58.62-9.37,55.44,13.07-36.84,35.74-58.7,42.46S565.61,195,565.61,195Z"/><path d="M381.62,165.89c-6,6-9.48,12-9.48,16.5,0,19.38,37.07,34.56,84.4,34.56,24.29,0,54.29-4.16,80.24-11.12,31.82-8.53,43-17.42,44.47-19.94a4.32,4.32,0,0,0-.33,1.44l30.34,2.1c-1.25,18.12-21,32.51-60.26,44-29.41,8.6-65.61,13.94-94.46,13.94-68.67,0-114.81-26.11-114.81-65,0-12.94,6.39-26.12,18.48-38.1,11-10.94,26-20.29,43-27.34-19.68.12-41.23.89-65,2.32V88.8c43.37-2.55,79.79-3,111.22-1.2,67.86,6.3,103,20.52,119.24,29.75,8.84,5,12.15,8.54,12.15,8.54V81.38H611.3v73.93H586.54c-1.21-.46-2.69-1-4.43-1.62l-1.22-.44c-3.31-1.18-7.42-2.58-12.19-4.08C547,142.33,511.86,133.3,476.38,133,434.47,132.58,397.88,149.77,381.62,165.89Z"/><rect x="614.63" y="81.38" width="30.41" height="73.99"/><rect x="694.4" y="75.76" width="96.95" height="30.41"/><rect x="626.14" y="210.44" width="117.06" height="30.41"/><rect x="630.51" y="143.1" width="160.65" height="30.41" transform="translate(190.64 667.96) rotate(-56.97)"/><path d="M709.66,185.47l-16.27-25.69c82.37-52.14,142.35-59.33,194.89-59.33v30.41C840.31,130.86,785.48,137.47,709.66,185.47Z"/><path d="M832.87,246.54a99.39,99.39,0,0,1-23.2-2.63c-20.35-4.9-35.42-16.61-42.43-33-8.29-19.34-6.38-41.36,5.25-60.4,17.38-28.48,53-46.6,97.85-49.73l2.12,30.34c-34.34,2.4-62,15.57-74,35.24-6.53,10.68-7.68,22.25-3.26,32.57,4,9.39,14,13.55,21.6,15.39,22.77,5.49,60.7-1.42,94.1-29.2,21-17.43,23.41-24.06,23.5-24.34a8.48,8.48,0,0,0,1,6A9.33,9.33,0,0,0,938.1,170l-2.36-29.59c9.66-.78,22.62,2.42,27.33,14,7.21,17.71-11.48,36.51-32.74,54.19C901.14,232.8,865,246.54,832.87,246.54Z"/><path d="M322.09,76.54v74.82l-.12-.11V156h-9.09s-.27-.28-.78-.77A60.22,60.22,0,0,0,297.43,136a105.31,105.31,0,0,0-10.34-8.14,133.69,133.69,0,0,0-39.57-18.2,182.81,182.81,0,0,0-20.15-4.53,244.62,244.62,0,0,0-42.72-3.22q-8.82.06-17.76.69V77c100,0,124.78,28.87,124.78,28.87V90h0V76.54Z"/><path d="M193,211c17,2,28.29-14,1.37-24.66s-59-7.22-54.69,16.77S178.37,239.8,200.56,246,193,211,193,211Z"/><path d="M922.1,174.78c-15,8.28-31.51-4.28-10.64-24.34s51.86-27.08,56.95-3.23-21.84,48.61-40,62.74S922.1,174.78,922.1,174.78Z"/><path d="M684.67,225.64s37-61,113.46-82.33,54-35.2,54-35.2L705.26,166.88Z"/><path d="M55.85,248.07c-13.44,0-26.21-2.79-35.85-8.49C6.55,231.64-.72,218.59.06,203.79c1.33-25.47,25.41-51.35,64.43-69.21a233.36,233.36,0,0,1,36.21-12.77v-8.28H15.77V83.12H131.11v32.23c55.78-8.91,120.38-3.72,158.32,30.22,22.6,20.22,25.43,48,7.23,70.76-13,16.3-35.55,27.84-60.22,30.88-27.63,3.4-55.7-3.9-79.05-20.55L175,201.9c17.14,12.22,37.63,17.6,57.68,15.13,16.72-2.06,32.12-9.6,40.19-19.69s6.84-19.62-3.76-29.11c-19.37-17.32-52.15-26.64-92.26-26.35a279.17,279.17,0,0,0-45.78,4.34v45.39c0,18.31-10.1,34.16-28.44,44.63C89,244.07,71.93,248.07,55.85,248.07Zm44.85-94.63a190.53,190.53,0,0,0-23.55,8.79C45.84,176.56,31,194.64,30.42,205.38c-.12,2.42.38,5.26,5,8,10.64,6.29,35.19,6.1,52.13-3.57,8.69-5,13.1-11.1,13.1-18.22Z"/></svg>