<svg xmlns="http://www.w3.org/2000/svg" viewBox="0 0 969.04 321.73"><defs><style>.cls-1{isolation:isolate;}.cls-2{mix-blend-mode:multiply;}</style></defs><g class="cls-1"><g id="レイヤー_1" data-name="レイヤー 1"><path d="M102.63,9H88.81V42H80.33L38.74,9.62V34H53.07v8H16.58V34H30.72V9H16.58V1.21H41.67L80.59,31V9H66.07V1.21h36.56Z"/><path d="M170.13,42H138.86V35.28h7.83l-8.53-5.6-9,5.6h6.44V42h-28V35.28h10.77l14.64-9-14.64-9.68h-9.68V9.94H138v6.68H129.3l9.3,6,10-6h-7.45V9.94h27.9v6.68H159.3l-15.54,9.49,14.4,9.17h12Z"/><path d="M234.45,27.26H198.34V34h15.22v8H175.47V34h14V9.11h-14V1.21h59.3c6.62,0,12.86,4,12.86,13.31C247.63,23.57,241.27,27.26,234.45,27.26ZM232,9.11H198.34V19.49L232,19.43c4.65,0,6.11-2.55,6.11-5.1S237.06,9.11,232,9.11Z"/><path d="M314.25,25.09c0,10.07-8,18.86-30.32,18.86-20.31,0-32.29-8.47-32.29-22.49C251.64,11.34,261.51,0,281.38,0c14,0,21.47,4.14,24.08,6.05V1.15h7.9V16.94H306c-2.48-6.05-13.31-9.68-23.63-9.68-10.76,0-21,4.78-21,14.27s7.07,15,22.87,15c18.09,0,22.48-6.24,22.48-11.47Z"/><path d="M327,43.88c-3.56,0-6.49-2.23-6.49-4.9s2.93-5,6.49-5,6.5,2.23,6.5,5S330.55,43.88,327,43.88Z"/><path d="M413.09,42H340.93v-7.9h14.26V9H340.93V1.21h38.66V9H364.24v25h41.21V22.74h7.64Z"/><path d="M448.43,42h-30V35.28h11.28v-19H418.56V9.94h18.72V35.28h11.15Zm-15-34c-2.67,0-4.84-1.59-4.84-3.57S430.79.83,433.46.83s4.84,1.59,4.84,3.56S436.14,8,433.46,8Z"/><path d="M510,16.37h-10.7L480.85,42H474l-18.28-25.6H445.37V9.94h29.49v6.43h-9.11l12.23,17,12-17H479.89V9.94H510Z"/><path d="M558.61,30.32C557.4,33.44,552.24,44,535,44c-13.69,0-23.69-7.84-23.69-18.16,0-9.49,9-17.77,24.45-17.77,14,0,22.8,8,22.8,15.8v3.82H520.27c1.27,7.26,8,10.26,15,10.26,6.62,0,13.44-2.3,16.05-7.58Zm-8-8.67c-.89-2.93-5.1-7.83-14.33-7.83-6.82,0-13.63,2.23-15.67,7.83Z"/><path d="M646.94,16.37h-10.7L617.77,42H611l-18.28-25.6H582.29V9.94h29.49v6.43h-9.1l12.22,17,12-17H616.82V9.94h30.12Z"/><path d="M672.35,43.69c-13.5,0-24.4-5.16-24.4-17.83,0-11,10.9-17.84,24.4-17.84s24.33,6,24.33,17.84C696.68,37.32,685.79,43.69,672.35,43.69Zm0-29.42c-8.73,0-15.73,4.2-15.73,11.52,0,8.28,7,11.6,15.73,11.6s15.79-4,15.79-11.6C688.14,18.6,681.07,14.27,672.35,14.27Z"/><path d="M729.79,42H699.22V35.35H710.3V7.83H699.22V1.15h18.92v34.2h11.65Z"/><path d="M742.4,43.88c-3.57,0-6.5-2.23-6.5-4.9s2.93-5,6.5-5,6.5,2.23,6.5,5S746,43.88,742.4,43.88Z"/><path d="M782.33,43.88c-17.64,0-25.15-4.14-25.15-8.72,0-2.87,3.18-5.42,8.53-5.42s7.07,1.53,7.07,3c0,3-4.14,2.74-4.14,2.93,0,.57,3.38,1.84,13.06,1.84,18.59,0,26.75-3.69,26.75-9.93,0-5.16-5.42-7.52-19.17-7.52-13.95,0-21.28,5-22.3,6.05H758.7v-25h53.82V8.53H766.15V19c3-2,12.93-5.41,24.84-5.41,18.28,0,27.2,5.6,27.2,14.2C818.19,38.15,805.32,43.88,782.33,43.88Z"/><path d="M850.86,43.88c-17.64,0-25.16-4.14-25.16-8.72,0-2.87,3.19-5.42,8.54-5.42s7.06,1.53,7.06,3c0,3-4.14,2.74-4.14,2.93,0,.57,3.38,1.84,13.06,1.84,18.6,0,26.75-3.69,26.75-9.93,0-5.16-5.41-7.52-19.17-7.52-13.95,0-21.27,5-22.29,6.05h-8.28v-25h53.82V8.53H834.68V19c3-2,12.93-5.41,24.84-5.41,18.28,0,27.2,5.6,27.2,14.2C886.72,38.15,873.85,43.88,850.86,43.88Z"/><path d="M57.06,321.18C34.39,321.18,16,313,16,293.93c0-18.8,18.4-27.25,41.07-27.25s41.15,8.45,41.15,27.25S79.8,321.18,57.06,321.18Zm0-45.65c-15.8,0-28.59,4.66-28.59,18.09,0,14.92,12.79,18.08,28.59,18.08s28.59-3.32,28.59-18.08C85.65,280.27,72.85,275.53,57.06,275.53Z"/><path d="M175.68,318.73h-24v-7.66c-3.56,4.26-10.11,9.16-23.38,9.16-15.8,0-25.51-8.37-25.51-20.3s11.21-21.48,26.61-21.48c10,0,18,4,22.28,8.61V276H138.32v-7.89h23.46v42.33h13.9Zm-24-23.22c0-4.9-8.69-9.24-19-9.24-12.79,0-18.64,5.53-18.64,12.72,0,8.37,5.45,13.11,16.9,13.11,12.72,0,20.7-4.74,20.7-9.24Z"/><path d="M251.49,318.73h-24v-7.66c-3.55,4.26-10.11,9.16-23.38,9.16-15.79,0-25.51-8.37-25.51-20.3s11.22-21.48,26.62-21.48c9.95,0,18,4,22.27,8.61V276H214.13v-7.89h23.46v42.33h13.9Zm-24-23.22c0-4.9-8.69-9.24-18.95-9.24-12.8,0-18.64,5.53-18.64,12.72,0,8.37,5.45,13.11,16.9,13.11,12.71,0,20.69-4.74,20.69-9.24Z"/><path d="M312.77,304.28c-1.5,3.87-7.9,16.9-29.3,16.9-17,0-29.38-9.71-29.38-22.51,0-11.77,11.22-22,30.33-22,17.29,0,28.27,9.87,28.27,19.58V301H265.23c1.58,9,9.95,12.72,18.64,12.72,8.21,0,16.66-2.85,19.9-9.4Zm-9.87-10.74c-1.11-3.64-6.32-9.72-17.77-9.72-8.45,0-16.9,2.77-19.43,9.72Z"/><path d="M393.64,318.73H358.26v-8.21h12.48V296.38c0-6.71-3.16-11.45-12.32-11.45-7.9,0-18.41,3.71-18.41,15.95v9.64h12.4v8.21H317v-8.21h12.48V286.9H316.87V279H339.7v9.88h.23c3.16-7.51,11.93-12.24,21.64-12.24,10.11,0,19.83,5.76,19.83,19.5v14.38h12.24Z"/><path d="M565.61,195c-16.92,2.59-28.94-11.74-2.57-22.81s58.62-9.37,55.44,13.07-36.84,35.74-58.7,42.46S565.61,195,565.61,195Z"/><path d="M381.62,165.89c-6,6-9.48,12-9.48,16.5,0,19.38,37.07,34.56,84.4,34.56,24.29,0,54.29-4.16,80.24-11.12,31.82-8.53,43-17.42,44.47-19.94a4.32,4.32,0,0,0-.33,1.44l30.34,2.1c-1.25,18.12-21,32.51-60.26,44-29.41,8.6-65.61,13.94-94.46,13.94-68.67,0-114.81-26.11-114.81-65,0-12.94,6.39-26.12,18.48-38.1,11-10.94,26-20.29,43-27.34-19.68.12-41.23.89-65,2.32V88.8c43.37-2.55,79.79-3,111.22-1.2,67.86,6.3,103,20.52,119.24,29.75,8.84,5,12.15,8.54,12.15,8.54V81.38H611.3v73.93H586.54c-1.21-.46-2.69-1-4.43-1.62l-1.22-.44c-3.31-1.18-7.42-2.58-12.19-4.08C547,142.33,511.86,133.3,476.38,133,434.47,132.58,397.88,149.77,381.62,165.89Z"/><rect x="614.63" y="81.38" width="30.41" height="73.99"/><rect x="694.4" y="75.76" width="96.95" height="30.41"/><rect x="626.14" y="210.44" width="117.06" height="30.41"/><rect x="630.51" y="143.1" width="160.65" height="30.41" transform="translate(190.64 667.96) rotate(-56.97)"/><path d="M709.66,185.47l-16.27-25.69c82.37-52.14,142.35-59.33,194.89-59.33v30.41C840.31,130.86,785.48,137.47,709.66,185.47Z"/><path d="M832.87,246.54a99.39,99.39,0,0,1-23.2-2.63c-20.35-4.9-35.42-16.61-42.43-33-8.29-19.34-6.38-41.36,5.25-60.4,17.38-28.48,53-46.6,97.85-49.73l2.12,30.34c-34.34,2.4-62,15.57-74,35.24-6.53,10.68-7.68,22.25-3.26,32.57,4,9.39,14,13.55,21.6,15.39,22.77,5.49,60.7-1.42,94.1-29.2,21-17.43,23.41-24.06,23.5-24.34a8.48,8.48,0,0,0,1,6A9.33,9.33,0,0,0,938.1,170l-2.36-29.59c9.66-.78,22.62,2.42,27.33,14,7.21,17.71-11.48,36.51-32.74,54.19C901.14,232.8,865,246.54,832.87,246.54Z"/><path d="M322.09,76.54v74.82l-.12-.11V156h-9.09s-.27-.28-.78-.77A60.22,60.22,0,0,0,297.43,136a105.31,105.31,0,0,0-10.34-8.14,133.69,133.69,0,0,0-39.57-18.2,182.81,182.81,0,0,0-20.15-4.53,244.62,244.62,0,0,0-42.72-3.22q-8.82.06-17.76.69V77c100,0,124.78,28.87,124.78,28.87V90h0V76.54Z"/><path d="M193,211c17,2,28.29-14,1.37-24.66s-59-7.22-54.69,16.77S178.37,239.8,200.56,246,193,211,193,211Z"/><path d="M922.1,174.78c-15,8.28-31.51-4.28-10.64-24.34s51.86-27.08,56.95-3.23-21.84,48.61-40,62.74S922.1,174.78,922.1,174.78Z"/><path d="M684.67,225.64s37-61,113.46-82.33,54-35.2,54-35.2L705.26,166.88Z"/><path d="M55.85,248.07c-13.44,0-26.21-2.79-35.85-8.49C6.55,231.64-.72,218.59.06,203.79c1.33-25.47,25.41-51.35,64.43-69.21a233.36,233.36,0,0,1,36.21-12.77v-8.28H15.77V83.12H131.11v32.23c55.78-8.91,120.38-3.72,158.32,30.22,22.6,20.22,25.43,48,7.23,70.76-13,16.3-35.55,27.84-60.22,30.88-27.63,3.4-55.7-3.9-79.05-20.55L175,201.9c17.14,12.22,37.63,17.6,57.68,15.13,16.72-2.06,32.12-9.6,40.19-19.69s6.84-19.62-3.76-29.11c-19.37-17.32-52.15-26.64-92.26-26.35a279.17,279.17,0,0,0-45.78,4.34v45.39c0,18.31-10.1,34.16-28.44,44.63C89,244.07,71.93,248.07,55.85,248.07Zm44.85-94.63a190.53,190.53,0,0,0-23.55,8.79C45.84,176.56,31,194.64,30.42,205.38c-.12,2.42.38,5.26,5,8,10.64,6.29,35.19,6.1,52.13-3.57,8.69-5,13.1-11.1,13.1-18.22Z"/><g class="cls-2"><path d="M442.68,312.11c-6.05,0-9,.65-9.92,3.21h17.61v-2.64h3.25v6.05H428.91v-.84c0-9.3,9.36-8.7,12.93-8.86,3.81-.2,8.31-.09,8.31-2.51,0-2.08-2.7-3.11-9-3.11-4.06,0-7.09.63-7.09.87s2.21-.08,2.21,1.39c0,.95-1.47,1.53-3.24,1.53-2.1,0-3.44-.68-3.44-2.29,0-1.88,3.11-4.09,11.91-4.09,8.24,0,12.6,2.23,12.6,6.19C454.05,311.64,447.92,312.11,442.68,312.11Z"/><path d="M470.7,319.58c-7.82,0-14.17-2.84-14.17-9.41s6.35-9.41,14.17-9.41,14.21,2.92,14.21,9.41S478.56,319.58,470.7,319.58Zm0-15.76c-5.45,0-9.87,1.61-9.87,6.24,0,5.15,4.42,6.24,9.87,6.24s9.88-1.14,9.88-6.24C480.58,305.45,476.16,303.82,470.7,303.82Z"/><path d="M500,312.11c-6.06,0-9,.65-9.93,3.21h17.62v-2.64H511v6.05h-24.7v-.84c0-9.3,9.35-8.7,12.92-8.86,3.82-.2,8.32-.09,8.32-2.51,0-2.08-2.7-3.11-9.06-3.11-4.06,0-7.08.63-7.08.87s2.2-.08,2.2,1.39c0,.95-1.47,1.53-3.24,1.53-2.1,0-3.44-.68-3.44-2.29,0-1.88,3.11-4.09,11.92-4.09,8.23,0,12.6,2.23,12.6,6.19C511.41,311.64,505.27,312.11,500,312.11Z"/><path d="M527.87,312.11c-6,0-9,.65-9.93,3.21h17.62v-2.64h3.24v6.05H514.1v-.84c0-9.3,9.35-8.7,12.92-8.86,3.82-.2,8.32-.09,8.32-2.51,0-2.08-2.7-3.11-9.05-3.11-4.07,0-7.09.63-7.09.87s2.21-.08,2.21,1.39c0,.95-1.48,1.53-3.25,1.53-2.1,0-3.43-.68-3.43-2.29,0-1.88,3.1-4.09,11.91-4.09,8.24,0,12.6,2.23,12.6,6.19C539.24,311.64,533.1,312.11,527.87,312.11Z"/><path d="M545.5,319.55c-1.52,0-2.78-.95-2.78-2.1s1.26-2.13,2.78-2.13,2.78,1,2.78,2.13S547,319.55,545.5,319.55Z"/><path d="M565.46,319.5c-9.11,0-13.85-3.11-13.85-9.22,0-5.32,4.09-9.49,12.49-9.49,7.14,0,12.81,2.21,12.81,4.58,0,1.45-1.09,2.16-3.16,2.16-2.51,0-3.85-.88-3.85-1.83a1.26,1.26,0,0,1,1.12-1.07c.27-.05.47,0,.47-.1a20.63,20.63,0,0,0-7.09-1c-6.11,0-7.86,1.8-8.51,5.35l.16,0c1.15-.68,4-1.61,8.37-1.61,7.83,0,13.17,2.27,13.17,6.19S573.07,319.5,565.46,319.5Zm-1.36-9.36c-5.16,0-8.05,1.2-8.05,2.76,0,1.88,3.06,3.49,9.27,3.49s7.72-1.5,7.72-3.19S569.85,310.14,564.1,310.14Z"/><path d="M582.39,319.55c-1.53,0-2.79-.95-2.79-2.1s1.26-2.13,2.79-2.13,2.78,1,2.78,2.13S583.91,319.55,582.39,319.55Z"/><path d="M605.56,318.73H589.12v-3.41h6.46V304.55H589.8v-3.3h9.41v14.07h6.35Z"/><path d="M621,319.55c-9.54,0-13.17-2.37-13.17-5.67,0-3.08,3.57-4.12,4.58-4.26v-.1c-1.8-.49-3.43-1.42-3.43-3.79,0-2.68,3-5,12.38-5,7.88,0,11.64,2.1,11.64,5.13s-2.43,3.43-3.49,3.73v.11c1.82.41,4.47,1.56,4.47,4.28C633.94,317.18,630.94,319.55,621,319.55Zm0-8.13c-8.07,0-9.13.74-9.13,2.59s2,2.76,9.21,2.76,9.06-.9,9.06-2.67S629,311.42,621,311.42Zm.27-7.93c-6.92,0-8.26,1.12-8.26,2.34,0,1.78,1.56,2.54,8,2.54,7.12,0,8.07-.82,8.07-2.37C629,304.63,627.75,303.49,621.23,303.49Z"/><path d="M647,321.92c-6.44-1.36-10.25-5.7-10.25-11.67s3.57-10.44,10.25-11.7v.63c-3,.82-6.22,3.49-6.22,11.07,0,7.23,3.19,10,6.22,11Z"/><path d="M665.5,319.55c-7.85,0-12-2.62-12.62-3.35l-.14,2.64h-3.27v-7.69h2.84c1.33,2.54,4.82,5.4,13.06,5.4,4.33,0,6.51-1.2,6.51-2.56,0-4.64-22.57.92-22.57-7.72,0-3.3,3.84-5.51,11.12-5.51,6.82,0,10.61,1.83,11.86,2.87l.06-2.38h3v7.15h-2.75c-.47-1.83-4.75-4.86-12.16-4.86-4.83,0-7.23.93-7.23,2.16,0,4.17,23-1,23,8.4C676.3,317.21,672.46,319.55,665.5,319.55Z"/><path d="M713.4,318.73h-16v-3.38H703l-2.21-2.89H688.54l-2.21,2.89h5.89v3.38H677.06v-3.38h5l11.07-14.07h3.76l11.07,14.07h5.48Zm-14.83-9.19-3.9-5.12-3.93,5.12Z"/><path d="M738.56,308.59h-3.32v-4h-9.19V315.3h6.38v3.43H715.74V315.3H722V304.61H713v4h-3.41v-7.31h29Z"/><path d="M741.09,321.92v-.63c3-1.08,6.22-3.81,6.22-11,0-7.58-3.19-10.25-6.22-11.07v-.63c6.68,1.26,10.25,5.68,10.25,11.7S747.53,320.56,741.09,321.92Z"/><path d="M780.16,318.73H763.72v-3.41h6.46V304.55H764.4v-3.3h9.41v14.07h6.35Z"/><path d="M804.83,304.33c-6.13,3.9-10.5,11.7-10.5,14.4h-4.17c0-3.43,5.26-11,10-14.18H783.73v4h-3.3v-7.23h24.4Z"/><path d="M809.05,309.24c-1.53,0-2.78-.95-2.78-2.1s1.25-2.12,2.78-2.12,2.78,1,2.78,2.12S810.58,309.24,809.05,309.24Zm0,10.31c-1.53,0-2.78-.95-2.78-2.1s1.25-2.13,2.78-2.13,2.78,1,2.78,2.13S810.58,319.55,809.05,319.55Z"/><path d="M828.71,319.58c-7.83,0-14.18-2.84-14.18-9.41s6.35-9.41,14.18-9.41,14.2,2.92,14.2,9.41S836.56,319.58,828.71,319.58Zm0-15.76c-5.46,0-9.87,1.61-9.87,6.24,0,5.15,4.41,6.24,9.87,6.24s9.87-1.14,9.87-6.24C838.58,305.45,834.16,303.82,828.71,303.82Z"/><path d="M858.77,319.58c-7.82,0-14.17-2.84-14.17-9.41s6.35-9.41,14.17-9.41S873,303.68,873,310.17,866.63,319.58,858.77,319.58Zm0-15.76c-5.45,0-9.87,1.61-9.87,6.24,0,5.15,4.42,6.24,9.87,6.24s9.88-1.14,9.88-6.24C868.65,305.45,864.23,303.82,858.77,303.82Z"/><path d="M884.64,311.86h-8.53v-2.54h8.53Z"/></g></g></g></svg>