<svg id="レイヤー_1" data-name="レイヤー 1" xmlns="http://www.w3.org/2000/svg" viewBox="0 0 178.54 337.98"><defs><style>.cls-1{fill:#00ffd2;}.cls-2{fill:#231815;}.cls-3{fill:#fff;}</style></defs><rect class="cls-1" x="132.95" y="262.6" width="7.93" height="60.43"/><path class="cls-2" d="M139.36,266.68V266H140V268h-.63v-.73H134.9v-.79l4.3-2.41h-3.62v.72H135v-2.06h.62v.72h3.78v-.72H140v1.72l-3.91,2.21Z"/><path class="cls-2" d="M137.85,269.59l-.69.64.69.59v-.36h.61v1.66h-.61v-.58l-1.06-.93-1.22,1.12v.39H135v-1.66h.61v.45l.79-.69-.79-.69V270H135v-1.7h.61v.51l1.18,1.06,1.1-1v-.48h.61V270h-.61Z"/><path class="cls-2" d="M138.43,276.26a1.5,1.5,0,0,1-1.11-.42,2,2,0,0,1-.44-1.44v-.66h-1.3v.66H135v-2h.62V273h3.78v-.63H140v1.88a3.56,3.56,0,0,1-.17,1.2,1.14,1.14,0,0,1-.5.64A1.76,1.76,0,0,1,138.43,276.26Zm0-.77a.82.82,0,0,0,.69-.28,1.58,1.58,0,0,0,.22-.94v-.53h-1.87v.47a2.44,2.44,0,0,0,.09.74.66.66,0,0,0,.29.41A1.06,1.06,0,0,0,138.45,275.49Z"/><path class="cls-2" d="M139.43,281H140v.64h-1.62V281a1.84,1.84,0,0,0,.76-.67,1.75,1.75,0,0,0,.27-.95,1.63,1.63,0,0,0-.26-.89,1.73,1.73,0,0,0-.71-.6,2,2,0,0,0-.94-.22,2,2,0,0,0-1,.23,1.78,1.78,0,0,0-.7.63,1.53,1.53,0,0,0-.27.89,1.69,1.69,0,0,0,.37,1.06,2.12,2.12,0,0,0,1,.68l-.34.64a2.41,2.41,0,0,1-1.31-.92,2.67,2.67,0,0,1-.46-1.54,2.46,2.46,0,0,1,.35-1.3,2.41,2.41,0,0,1,.94-.88,2.57,2.57,0,0,1,1.29-.32,2.85,2.85,0,0,1,1.36.32,2.35,2.35,0,0,1,.93.89,2.54,2.54,0,0,1,.33,1.3,2.57,2.57,0,0,1-.16.9A2.61,2.61,0,0,1,139.43,281Z"/><path class="cls-2" d="M135,282.51h.88v.89H135Z"/><path class="cls-2" d="M139.36,285.56h-3.78v1.65h1.56v.62H135v-3.68h.62v.65h3.78v-.65H140v2.05h-.63Z"/><path class="cls-2" d="M135.57,290H135v-1.77h.61v.54h2.28v-.54h.61v1.23h-2.89Zm4.07-.5a.41.41,0,0,1-.41-.41.38.38,0,0,1,.12-.29.4.4,0,0,1,.29-.12.41.41,0,0,1,.3.12.38.38,0,0,1,.12.29.4.4,0,0,1-.12.29A.41.41,0,0,1,139.64,289.5Z"/><path class="cls-2" d="M137.85,291.45l-2,.76,2,.76v-.49h.61v1.68h-.61v-.53l-2.95-1.12v-.63l2.95-1.14v-.62h.61v1.79h-.61Z"/><path class="cls-2" d="M136.53,298.23v-2.94a1.3,1.3,0,0,0-.79.39,1.15,1.15,0,0,0-.29.81,1.39,1.39,0,0,0,.14.64,1.31,1.31,0,0,0,.44.5l-.27.6a1.82,1.82,0,0,1-.68-.75,2.3,2.3,0,0,1-.23-1,2.07,2.07,0,0,1,.24-1,1.82,1.82,0,0,1,.66-.69,1.89,1.89,0,0,1,.95-.24,1.93,1.93,0,0,1,1,.24,1.74,1.74,0,0,1,.66.66,1.84,1.84,0,0,1,.24.93,1.92,1.92,0,0,1-.25,1,1.76,1.76,0,0,1-.7.65A2.39,2.39,0,0,1,136.53,298.23Zm1.45-1.85a1,1,0,0,0-.26-.69,1.23,1.23,0,0,0-.69-.38v2.2a1.16,1.16,0,0,0,.69-.41A1.07,1.07,0,0,0,138,296.38Z"/><path class="cls-2" d="M137.85,301.79l-2,.76,2,.75v-.49h.61v1.68h-.61V304l-2.95-1.12v-.62l2.95-1.14v-.62h.61v1.79h-.61Z"/><path class="cls-2" d="M136.7,308.55a1.84,1.84,0,0,1-.93-.24,1.87,1.87,0,0,1-.67-.67,1.75,1.75,0,0,1-.25-.93,1.8,1.8,0,0,1,.25-.95,1.77,1.77,0,0,1,.67-.66,1.83,1.83,0,0,1,.93-.23,1.9,1.9,0,0,1,1,.23,1.74,1.74,0,0,1,.66.66,1.89,1.89,0,0,1,.24.95,1.85,1.85,0,0,1-.93,1.6A1.84,1.84,0,0,1,136.7,308.55Zm-1.18-1.84a1.08,1.08,0,0,0,.16.56,1.13,1.13,0,0,0,.43.41,1.31,1.31,0,0,0,1.18,0,1.13,1.13,0,0,0,.43-.41,1,1,0,0,0,.17-.57,1,1,0,0,0-.16-.56,1.13,1.13,0,0,0-.44-.4,1.22,1.22,0,0,0-1.17,0,1.06,1.06,0,0,0-.44.4A1.17,1.17,0,0,0,135.52,306.71Z"/><path class="cls-2" d="M135.57,310.79H135v-1.85h.61v.62h3.81v-.62H140v1.31h-4.42Z"/><path class="cls-2" d="M135,311.64h.88v.89H135Z"/><path class="cls-2" d="M138.65,317.78h.7v-1.53l-1.49-.12a1.56,1.56,0,0,1,.37,1,1.51,1.51,0,0,1-.23.82,1.47,1.47,0,0,1-.6.53,1.87,1.87,0,0,1-.83.18,1.85,1.85,0,0,1-.89-.2,1.53,1.53,0,0,1-.6-.61,1.88,1.88,0,0,1-.21-.91,1.63,1.63,0,0,1,.44-1.21,1.81,1.81,0,0,1,1.25-.49v.65a1.37,1.37,0,0,0-.81.34.91.91,0,0,0-.29.71,1,1,0,0,0,.3.73,1.16,1.16,0,0,0,.8.28,1.08,1.08,0,0,0,.79-.27.86.86,0,0,0,.28-.67,1.18,1.18,0,0,0-.61-1,2.33,2.33,0,0,0,.38-.52l2.58.2v2.68h-1.33Z"/><path class="cls-2" d="M138.5,322.59V322a1.28,1.28,0,0,0,.69-.29.79.79,0,0,0,.28-.62.82.82,0,0,0-.49-.74,3,3,0,0,0-1.38-.28,1.6,1.6,0,0,1,.55,1.18,1.37,1.37,0,0,1-.18.69,1.31,1.31,0,0,1-.53.51,1.67,1.67,0,0,1-.83.2,2.05,2.05,0,0,1-.87-.18,1.41,1.41,0,0,1-.63-.52,1.38,1.38,0,0,1-.24-.81,1.48,1.48,0,0,1,.28-.9,1.77,1.77,0,0,1,.84-.61,3.83,3.83,0,0,1,1.41-.22,3.62,3.62,0,0,1,2,.45,1.48,1.48,0,0,1,.71,1.32,1.29,1.29,0,0,1-.44,1A1.8,1.8,0,0,1,138.5,322.59Zm-3-1.5a.8.8,0,0,0,.3.66,1.19,1.19,0,0,0,.76.24,1,1,0,0,0,.69-.22.75.75,0,0,0,.27-.62,1.42,1.42,0,0,0-.67-1.07C135.93,320.19,135.48,320.53,135.48,321.09Z"/><path class="cls-3" d="M20.36,21.05l4.45-4.44,4.45,4.44L24.81,25.5Z"/><path class="cls-3" d="M20.81,33.92V33h8v1Zm.75-5.34v-.92h6.51v.92Z"/><path class="cls-3" d="M20.78,39.92V39h3.58V35.72h.92V39h3.64v.88H25.28v4.16h-.92V39.92Z"/><path class="cls-3" d="M20.88,52.43v-.85h7.84v.85Zm.52-6v-.87h6.84v.87ZM22,49.33v-.86h5.53v.86Z"/><path class="cls-3" d="M21.81,62.09V54.4h6.06v7.65H27v-.56H22.68v.6Zm.87-4.61H27V55.26H22.68Zm0,3.16H27V58.32H22.68Z"/><path class="cls-3" d="M20.36,67.52l4.45-4.45,4.45,4.45L24.81,72Zm.52,0,3.93,3.93,3.93-3.93-3.93-3.93Z"/><path class="cls-3" d="M21.67,77.52c0-.07,0-.1.1-.1l.06,0a1.17,1.17,0,0,0,.8.41c.15,0,1.31-.11,3.46-.33a20.05,20.05,0,0,0,.4-2.71c0-.06,0-.09-.1-.09s-.63,0-1.3.14-1.1.15-1.28.2a4.11,4.11,0,0,0-.57.17,1.39,1.39,0,0,1-.41.11.8.8,0,0,1-.63-.43,1.61,1.61,0,0,1-.28-.9A.1.1,0,0,1,22,73.9s.08,0,.16.11a.86.86,0,0,0,.61.26q.32,0,1.53-.12L25.88,74a1.38,1.38,0,0,0,.54-.16.58.58,0,0,1,.3-.12,1.52,1.52,0,0,1,.76.35c.33.23.49.44.49.62a.6.6,0,0,1-.16.33,1.31,1.31,0,0,0-.22.39c0,.12-.08.29-.13.51s-.12.49-.2.82-.15.58-.2.77a.94.94,0,0,1,.49.27.59.59,0,0,1,.17.41c0,.21-.14.31-.41.31l-.61,0c-.34,0-.65,0-.93,0a8.55,8.55,0,0,0-2.19.29,4.72,4.72,0,0,1-.86.18.93.93,0,0,1-.73-.43A1.45,1.45,0,0,1,21.67,77.52Z"/><path class="cls-3" d="M20.65,87.55a.05.05,0,0,1,0,0,6.87,6.87,0,0,0,1.55-2.12,5.22,5.22,0,0,0,.59-2.2c0-.2-.18-.38-.55-.55a.11.11,0,0,1-.08-.1q0-.12.24-.18a1.73,1.73,0,0,1,.51,0,1.45,1.45,0,0,1,.7.27c.29.19.44.36.44.53a.76.76,0,0,1-.11.32,2,2,0,0,0-.12.29,5.67,5.67,0,0,1-1,2.22,5.94,5.94,0,0,1-2,1.71h-.05C20.69,87.65,20.65,87.62,20.65,87.55Zm3.45-6q0-.15.24-.21a2.26,2.26,0,0,1,.53-.06,1.45,1.45,0,0,1,.7.26c.28.17.42.33.42.47a.48.48,0,0,1-.12.28.94.94,0,0,0-.14.33,25.31,25.31,0,0,0-.12,3c0,.1,0,.15.1.15h.1a8.71,8.71,0,0,0,1.53-.86,17,17,0,0,0,1.59-1.24.09.09,0,0,1,.07,0c.08,0,.12,0,.12.1s0,0,0,.06a10.48,10.48,0,0,1-3,3,1.23,1.23,0,0,0-.19.17.75.75,0,0,1-.47.27c-.13,0-.3-.11-.5-.35a1,1,0,0,1-.31-.56,1.13,1.13,0,0,1,.06-.29,2.18,2.18,0,0,0,.1-.57c0-.24,0-.78,0-1.63s0-1.42,0-1.73-.22-.37-.6-.47A.09.09,0,0,1,24.1,81.52Z"/><path class="cls-3" d="M21.31,91.55c0-.15,0-.22.12-.22a.07.07,0,0,1,.06,0,.74.74,0,0,0,.59.31c.24,0,1-.08,2.41-.23a7.91,7.91,0,0,0-.08-1.18c-.06-.16-.26-.27-.6-.36a.1.1,0,0,1-.08-.1c0-.09.1-.16.3-.22a2.37,2.37,0,0,1,.57-.08,1.63,1.63,0,0,1,.65.21c.25.14.37.28.37.41a.54.54,0,0,1-.09.26.92.92,0,0,0-.12.34,3.73,3.73,0,0,0-.05.63c.71-.09,1.19-.17,1.44-.23a2.45,2.45,0,0,1,.49-.09,1.32,1.32,0,0,1,.68.19.53.53,0,0,1,.34.47c0,.22-.13.33-.38.33l-1.15,0a13.5,13.5,0,0,0-1.44.08v.73c0,.35,0,.88,0,1.6s0,1.1,0,1.18a1.15,1.15,0,0,1-.25.7.67.67,0,0,1-.52.34.51.51,0,0,1-.36-.1,1.3,1.3,0,0,1-.17-.26l-.1-.2a2.21,2.21,0,0,0-.61-.61s-.05,0-.05-.07,0-.1.11-.1h0a8.1,8.1,0,0,0,.85.14.13.13,0,0,0,.15-.13c0-.24,0-.71,0-1.4V92.16a13.17,13.17,0,0,0-1.35.21,2.65,2.65,0,0,0-.59.21.91.91,0,0,1-.37.12.79.79,0,0,1-.6-.36A1.22,1.22,0,0,1,21.31,91.55Zm.18,4a.46.46,0,0,1-.13-.33.63.63,0,0,1,.05-.29.55.55,0,0,1,.11-.16l.23-.19.28-.21a2.88,2.88,0,0,0,.88-1.17.11.11,0,0,1,.12-.07c.06,0,.09,0,.09.1a4.67,4.67,0,0,1-.14,1.1,2.84,2.84,0,0,1-.45,1,.85.85,0,0,1-.68.4A.49.49,0,0,1,21.49,95.53Zm4.75-2.39a.08.08,0,0,1,0-.07.11.11,0,0,1,.08,0h0a3.6,3.6,0,0,1,1.49.7,1.46,1.46,0,0,1,.65,1.15.57.57,0,0,1-.14.4.41.41,0,0,1-.33.16.48.48,0,0,1-.33-.12.66.66,0,0,1-.17-.2l-.15-.32a4.67,4.67,0,0,0-1.13-1.6S26.24,93.18,26.24,93.14Zm.86-2.8a1,1,0,0,1-.31-.73,1,1,0,0,1,.31-.73,1,1,0,0,1,.73-.31,1,1,0,0,1,.73.31,1,1,0,0,1,.3.73,1,1,0,0,1-.3.73,1,1,0,0,1-.73.3A1,1,0,0,1,27.1,90.34Zm.27-1.2a.64.64,0,0,0-.19.47.62.62,0,0,0,.19.46.66.66,0,0,0,.46.19.65.65,0,0,0,.65-.65.64.64,0,0,0-.19-.47.63.63,0,0,0-.46-.19A.66.66,0,0,0,27.37,89.14Z"/><path class="cls-3" d="M21.11,100.37q0-.15.09-.15a.07.07,0,0,1,.06,0,1,1,0,0,0,.74.3c.29,0,1.16-.09,2.6-.29v-.42a6,6,0,0,0-.06-1c0-.16-.23-.29-.62-.4a.09.09,0,0,1-.08-.09c0-.09.11-.18.34-.27a1.49,1.49,0,0,1,.49-.14,1.62,1.62,0,0,1,.79.23c.27.15.41.3.41.44a.57.57,0,0,1-.1.26.7.7,0,0,0-.12.34q0,.2,0,.54c0,.23,0,.38,0,.44.73-.09,1.21-.17,1.44-.22l.42-.08a1.68,1.68,0,0,1,.75.22c.28.14.43.3.43.47s-.15.39-.44.39l-.63,0-1,0-1,0a5.45,5.45,0,0,1-.92,2.76,5.06,5.06,0,0,1-2.36,1.7h0c-.08,0-.12,0-.12-.11s0,0,.05-.08A5.3,5.3,0,0,0,24.58,101a13.11,13.11,0,0,0-1.66.35,2.05,2.05,0,0,0-.31.13,1.34,1.34,0,0,1-.43.11,1,1,0,0,1-.71-.4A1.23,1.23,0,0,1,21.11,100.37Z"/><path class="cls-3" d="M20.66,114a5.7,5.7,0,0,0,3.42-4.24H20.84v-.88h3.39a21.2,21.2,0,0,0,.11-2.51h.92a24.42,24.42,0,0,1-.12,2.51h3.67v.88H25.48a8,8,0,0,0,1.37,2.56A5.17,5.17,0,0,0,29,113.87a2.6,2.6,0,0,0-.63.8,7,7,0,0,1-3.51-4.2,6.37,6.37,0,0,1-3.52,4.2A2.18,2.18,0,0,0,20.66,114Z"/><path class="cls-3" d="M20.56,121.72l1.21-.39v-2.69h-1v-.8h1v-2h.8v2h.94v.8h-.94v2.41l1-.38.15.78c-.89.36-1.85.74-2.9,1.14Zm2.31,2v-.79H29v.79Zm.72-6.8v-.76h5.26v.76Zm.62,5.16v-4.33h4V122Zm.8-2.57h2.38v-1H25Zm0,1.83h2.38v-1.15H25Z"/><path class="cls-3" d="M20.36,129.17l4.45-4.45,4.45,4.45-4.45,4.44Zm.52,0,3.93,3.92,3.93-3.92-3.93-3.93Z"/><path class="cls-3" d="M20.5,141.66a6.77,6.77,0,0,0,.51-2.13l.7.11a7.64,7.64,0,0,1-.59,2.32A2.76,2.76,0,0,0,20.5,141.66Zm0-3.37.64,0,.21-.28a4.68,4.68,0,0,0,.28-.39,8.24,8.24,0,0,0-1.08-1.28l.43-.57.24.24a8.56,8.56,0,0,0,.74-1.66l.75.28a19.23,19.23,0,0,1-1,1.85,5.4,5.4,0,0,1,.4.49,14.69,14.69,0,0,0,.9-1.57l.71.32A30.08,30.08,0,0,1,22,138.21l1.07-.06c-.05-.12-.16-.35-.34-.68l.6-.26a6.67,6.67,0,0,1,.84,1.89l-.64.3a3.44,3.44,0,0,0-.17-.56l-.6,0v3.78H22v-3.73l-1.34.08Zm2.39,1.39.61-.18a5.9,5.9,0,0,1,.46,1.58l-.65.2A5.21,5.21,0,0,0,22.93,139.68Zm.58,2a3.24,3.24,0,0,0,1.54-1.83H24v-.7h1.39l.12,0,.47.19A4.25,4.25,0,0,1,24,142.31,1.76,1.76,0,0,0,23.51,141.73Zm.75-3.23v-3.28h1.46a7.9,7.9,0,0,0,.34-.93l1,.17c0,.08-.18.34-.42.76h2v3.28h-1.8v.06a7.42,7.42,0,0,0,.48,1.26,9.21,9.21,0,0,0,1-1l.69.51c-.48.42-.93.78-1.33,1.07a3.53,3.53,0,0,0,1.5,1.23,2.43,2.43,0,0,0-.51.68,4.28,4.28,0,0,1-1.82-2v1.49a1.22,1.22,0,0,1-.07.48.4.4,0,0,1-.25.24,3.23,3.23,0,0,1-1.18.13,2.51,2.51,0,0,0-.22-.73h.62a.83.83,0,0,0,.31,0,.16.16,0,0,0,0-.11V138.5Zm.77-1.95h2.78v-.66H25Zm0,1.28h2.78v-.66H25Z"/><path class="cls-3" d="M20.54,151.28a5.33,5.33,0,0,0,2-2.22,24.27,24.27,0,0,0-1.56-1.9l.59-.48c.35.36.79.86,1.33,1.51a11.92,11.92,0,0,0,.5-2.11l.83.11a12.52,12.52,0,0,1-.75,2.74,12.82,12.82,0,0,1,1,1.52l-.68.57a9.54,9.54,0,0,0-.71-1.23,6.18,6.18,0,0,1-2,2.15A3.35,3.35,0,0,0,20.54,151.28Zm.22-5.4v-.79h1.66v-1.44h.82v1.44H25v.65h2.11v-2.1h.83v2.1h1v.82h-1v4.35a1.55,1.55,0,0,1-.09.59.73.73,0,0,1-.32.33,4.25,4.25,0,0,1-1.45.17H26a3.71,3.71,0,0,0-.28-.9l.82,0h.38c.14,0,.22-.07.22-.2v-4.35H24.72v-.68Zm4,1.86.69-.33a6,6,0,0,1,1,2l-.73.36a4.61,4.61,0,0,0-.37-1A8.22,8.22,0,0,0,24.74,147.74Z"/><path class="cls-3" d="M20.53,159a6.92,6.92,0,0,0,.81-1.2,9.5,9.5,0,0,0,.66-1.47H20.71v-.8h1.4v-1.24q-.6.12-1.23.21a2.67,2.67,0,0,0-.24-.66,11.62,11.62,0,0,0,2.84-.73l.58.65a11.62,11.62,0,0,1-1.13.36v1.41H24v.18a8.94,8.94,0,0,0,1-2.7l.83.18c-.09.36-.22.81-.41,1.35h3.48v.79H27v5a1.52,1.52,0,0,1-.08.53.72.72,0,0,1-.34.33,3,3,0,0,1-1.1.13h-.09a3.29,3.29,0,0,0-.31-.85H26c.12,0,.17,0,.17-.15v-5H25.12a6.41,6.41,0,0,1-.81,1.41l-.64-.41h-.74v.42c.14.12.35.33.64.63a6.55,6.55,0,0,1,.56.6l-.49.66a10.71,10.71,0,0,0-.71-1.05v3.75h-.82v-3.68A8.62,8.62,0,0,1,21,159.76,6,6,0,0,0,20.53,159Zm3.25.46a7.26,7.26,0,0,0,1.09-2.87l.8.16a8.56,8.56,0,0,1-1.18,3.14A3.45,3.45,0,0,0,23.78,159.44Zm3.66-2.71.73-.23a13.24,13.24,0,0,1,.89,3.05l-.79.25A13.18,13.18,0,0,0,27.44,156.73Z"/><path class="cls-3" d="M20.36,166.86l4.45-4.44,4.45,4.44-4.45,4.45Zm.52,0,3.93,3.93,3.93-3.93-3.93-3.93Z"/><path class="cls-3" d="M20.65,178.63a.05.05,0,0,1,0,0,6.87,6.87,0,0,0,1.55-2.12,5.22,5.22,0,0,0,.59-2.2c0-.2-.18-.38-.55-.55a.11.11,0,0,1-.08-.1q0-.12.24-.18a1.73,1.73,0,0,1,.51-.05,1.45,1.45,0,0,1,.7.27c.29.19.44.36.44.53a.76.76,0,0,1-.11.32,2,2,0,0,0-.12.29,5.67,5.67,0,0,1-1,2.22,5.94,5.94,0,0,1-2,1.71h-.05C20.69,178.73,20.65,178.7,20.65,178.63Zm3.45-6q0-.15.24-.21a2.26,2.26,0,0,1,.53-.06,1.45,1.45,0,0,1,.7.26c.28.17.42.33.42.47a.48.48,0,0,1-.12.28.94.94,0,0,0-.14.33,25.31,25.31,0,0,0-.12,3c0,.1,0,.16.1.16l.1,0a8.71,8.71,0,0,0,1.53-.86,17,17,0,0,0,1.59-1.24.09.09,0,0,1,.07,0c.08,0,.12,0,.12.1s0,0,0,.06a10.48,10.48,0,0,1-3,3l-.19.17a.75.75,0,0,1-.47.27c-.13,0-.3-.11-.5-.35a1,1,0,0,1-.31-.56,1.13,1.13,0,0,1,.06-.29,2.18,2.18,0,0,0,.1-.57c0-.24,0-.78,0-1.63s0-1.42,0-1.73-.22-.37-.6-.47A.09.09,0,0,1,24.1,172.6Z"/><path class="cls-3" d="M21.87,180.79c0-.09.11-.17.33-.25a1.49,1.49,0,0,1,.45-.12,1.46,1.46,0,0,1,.82.29c.29.19.44.36.44.5a.86.86,0,0,1-.13.34,1.2,1.2,0,0,0-.16.47c0,.16-.05.63-.1,1.4s-.06,1.36-.06,1.77c0,.1,0,.15.1.15h.05a10.33,10.33,0,0,0,2.47-1.21,15.75,15.75,0,0,0,2.53-1.91.09.09,0,0,1,.06,0c.07,0,.1,0,.1.11a.08.08,0,0,1,0,.06,13.14,13.14,0,0,1-4.68,4,1,1,0,0,0-.3.26.43.43,0,0,1-.31.18,1.09,1.09,0,0,1-.64-.41,1.07,1.07,0,0,1-.4-.63.7.7,0,0,1,.1-.29,1,1,0,0,0,.11-.34c0-.34,0-1,0-1.87s0-1.48,0-1.71a.7.7,0,0,0-.14-.44,1.76,1.76,0,0,0-.56-.23S21.87,180.83,21.87,180.79Z"/><path class="cls-3" d="M21.93,193.12a.12.12,0,0,1,0-.09.09.09,0,0,1,.07,0,.09.09,0,0,1,.07,0c.34.33.6.5.79.5a3.8,3.8,0,0,0,1.54-.65,18.13,18.13,0,0,0,2.27-1.61,12.26,12.26,0,0,0,1.81-1.78.1.1,0,0,1,.08,0,.1.1,0,0,1,.11.11.06.06,0,0,1,0,0,12.32,12.32,0,0,1-4.62,4.66,1.61,1.61,0,0,0-.3.26.6.6,0,0,1-.36.2,1.32,1.32,0,0,1-1-.49A1.9,1.9,0,0,1,21.93,193.12Zm0-4.47c0-.07,0-.11.12-.11a3.4,3.4,0,0,1,1.2.23,2.79,2.79,0,0,1,1,.59,1,1,0,0,1,.4.74.57.57,0,0,1-.16.42.5.5,0,0,1-.41.17.89.89,0,0,1-.7-.46c-.18-.26-.31-.43-.39-.53a5.51,5.51,0,0,0-1-1A.11.11,0,0,1,22,188.65Z"/><path class="cls-3" d="M20.36,200.57l4.45-4.44,4.45,4.44L24.81,205Zm.52,0,3.93,3.93,3.93-3.93-3.93-3.93Z"/><path class="cls-3" d="M25.84,206.21h0a.14.14,0,0,1,.12.12v.88a.1.1,0,0,1,0,.08.11.11,0,0,1-.08,0h0a13.81,13.81,0,0,0-1.86-.09H23c-.45,0-.72.09-.82.26A1,1,0,0,0,22,208a1.13,1.13,0,0,0,.31.68,2.85,2.85,0,0,0,.71.63h1a14.44,14.44,0,0,0,1.86-.09h0a.11.11,0,0,1,.08,0,.1.1,0,0,1,0,.08v.88a.14.14,0,0,1-.12.12h0a12.71,12.71,0,0,0-1.86-.1h-.59a9.13,9.13,0,0,0-1.13.09q-.69.09-.87.09c-.07,0-.1-.06-.1-.16v-.73c0-.08,0-.13.1-.14l.75,0a1.91,1.91,0,0,1-.93-1.49,1.49,1.49,0,0,1,.46-1.19,1.59,1.59,0,0,1,1.08-.39H24A13.27,13.27,0,0,0,25.84,206.21Z"/><path class="cls-3" d="M21.4,211.86h0a15.87,15.87,0,0,0,2.06.1h2.66a13.11,13.11,0,0,0,2-.1h0c.09,0,.13,0,.13.15a1.75,1.75,0,0,0,.06.34c0,.13.07.23.1.31a.68.68,0,0,1,0,.17.12.12,0,0,1-.06.09.19.19,0,0,1-.14.05q-1.32-.09-1.95-.09H24a.62.62,0,0,0,.13.31,7.7,7.7,0,0,0,.78.81,8.94,8.94,0,0,0,1,.81.11.11,0,0,1,0,.08l0,1.05a.1.1,0,0,1,0,.08.11.11,0,0,1-.08,0,.09.09,0,0,1-.07,0c-.57-.66-1.2-1.34-1.91-2-.59.5-1.14,1-1.65,1.52a8.35,8.35,0,0,1-.81.77.14.14,0,0,1-.13-.13V215a.12.12,0,0,1,0-.09l1.05-.73a9,9,0,0,0,1-.88,1,1,0,0,0,.07-.37,16.67,16.67,0,0,0-2.06.09h0a.11.11,0,0,1-.12-.12V212a.11.11,0,0,1,0-.08A.12.12,0,0,1,21.4,211.86Z"/><path class="cls-3" d="M25.84,216.86h0a.12.12,0,0,1,.08,0,.09.09,0,0,1,0,.08v.88a.1.1,0,0,1,0,.08.12.12,0,0,1-.08,0h0a12,12,0,0,0-1.86-.1H23c-.45,0-.72.09-.82.26a1,1,0,0,0-.16.55,1.13,1.13,0,0,0,.31.68A2.85,2.85,0,0,0,23,220h1a14.44,14.44,0,0,0,1.86-.09h0a.11.11,0,0,1,.08,0,.12.12,0,0,1,0,.09v.87a.14.14,0,0,1-.12.12h0a12.71,12.71,0,0,0-1.86-.1h-.59a9.13,9.13,0,0,0-1.13.09q-.69.09-.87.09c-.07,0-.1,0-.1-.16v-.73c0-.08,0-.13.1-.14l.75,0a1.91,1.91,0,0,1-.93-1.49,1.5,1.5,0,0,1,.46-1.19,1.59,1.59,0,0,1,1.08-.39H24A13.27,13.27,0,0,0,25.84,216.86Z"/><path class="cls-3" d="M21.4,225.62h0a15.87,15.87,0,0,0,2.06.1h2.66a13.11,13.11,0,0,0,2-.1h0c.09,0,.13,0,.13.15a1.75,1.75,0,0,0,.06.34c0,.13.07.23.1.31a.68.68,0,0,1,0,.17.12.12,0,0,1-.06.09.19.19,0,0,1-.14,0q-1.32-.09-1.95-.09H24a.62.62,0,0,0,.13.31,7.7,7.7,0,0,0,.78.81,8.94,8.94,0,0,0,1,.81.11.11,0,0,1,0,.08l0,1a.1.1,0,0,1,0,.08.11.11,0,0,1-.08,0,.09.09,0,0,1-.07,0c-.57-.66-1.2-1.34-1.91-2-.59.5-1.14,1-1.65,1.52a8.35,8.35,0,0,1-.81.77.14.14,0,0,1-.13-.13v-1.19a.12.12,0,0,1,0-.09l1.05-.73a10.18,10.18,0,0,0,1-.88,1,1,0,0,0,.07-.37,16.67,16.67,0,0,0-2.06.09h0a.11.11,0,0,1-.12-.12v-.87a.11.11,0,0,1,0-.08A.12.12,0,0,1,21.4,225.62Z"/><path class="cls-3" d="M21.51,230.76a1.05,1.05,0,0,1,.89-.38,1.29,1.29,0,0,1,1,.48,3,3,0,0,1,.6,1.31c0,.11.06.32.11.62s.1.45.15.45c.53,0,.86-.13,1-.38a1.44,1.44,0,0,0,.14-.62c0-.36-.28-.72-.84-1.07a.1.1,0,0,1,0-.08V231s0-.07.09-.09l.33-.08a2.52,2.52,0,0,1,.37-.08.13.13,0,0,1,.11.05,2.33,2.33,0,0,1,.62,1.51c0,1.26-.59,1.89-1.76,1.89l-1.57,0a2,2,0,0,0-.64.07c-.11,0-.16.15-.16.32a.8.8,0,0,0,0,.16l0,.12c0,.07-.12.13-.35.17a.09.09,0,0,1-.07,0,1.23,1.23,0,0,1-.35-.93.82.82,0,0,1,.57-.82,2.81,2.81,0,0,1-.45-.68,2.25,2.25,0,0,1-.12-.82A1.43,1.43,0,0,1,21.51,230.76Zm.94.55a.47.47,0,0,0-.37.23.82.82,0,0,0-.16.49,1.37,1.37,0,0,0,.11.54c.16.41.32.61.47.61l1.11,0-.2-.86Q23.13,231.31,22.45,231.31Z"/><path class="cls-3" d="M21.57,235.25l.89.18c.05,0,.08,0,.08.08v.15s0,.07,0,.08a1.44,1.44,0,0,0-.7,1.16,1.08,1.08,0,0,0,.2.68.63.63,0,0,0,.53.28.58.58,0,0,0,.51-.27,3.18,3.18,0,0,0,.29-.69c.08-.27.14-.47.19-.6a2.07,2.07,0,0,1,.23-.39,1,1,0,0,1,.94-.44,1.17,1.17,0,0,1,1,.5,2.15,2.15,0,0,1,.35,1.23,3,3,0,0,1-.33,1.37c0,.05,0,.07-.08.07l-.82-.21a.08.08,0,0,1-.06-.08l0-.15s0,0,0-.07l.32-.29a1.39,1.39,0,0,0,.22-.31.91.91,0,0,0,.13-.5.89.89,0,0,0-.15-.5.48.48,0,0,0-.41-.23c-.35,0-.61.33-.77,1a3,3,0,0,1-.47,1.09,1.05,1.05,0,0,1-.89.4,1.55,1.55,0,0,1-1-.37,2,2,0,0,1-.54-1.62,4.49,4.49,0,0,1,.29-1.47S21.53,235.25,21.57,235.25Z"/><path class="cls-3" d="M21.51,239.86a1.08,1.08,0,0,1,.89-.38,1.27,1.27,0,0,1,1,.49,2.91,2.91,0,0,1,.6,1.3c0,.11.06.32.11.62s.1.45.15.45c.53,0,.86-.12,1-.37a1.52,1.52,0,0,0,.14-.63c0-.36-.28-.71-.84-1.07a.09.09,0,0,1,0-.08v-.14s0-.07.09-.08l.33-.08.37-.09a.16.16,0,0,1,.11,0,2.35,2.35,0,0,1,.62,1.52c0,1.25-.59,1.88-1.76,1.88l-1.57,0a2.15,2.15,0,0,0-.64.06c-.11.05-.16.16-.16.33a.9.9,0,0,0,0,.15l0,.12c0,.07-.12.13-.35.17a.08.08,0,0,1-.07,0,1.27,1.27,0,0,1-.35-.94.8.8,0,0,1,.57-.81,2.66,2.66,0,0,1-.45-.69,2.25,2.25,0,0,1-.12-.82A1.45,1.45,0,0,1,21.51,239.86Zm.94.55a.5.5,0,0,0-.37.23.84.84,0,0,0-.16.49,1.45,1.45,0,0,0,.11.55c.16.4.32.61.47.61l1.11,0-.2-.85C23.22,240.76,22.9,240.41,22.45,240.41Z"/><path class="cls-3" d="M21.4,244.9h0a14,14,0,0,0,1.85.1h.58c.29,0,.67,0,1.14-.05l.88,0c.07,0,.1.06.1.17l0,.75c0,.12-.07.18-.2.18h0c-.6-.06-1.19-.09-1.78-.09h-.74a15.49,15.49,0,0,0-1.85.09h0a.1.1,0,0,1-.08,0,.09.09,0,0,1,0-.07V245a.11.11,0,0,1,0-.08A.12.12,0,0,1,21.4,244.9Zm5.76.12a.64.64,0,0,1,.44-.18A.58.58,0,0,1,28,245a.62.62,0,0,1,.18.44.6.6,0,0,1-.18.43.56.56,0,0,1-.43.19.65.65,0,0,1-.63-.62A.63.63,0,0,1,27.16,245Z"/><path class="cls-3" d="M20.36,252.1l4.45-4.45,4.45,4.45-4.45,4.44Zm.52,0L24.81,256l3.93-3.92-3.93-3.93Z"/><path class="cls-3" d="M21.27,257.23l.06,0a4,4,0,0,0,.83.28.08.08,0,0,1,.07.08v.12a.09.09,0,0,1,0,.08.56.56,0,0,0-.32.53c0,.55.69.83,2.06.83H26a15.78,15.78,0,0,0,2.06-.11h0l.09,0a.11.11,0,0,1,0,.09v1a.09.09,0,0,1,0,.08.11.11,0,0,1-.08,0h0a14.49,14.49,0,0,0-2.06-.1H24.16a3.92,3.92,0,0,1-2.24-.59,2,2,0,0,1-.85-1.75C21.07,257.43,21.14,257.23,21.27,257.23Z"/><path class="cls-3" d="M21.34,261.13l.07,0q4.13,1.89,6.86,3.06a.11.11,0,0,1,.05.1v.28c0,.05,0,.08-.05.09l-3.54,1.44c-1.79.72-2.8,1.14-3,1.25a2.15,2.15,0,0,1-.38.17s0,0,0-.08v-1.08a.08.08,0,0,1,.06-.08q1.07-.32,2.34-.78c0-.46,0-.88,0-1.26s0-.79,0-1.27a22.52,22.52,0,0,0-2.34-.84s-.06,0-.06-.09v-.83C21.28,261.16,21.3,261.13,21.34,261.13Zm3,2.14c0,.24,0,.58,0,1s0,.76,0,1c.69-.26,1.48-.58,2.38-1Z"/><path class="cls-3" d="M24.67,268A3.83,3.83,0,0,1,27.29,269a3.89,3.89,0,0,1,.76,1.12,3.07,3.07,0,0,1,.28,1.27,5.28,5.28,0,0,1-.14,1.21,5.11,5.11,0,0,1-.26.86,2.18,2.18,0,0,1-.16.31.13.13,0,0,1-.1,0h0a4.85,4.85,0,0,0-1.14-.19c-.06,0-.08,0-.08-.09v-.12a.11.11,0,0,1,.05-.09,2.1,2.1,0,0,0,1.18-2,2.17,2.17,0,0,0-.61-1.39,2.45,2.45,0,0,0-.88-.58,3.55,3.55,0,0,0-1.3-.22,3.22,3.22,0,0,0-2.07.68,2,2,0,0,0-.88,1.61,2.88,2.88,0,0,0,.22,1.21,3.61,3.61,0,0,0,.82,1,.11.11,0,0,1,0,.08c0,.15-.16.22-.48.22h-.14a3.23,3.23,0,0,1-1.17-2.64,3.39,3.39,0,0,1,.5-1.87A3.24,3.24,0,0,1,24.67,268Z"/><path class="cls-3" d="M21.4,275.42h0a15.35,15.35,0,0,0,2.06.11H26a15.78,15.78,0,0,0,2.06-.11h0a.12.12,0,0,1,.09,0,.09.09,0,0,1,0,.08v1a.1.1,0,0,1,0,.08.18.18,0,0,1-.09,0h0a14.49,14.49,0,0,0-2.06-.1h-.93a.1.1,0,0,0,0,.07,33,33,0,0,0,3.05,3,.09.09,0,0,1,0,.06v1c0,.08-.06.11-.1.11a.09.09,0,0,1-.06,0c-.45-.52-1-1.08-1.56-1.7s-1.07-1.08-1.44-1.41l-3.64,3.22h-.09s0,0,0-.06v-1.22a.11.11,0,0,1,0-.06c1.89-1.53,3-2.5,3.47-2.93a.08.08,0,0,0,0,0H23.47a15.26,15.26,0,0,0-2.06.1h0a.18.18,0,0,1-.09,0,.13.13,0,0,1,0-.08v-1a.11.11,0,0,1,0-.08A.12.12,0,0,1,21.4,275.42Z"/><path class="cls-3" d="M21.8,281.34h0a8.51,8.51,0,0,0,1.05.23c.06,0,.08,0,.08.08v.11a.1.1,0,0,1,0,.09,2,2,0,0,0-.76.7,1.65,1.65,0,0,0-.32.9,1.23,1.23,0,0,0,.31.81,1,1,0,0,0,.84.37,1.13,1.13,0,0,0,.86-.32,2.44,2.44,0,0,0,.54-.82c.14-.34.26-.59.35-.76a4.1,4.1,0,0,1,.39-.56,1.55,1.55,0,0,1,1.3-.62,1.68,1.68,0,0,1,1.35.62,2.28,2.28,0,0,1,.54,1.54,2.81,2.81,0,0,1-.33,1.47c-.1.17-.18.26-.24.26h0a5.59,5.59,0,0,0-1-.24c-.05,0-.08,0-.08-.07V285a.11.11,0,0,1,.05-.09,2,2,0,0,0,.76-.57,1.31,1.31,0,0,0,.28-.81,1.16,1.16,0,0,0-.25-.76,1,1,0,0,0-.76-.3,1,1,0,0,0-.85.45,4,4,0,0,0-.39.78c-.12.3-.23.55-.33.74a3.85,3.85,0,0,1-.4.59,1.73,1.73,0,0,1-1.44.65,1.86,1.86,0,0,1-1.49-.67,2.48,2.48,0,0,1-.57-1.68,4.61,4.61,0,0,1,.12-1.09,3,3,0,0,1,.25-.7C21.66,281.41,21.74,281.34,21.8,281.34Z"/><path class="cls-3" d="M22.14,287.59a3.28,3.28,0,0,1,2.49-1,3.77,3.77,0,0,1,2.62,1A3.14,3.14,0,0,1,28.32,290a3.29,3.29,0,0,1-1,2.42,3.45,3.45,0,0,1-2.55,1,3.62,3.62,0,0,1-2.59-.94,3.18,3.18,0,0,1-1-2.42A3.42,3.42,0,0,1,22.14,287.59Zm2.66.17a3,3,0,0,0-2.17.73,2.22,2.22,0,0,0-.79,1.66,1.83,1.83,0,0,0,.73,1.51,3.36,3.36,0,0,0,2.15.58,3.32,3.32,0,0,0,2.2-.64,2.17,2.17,0,0,0,.76-1.75,1.93,1.93,0,0,0-.63-1.4,2.52,2.52,0,0,0-.91-.5A4.21,4.21,0,0,0,24.8,287.76Z"/><path class="cls-3" d="M21.39,294.78c.3,0,.93,0,1.89.07s1.82.08,2.58.08,1.5,0,2.23-.05a.16.16,0,0,1,.09,0,.13.13,0,0,1,0,.08v.57s0,.05-.08.08l-4.61,3.56-.53.43.26,0H26a15.78,15.78,0,0,0,2.06-.11h0c.08,0,.11.06.11.17v.61c0,.12,0,.18-.1.18-.9,0-2.12,0-3.67-.08l-2.83-.09a.47.47,0,0,1-.28-.09.29.29,0,0,1-.13-.24.66.66,0,0,1,.33-.52l4.59-3.63a2.28,2.28,0,0,0,.27-.23H23.47a17.15,17.15,0,0,0-2.06.1h0l-.09,0a.13.13,0,0,1,0-.08V295C21.29,294.83,21.32,294.78,21.39,294.78Z"/><path class="cls-3" d="M21.4,305.15h0a15.56,15.56,0,0,0,2.06.11h2.66a12.76,12.76,0,0,0,2-.11h0c.09,0,.13.05.13.15a1.63,1.63,0,0,0,.06.34c0,.13.07.24.1.32a.64.64,0,0,1,0,.16s0,.06-.06.1a.24.24,0,0,1-.14,0q-1.32-.09-1.95-.09H24a.66.66,0,0,0,.13.31,9,9,0,0,0,.78.8,10.44,10.44,0,0,0,1,.82.09.09,0,0,1,0,.07l0,1.06a.09.09,0,0,1,0,.07.12.12,0,0,1-.08,0,.1.1,0,0,1-.07,0c-.57-.66-1.2-1.33-1.91-2a21.91,21.91,0,0,0-1.65,1.51,7.89,7.89,0,0,1-.81.78.14.14,0,0,1-.09-.05.09.09,0,0,1,0-.08v-1.2a.12.12,0,0,1,0-.09l1.05-.72a10.57,10.57,0,0,0,1-.89,1,1,0,0,0,.07-.36,16.67,16.67,0,0,0-2.06.09h0a.18.18,0,0,1-.09,0,.11.11,0,0,1,0-.08v-.88a.13.13,0,0,1,0-.08A.18.18,0,0,1,21.4,305.15Z"/><path class="cls-3" d="M21.51,310.29a1.08,1.08,0,0,1,.89-.38,1.27,1.27,0,0,1,1,.49,2.9,2.9,0,0,1,.6,1.31c0,.11.06.31.11.61s.1.45.15.45c.53,0,.86-.12,1-.37a1.49,1.49,0,0,0,.14-.63c0-.36-.28-.71-.84-1.07a.08.08,0,0,1,0-.08v-.13q0-.08.09-.09l.33-.08.37-.09a.14.14,0,0,1,.11.06A2.31,2.31,0,0,1,26,311.8c0,1.26-.59,1.88-1.76,1.88l-1.57,0a1.78,1.78,0,0,0-.64.07c-.11,0-.16.15-.16.32a.74.74,0,0,0,0,.15l0,.12c0,.08-.12.13-.35.18a.09.09,0,0,1-.07,0,1.27,1.27,0,0,1-.35-.94.81.81,0,0,1,.57-.81,2.66,2.66,0,0,1-.45-.69,2.25,2.25,0,0,1-.12-.82A1.45,1.45,0,0,1,21.51,310.29Zm.94.55a.5.5,0,0,0-.37.23.84.84,0,0,0-.16.49,1.45,1.45,0,0,0,.11.55c.16.4.32.61.47.61l1.11,0-.2-.85C23.22,311.19,22.9,310.84,22.45,310.84Z"/><path class="cls-3" d="M21.4,315.28h0a15.87,15.87,0,0,0,2.06.1h2.66a13.11,13.11,0,0,0,2-.1h0c.09,0,.13.05.13.14a1.71,1.71,0,0,0,.06.35c0,.13.07.23.1.31a.64.64,0,0,1,0,.16.14.14,0,0,1-.06.1.24.24,0,0,1-.14.05q-1.32-.09-1.95-.09H24a.66.66,0,0,0,.13.31,8.83,8.83,0,0,0,.78.81,8.94,8.94,0,0,0,1,.81.09.09,0,0,1,0,.07l0,1.06a.09.09,0,0,1,0,.07.09.09,0,0,1-.08,0,.08.08,0,0,1-.07,0c-.57-.65-1.2-1.33-1.91-2-.59.49-1.14,1-1.65,1.51a7.89,7.89,0,0,1-.81.78.14.14,0,0,1-.13-.13v-1.19q0-.08,0-.09l1.05-.73a9.33,9.33,0,0,0,1-.89.9.9,0,0,0,.07-.36,16.67,16.67,0,0,0-2.06.09h0a.12.12,0,0,1-.09,0,.11.11,0,0,1,0-.08v-.87a.16.16,0,0,1,0-.09Z"/><path class="cls-3" d="M21.4,320.55h0a13.82,13.82,0,0,0,1.85.11h.58c.29,0,.67,0,1.14-.05l.88-.06c.07,0,.1.06.1.17l0,.76c0,.12-.07.18-.2.18h0c-.6-.06-1.19-.09-1.78-.09h-.74a15.49,15.49,0,0,0-1.85.09h0s0,0-.08,0a.12.12,0,0,1,0-.08v-.87a.13.13,0,0,1,0-.08A.18.18,0,0,1,21.4,320.55Zm5.76.13a.61.61,0,0,1,.44-.19.56.56,0,0,1,.43.19.6.6,0,0,1,0,.86.56.56,0,0,1-.43.19.61.61,0,0,1-.44-1.05Z"/><path class="cls-3" d="M9.16,21.05l4.45-4.44,4.45,4.44L13.61,25.5Z"/><path class="cls-3" d="M9.61,33.92V33h8v1Zm.76-5.34v-.92h6.5v.92Z"/><path class="cls-3" d="M9.58,39.92V39h3.58V35.72h.93V39h3.63v.88H14.09v4.16h-.93V39.92Z"/><path class="cls-3" d="M9.88,52.78V45.49h7.5v7.22h-.89v-.55H10.72v.62Zm.84-1.44h5.77V48.9a1.71,1.71,0,0,1-.09.49c-.09.27-.38.41-.87.41h-.62a1,1,0,0,1-.63-.19.5.5,0,0,1-.19-.29,2.6,2.6,0,0,1-.05-.59V46.3H13a11.05,11.05,0,0,1-.22,1.83,5.17,5.17,0,0,1-.33,1,3,3,0,0,1-1.15,1.25,1.49,1.49,0,0,0-.53-.62,2.44,2.44,0,0,0,1.07-1.29,8,8,0,0,0,.33-2.14H10.72Zm4.14-2.56a.36.36,0,0,0,.08.28.34.34,0,0,0,.18,0h.34a.76.76,0,0,0,.25,0q.09,0,.12-.18c0-.11,0-.38,0-.81a2,2,0,0,0,.62.34V46.3H14.86Z"/><path class="cls-3" d="M10.61,62.09V54.4h6.06v7.65h-.9v-.56H11.48v.6Zm.87-4.61h4.29V55.26H11.48Zm0,3.16h4.29V58.32H11.48Z"/><path class="cls-3" d="M9.16,67.52l4.45-4.45,4.45,4.45L13.61,72Zm.52,0,3.93,3.93,3.93-3.93-3.93-3.93Z"/><path class="cls-3" d="M10.13,72.46a.12.12,0,0,1,.08,0,.48.48,0,0,1,.18.11,1.61,1.61,0,0,0,.19.13l3.51,2.44L14,72.82v0c0-.07,0-.1.16-.1h.47c.11,0,.16,0,.16.1l0,.59v2.12l0,.84c0,.09,0,.14-.15.14a.54.54,0,0,1-.18-.13l-.27-.2-3.42-2.37c0,.9.05,1.5.07,1.79s0,.49,0,.58v.16c0,.07,0,.1-.15.1h-.48c-.1,0-.16,0-.16-.1l0-.59V73.38l0-.83A.14.14,0,0,1,10.13,72.46Z"/><path class="cls-3" d="M14.65,77.2h0a.1.1,0,0,1,.08,0,.11.11,0,0,1,0,.08v.88a.1.1,0,0,1-.11.11h0a14,14,0,0,0-1.86-.09h-1c-.45,0-.73.09-.83.26a1,1,0,0,0-.16.55,1.13,1.13,0,0,0,.31.68,2.85,2.85,0,0,0,.71.63h1a14.65,14.65,0,0,0,1.86-.09h0a.1.1,0,0,1,.11.11v.88a.11.11,0,0,1,0,.08.1.1,0,0,1-.08,0h0a12.9,12.9,0,0,0-1.86-.1h-.6a9.28,9.28,0,0,0-1.13.09q-.69.09-.87.09c-.07,0-.1,0-.1-.16v-.73c0-.08,0-.13.1-.14l.76,0A1.91,1.91,0,0,1,10,78.88a1.48,1.48,0,0,1,.45-1.19,1.59,1.59,0,0,1,1.08-.39h1.25A13.47,13.47,0,0,0,14.65,77.2Z"/><path class="cls-3" d="M10.2,82.58h0a14,14,0,0,0,1.86.09h.57a14.62,14.62,0,0,0,2-.09h0s0,0,.08,0a.12.12,0,0,1,0,.08l0,.75c0,.1-.07.14-.2.14H14a2.49,2.49,0,0,1,.83,1.7,1.55,1.55,0,0,1-.2.77,1,1,0,0,1-.53.47,2.36,2.36,0,0,1,.73,1.62,1.25,1.25,0,0,1-.5,1.16,2.37,2.37,0,0,1-1.24.3h-1a13.27,13.27,0,0,0-1.86.1h0a.14.14,0,0,1-.12-.12v-.87a.12.12,0,0,1,0-.09.11.11,0,0,1,.08,0h0a14,14,0,0,0,1.86.09h1.15c.55,0,.82-.31.82-.92a1.38,1.38,0,0,0-.11-.59,1.88,1.88,0,0,0-.45-.59H12.07a15,15,0,0,0-1.86.1h0a.11.11,0,0,1-.08,0,.12.12,0,0,1,0-.09V85.7a.14.14,0,0,1,.12-.12h0a14,14,0,0,0,1.86.09h1.15a.84.84,0,0,0,.64-.21A.74.74,0,0,0,14,85a1.46,1.46,0,0,0-.21-.66,3.23,3.23,0,0,0-.54-.72H12.07a15,15,0,0,0-1.86.1h0a.11.11,0,0,1-.08,0,.1.1,0,0,1,0-.08V82.7a.09.09,0,0,1,0-.08A.12.12,0,0,1,10.2,82.58Z"/><path class="cls-3" d="M10.2,90.91h0a16,16,0,0,0,1.86.1h.57c.29,0,.67,0,1.14-.05s.76,0,.88,0,.1,0,.1.16l0,.76c0,.12-.07.18-.2.18h0c-.6-.06-1.19-.09-1.78-.09h-.73a15.55,15.55,0,0,0-1.86.09h0a.14.14,0,0,1-.12-.12V91a.12.12,0,0,1,0-.09A.11.11,0,0,1,10.2,90.91ZM16,91a.61.61,0,0,1,.43-.19.59.59,0,0,1,.43.19.6.6,0,0,1,.18.43.62.62,0,0,1-.18.44.58.58,0,0,1-.43.18A.6.6,0,0,1,16,91.9a.59.59,0,0,1-.19-.44A.57.57,0,0,1,16,91Z"/><path class="cls-3" d="M10.37,92.87l.89.17c.05,0,.08,0,.08.09v.15a.09.09,0,0,1,0,.08,1.44,1.44,0,0,0-.7,1.16,1.16,1.16,0,0,0,.2.68.66.66,0,0,0,.54.28.55.55,0,0,0,.5-.28,2.89,2.89,0,0,0,.29-.68,5.13,5.13,0,0,1,.2-.6,2,2,0,0,1,.22-.39,1,1,0,0,1,.94-.44,1.17,1.17,0,0,1,1,.5,2.08,2.08,0,0,1,.36,1.23,3,3,0,0,1-.33,1.37s-.06.07-.09.07l-.81-.21a.08.08,0,0,1-.07-.08l0-.15a.13.13,0,0,1,0-.07l.32-.29a1.39,1.39,0,0,0,.22-.31.93.93,0,0,0,.13-.5.89.89,0,0,0-.15-.5.48.48,0,0,0-.41-.23c-.35,0-.6.33-.77,1A2.82,2.82,0,0,1,12.45,96a1.07,1.07,0,0,1-.88.4,1.51,1.51,0,0,1-1-.37A2,2,0,0,1,10,94.4a4.46,4.46,0,0,1,.28-1.47A.09.09,0,0,1,10.37,92.87Z"/><path class="cls-3" d="M10.2,97.53h0a16,16,0,0,0,1.86.1h.57c.29,0,.67,0,1.14,0s.76,0,.88,0,.1,0,.1.16l0,.76c0,.12-.07.18-.2.18h0c-.6-.06-1.19-.09-1.78-.09h-.73a15.55,15.55,0,0,0-1.86.09h0a.14.14,0,0,1-.12-.12v-.86a.12.12,0,0,1,0-.09A.11.11,0,0,1,10.2,97.53Zm5.77.12a.61.61,0,0,1,.43-.19.59.59,0,0,1,.43.19.6.6,0,0,1,.18.43.62.62,0,0,1-.18.44.58.58,0,0,1-.43.18.6.6,0,0,1-.43-.18.59.59,0,0,1-.19-.44A.57.57,0,0,1,16,97.65Z"/><path class="cls-3" d="M10.67,100.35a2.41,2.41,0,0,1,1.73-.63,2.48,2.48,0,0,1,1.76.65,2.2,2.2,0,0,1,.7,1.7,2,2,0,0,1-.67,1.65,2.53,2.53,0,0,1-1.74.59,2.53,2.53,0,0,1-1.77-.62,2.43,2.43,0,0,1,0-3.34Zm1.83.38a2.07,2.07,0,0,0-1.57.58,1.13,1.13,0,0,0-.32.81,1,1,0,0,0,.46.83,1.82,1.82,0,0,0,1.16.35,3.06,3.06,0,0,0,1.52-.29,1,1,0,0,0,.5-1,1.1,1.1,0,0,0-.5-1A2.32,2.32,0,0,0,12.5,100.73Z"/><path class="cls-3" d="M9.16,109.36l4.45-4.45,4.45,4.45-4.45,4.44Zm.52,0,3.93,3.92,3.93-3.92-3.93-3.93Z"/><path class="cls-3" d="M9.38,118.06a8.66,8.66,0,0,0,1.23-1.58,10.51,10.51,0,0,0,.94-1.94l.81.26a16.32,16.32,0,0,1-.9,1.9v6.15H10.6V118a6.24,6.24,0,0,1-.74.89A3.34,3.34,0,0,0,9.38,118.06Zm2.46,0A7.74,7.74,0,0,0,13,116.52a10.91,10.91,0,0,0,.85-1.92l.81.22c-.12.33-.28.72-.47,1.18h3.66v.81h-2.7V118h2.48v.77H15.11V120h2.61v.8H15.11v2.11h-.86v-6h-.51a9,9,0,0,1-1.24,1.83A3.76,3.76,0,0,0,11.84,118.07Z"/><path class="cls-3" d="M9.39,131a9.36,9.36,0,0,0,1.66-.52,6.64,6.64,0,0,0,1.41-.75H9.65V129h3.53v-.55H10.49v-.64h2.69v-.55H10.05v-.67h1.87a4.54,4.54,0,0,0-.39-.83l.22,0H9.68V125H11a5.76,5.76,0,0,0-.66-1.23l.74-.25a4.84,4.84,0,0,1,.72,1.31l-.46.17h1v-1.56h.79V125h.91v-1.56h.8V125h1l-.34-.11a6.73,6.73,0,0,0,.63-1.35l.88.22a13.66,13.66,0,0,1-.76,1.24h1.32v.71H15.82l-.29.49a2.41,2.41,0,0,0-.22.38h1.93v.67H14v.55h2.8v.64H14V129H17.6v.71H14.75a7,7,0,0,0,1.42.75,7.94,7.94,0,0,0,1.67.49,3,3,0,0,0-.57.76A9.83,9.83,0,0,1,15.5,131,6.65,6.65,0,0,1,14,130v1.84h-.83v-1.77a6.82,6.82,0,0,1-1.49,1,10.43,10.43,0,0,1-1.74.68A2.65,2.65,0,0,0,9.39,131Zm3-5.26a4,4,0,0,1,.39.81l-.26.06h1.92c.15-.29.28-.58.4-.87Z"/><path class="cls-3" d="M9.36,140.1a4.81,4.81,0,0,0,1.05-3c0-.31,0-.65,0-1v-3.25h6.72v6.68a1.3,1.3,0,0,1-.11.58.7.7,0,0,1-.4.32,4.41,4.41,0,0,1-1.31.12H15a3.72,3.72,0,0,0-.29-.82l1.36,0c.15,0,.22-.08.23-.23v-1.63H14.1v2.61h-.84v-2.61h-2.1A4.93,4.93,0,0,1,10,140.65a3.06,3.06,0,0,0-.31-.3A1.68,1.68,0,0,0,9.36,140.1Zm1.88-3h2v-1.35h-2v.37C11.28,136.46,11.27,136.79,11.24,137.09Zm0-2.14h2v-1.29h-2Zm2.82,0h2.21v-1.29H14.1Zm0,2.14h2.21v-1.35H14.1Z"/><path class="cls-3" d="M10.19,141.89h0a15.41,15.41,0,0,0,2.07.11h2.54a16.06,16.06,0,0,0,2.07-.11h0A.14.14,0,0,1,17,142v1.84a2.53,2.53,0,0,1-.54,1.9,1.69,1.69,0,0,1-1.16.49,1.39,1.39,0,0,1-.76-.24,1.88,1.88,0,0,1-.6-.59,1.91,1.91,0,0,1-1.89,1.45,1.86,1.86,0,0,1-1.32-.54,2,2,0,0,1-.49-.83,4.16,4.16,0,0,1-.18-1.3V142A.1.1,0,0,1,10.19,141.89Zm.92,1.09c-.27,0-.4.34-.4,1a2.22,2.22,0,0,0,.31,1.38,1.21,1.21,0,0,0,1,.37,1.45,1.45,0,0,0,1.08-.47,1.8,1.8,0,0,0,.46-1.32v-1Zm3,0v.82a2,2,0,0,0,.24,1.07.93.93,0,0,0,.86.37,1,1,0,0,0,.89-.39,1.69,1.69,0,0,0,.27-1,1.93,1.93,0,0,0-.09-.74A.31.31,0,0,0,16,143Z"/><path class="cls-3" d="M13.49,147.48a3.5,3.5,0,0,1,3.22,1.94,3.9,3.9,0,0,1,.41,1.77A5.47,5.47,0,0,1,17,152.4a5.16,5.16,0,0,1-.26.9,1,1,0,0,1-.17.34l-.08,0h0a6.43,6.43,0,0,0-1.19-.2.08.08,0,0,1-.09-.09v-.12a.11.11,0,0,1,.05-.09,2.53,2.53,0,0,0,.91-.9,2.39,2.39,0,0,0,.32-1.22,2.24,2.24,0,0,0-.77-1.73,3,3,0,0,0-2.08-.69,3.37,3.37,0,0,0-2,.61A2,2,0,0,0,11,150a2.41,2.41,0,0,0-.27,1.15A2.47,2.47,0,0,0,11,152.7h.42a14,14,0,0,0,1.93-.1h0a.11.11,0,0,1,.08,0,.18.18,0,0,1,0,.09v1a.12.12,0,0,1,0,.08.11.11,0,0,1-.08,0h0a13.08,13.08,0,0,0-1.81-.11l-.5.1a.22.22,0,0,1-.1,0A4.22,4.22,0,0,1,10,151a3.37,3.37,0,0,1,1-2.57A3.5,3.5,0,0,1,13.49,147.48Z"/><path class="cls-3" d="M10.14,154.36h0c2.86.59,5.15,1,6.9,1.34a.09.09,0,0,1,.08.09v.34a.09.09,0,0,1-.06.09c-2,.86-3.7,1.63-5.07,2.28L17.11,161s.06,0,.06.08v.27a.09.09,0,0,1-.08.09c-2.36.27-4.66.6-6.91,1h0s-.06,0-.06-.07v-1c0-.05,0-.07.08-.08,1.29-.12,2.9-.3,4.84-.57-1.52-.75-3.13-1.51-4.84-2.26,0,0-.05,0-.05,0v-.18s0,0,.05,0c1.69-.69,3.33-1.41,4.9-2.16-1.87-.3-3.5-.55-4.91-.74a.1.1,0,0,1-.07-.1v-.68A.06.06,0,0,1,10.14,154.36Z"/><path class="cls-3" d="M9.16,167.24l4.45-4.45,4.45,4.45-4.45,4.45Zm.52,0,3.93,3.93,3.93-3.93-3.93-3.93Z"/><path class="cls-3" d="M10.2,172.53h0a15.41,15.41,0,0,0,2.07.11h2.54a16.06,16.06,0,0,0,2.07-.11h0a.11.11,0,0,1,.08,0,.12.12,0,0,1,0,.09l0,.46.06,1.46c0,.29,0,.53,0,.71a3.5,3.5,0,0,1-.14.67,1.49,1.49,0,0,1-.36.63,1.76,1.76,0,0,1-1.35.58,1.87,1.87,0,0,1-1.3-.45,2.19,2.19,0,0,1-.65-1.16c-.22.17-.7.5-1.44,1a15.24,15.24,0,0,0-1.54,1.13l-.07,0a.11.11,0,0,1-.07,0,.12.12,0,0,1,0-.09v-1.15a.07.07,0,0,1,.06-.08,8.93,8.93,0,0,0,1.66-.88c.73-.45,1.17-.73,1.31-.85,0-.24,0-.58,0-1h-.8a15.33,15.33,0,0,0-2.07.1h0a.11.11,0,0,1-.08,0,.12.12,0,0,1,0-.09v-.95a.12.12,0,0,1,0-.09A.11.11,0,0,1,10.2,172.53Zm3.48,1.09v.6a2.41,2.41,0,0,0,.33,1.35,1.26,1.26,0,0,0,1.16.5,1.25,1.25,0,0,0,.63-.14.88.88,0,0,0,.39-.37,2.08,2.08,0,0,0,.24-1,3.81,3.81,0,0,0,0-.75.2.2,0,0,0-.21-.17Z"/><path class="cls-3" d="M14.71,177.69s.06,0,.06.08v1s0,.08,0,.09c-1.31.44-2.46.86-3.46,1.27a33,33,0,0,0,3.46,1.42.09.09,0,0,1,0,.09v.86c0,.06,0,.09,0,.09a.7.7,0,0,1-.2-.08c-.1-.06-1-.52-2.77-1.38a27.39,27.39,0,0,0-3.49-1.56s-.07-.06-.07-.1v-.91s0-.06.05-.06a4.18,4.18,0,0,1,.68.4,10.54,10.54,0,0,0,1.28.68q2-.75,4.45-1.85Z"/><path class="cls-3" d="M14.65,183.23h0a.1.1,0,0,1,.08,0,.11.11,0,0,1,0,.08v.87a.16.16,0,0,1,0,.09.13.13,0,0,1-.08,0h0a14,14,0,0,0-1.86-.09h-1c-.45,0-.73.09-.83.26a1,1,0,0,0-.16.55,1.13,1.13,0,0,0,.31.68,2.85,2.85,0,0,0,.71.63h1a12.71,12.71,0,0,0,1.86-.1h0s.05,0,.08,0a.13.13,0,0,1,0,.08v.88a.11.11,0,0,1,0,.08s-.05,0-.08,0h0a12.9,12.9,0,0,0-1.86-.1h-.6a9.28,9.28,0,0,0-1.13.09q-.69.09-.87.09c-.07,0-.1-.06-.1-.17v-.72c0-.08,0-.13.1-.14l.76,0a1.91,1.91,0,0,1-.93-1.49,1.48,1.48,0,0,1,.45-1.19,1.59,1.59,0,0,1,1.08-.39h1.25A13.47,13.47,0,0,0,14.65,183.23Z"/><path class="cls-3" d="M10.2,189.93h0a15.41,15.41,0,0,0,2.07.11h2.54a16.06,16.06,0,0,0,2.07-.11h0a.14.14,0,0,1,.12.12v1a.1.1,0,0,1,0,.08.11.11,0,0,1-.08,0h0a16.5,16.5,0,0,0-2.07-.1H12.28a17.21,17.21,0,0,0-2.07.1h0a.11.11,0,0,1-.08,0,.1.1,0,0,1,0-.08v-1a.14.14,0,0,1,.12-.12Z"/><path class="cls-3" d="M10.37,192.31l.89.17c.05,0,.08,0,.08.08v.16a.1.1,0,0,1,0,.08,1.44,1.44,0,0,0-.7,1.16,1.16,1.16,0,0,0,.2.68.66.66,0,0,0,.54.28.57.57,0,0,0,.5-.28,2.89,2.89,0,0,0,.29-.68,4.55,4.55,0,0,1,.2-.6,2,2,0,0,1,.22-.4,1,1,0,0,1,.94-.43,1.14,1.14,0,0,1,1,.5,2,2,0,0,1,.36,1.23,3,3,0,0,1-.33,1.37s-.06.07-.09.07l-.81-.21a.08.08,0,0,1-.07-.08l0-.15a.13.13,0,0,1,0-.07l.32-.29a1.69,1.69,0,0,0,.22-.31.93.93,0,0,0,.13-.5.92.92,0,0,0-.15-.51.47.47,0,0,0-.41-.22c-.35,0-.6.32-.77,1a2.82,2.82,0,0,1-.47,1.09,1.07,1.07,0,0,1-.88.4,1.56,1.56,0,0,1-1-.37,2,2,0,0,1-.54-1.62,4.51,4.51,0,0,1,.28-1.48A.1.1,0,0,1,10.37,192.31Z"/><path class="cls-3" d="M10.2,196.72h0a13.27,13.27,0,0,0,1.86.1h2.85a13.17,13.17,0,0,0,2-.1h0c.09,0,.13.05.14.15a1.55,1.55,0,0,0,.05.34c0,.13.07.24.1.32a.54.54,0,0,1,.05.16s0,.06-.06.1a.24.24,0,0,1-.14.05c-.85-.07-1.5-.1-1.94-.1H14a2.4,2.4,0,0,1,.81,1.73,1.33,1.33,0,0,1-.45,1.1,2,2,0,0,1-1.29.37l-1,0a13.47,13.47,0,0,0-1.86.1h0a.12.12,0,0,1-.08,0,.1.1,0,0,1,0-.08V200a.09.09,0,0,1,0-.08.12.12,0,0,1,.08,0h0a13.43,13.43,0,0,0,1.86.1h1a1,1,0,0,0,.76-.22.79.79,0,0,0,.19-.56,1.56,1.56,0,0,0-.2-.74,2.63,2.63,0,0,0-.59-.74H12.07a13.66,13.66,0,0,0-1.86.1h0a.12.12,0,0,1-.08,0,.1.1,0,0,1,0-.08v-.88a.09.09,0,0,1,0-.08A.12.12,0,0,1,10.2,196.72Z"/><path class="cls-3" d="M10.2,202.47h0a14.06,14.06,0,0,0,1.86.1h.57c.29,0,.67,0,1.14,0l.88-.05c.07,0,.1.06.1.17l0,.75c0,.13-.07.19-.2.19h0c-.6-.06-1.19-.1-1.78-.1h-.73a15.25,15.25,0,0,0-1.86.1h0s0,0-.08-.05a.09.09,0,0,1,0-.07v-.87a.09.09,0,0,1,0-.08A.12.12,0,0,1,10.2,202.47Zm5.77.13a.57.57,0,0,1,.43-.19.56.56,0,0,1,.43.19.6.6,0,0,1,0,.86.56.56,0,0,1-.43.19A.61.61,0,0,1,16,202.6Z"/><path class="cls-3" d="M10.13,204.53a.12.12,0,0,1,.08,0,.37.37,0,0,1,.18.11l.19.13,3.51,2.44L14,204.89v0c0-.07,0-.1.16-.1h.47c.11,0,.16,0,.16.1l0,.59v2.12l0,.83a.13.13,0,0,1-.15.15.54.54,0,0,1-.18-.13l-.27-.2-3.42-2.37c0,.9.05,1.5.07,1.79s0,.48,0,.58v.16c0,.06,0,.1-.15.1h-.48c-.1,0-.16,0-.16-.1l0-.6v-2.34l0-.84S10.1,204.56,10.13,204.53Z"/><path class="cls-3" d="M14.65,209.27h0a.1.1,0,0,1,.08,0,.11.11,0,0,1,0,.08v.87a.16.16,0,0,1,0,.09.13.13,0,0,1-.08,0h0a14,14,0,0,0-1.86-.09h-1c-.45,0-.73.09-.83.26a1,1,0,0,0-.16.55,1.13,1.13,0,0,0,.31.68,2.85,2.85,0,0,0,.71.63h1a12.71,12.71,0,0,0,1.86-.1h0s.05,0,.08,0a.13.13,0,0,1,0,.08v.88a.11.11,0,0,1,0,.08s-.05,0-.08,0h0a12.9,12.9,0,0,0-1.86-.1h-.6a9.28,9.28,0,0,0-1.13.09q-.69.09-.87.09c-.07,0-.1-.06-.1-.17v-.72c0-.08,0-.13.1-.14l.76,0A1.91,1.91,0,0,1,10,211a1.48,1.48,0,0,1,.45-1.19,1.59,1.59,0,0,1,1.08-.39h1.25A13.47,13.47,0,0,0,14.65,209.27Z"/><path class="cls-3" d="M10.2,214.92h0a15.94,15.94,0,0,0,2.07.1h2.65a13.11,13.11,0,0,0,2-.1h0c.09,0,.13.05.14.15a1.64,1.64,0,0,0,.05.34c0,.13.07.23.1.31a.68.68,0,0,1,.05.17.12.12,0,0,1-.06.09.19.19,0,0,1-.14.05q-1.32-.09-2-.09H12.8a.61.61,0,0,0,.12.31,8,8,0,0,0,.79.81,8.91,8.91,0,0,0,1,.81.12.12,0,0,1,0,.08l0,1.05a.1.1,0,0,1-.11.11.1.1,0,0,1-.08,0c-.56-.66-1.2-1.34-1.91-2-.58.5-1.13,1-1.65,1.52a8.35,8.35,0,0,1-.81.77.14.14,0,0,1-.13-.13V218a.1.1,0,0,1,0-.09l1-.73a9.2,9.2,0,0,0,1-.88,1.19,1.19,0,0,0,.08-.37,16.75,16.75,0,0,0-2.07.09h0a.11.11,0,0,1-.08,0,.12.12,0,0,1,0-.09V215a.14.14,0,0,1,.12-.12Z"/><path class="cls-3" d="M10.31,220.06a1.07,1.07,0,0,1,.9-.38,1.26,1.26,0,0,1,1,.49,2.91,2.91,0,0,1,.6,1.3c0,.11.06.32.11.62s.1.45.15.45c.53,0,.86-.13,1-.37a1.52,1.52,0,0,0,.14-.63c0-.36-.28-.72-.84-1.07a.09.09,0,0,1,0-.08v-.14s0-.07.1-.08l.32-.09.37-.08a.16.16,0,0,1,.12.05,2.38,2.38,0,0,1,.62,1.51q0,1.89-1.77,1.89l-1.57,0a2,2,0,0,0-.64.07c-.11.05-.16.15-.16.33a.54.54,0,0,0,0,.15l0,.12c0,.07-.11.13-.34.17a.11.11,0,0,1-.08,0,1.22,1.22,0,0,1-.34-.93.82.82,0,0,1,.56-.82,2.46,2.46,0,0,1-.44-.68A2.25,2.25,0,0,1,10,221,1.42,1.42,0,0,1,10.31,220.06Zm.95.55a.44.44,0,0,0-.37.23.77.77,0,0,0-.17.49,1.39,1.39,0,0,0,.12.54c.15.41.31.61.46.61l1.11,0-.2-.86C12,221,11.71,220.61,11.26,220.61Z"/><path class="cls-3" d="M9.16,228.66l4.45-4.44,4.45,4.44-4.45,4.45Zm.52,0,3.93,3.93,3.93-3.93-3.93-3.93Z"/><path class="cls-3" d="M9.57,239v-.61h3.58v-.44h-3v-.55h3V237H10.42v-.53h2.73V236H9.58v-.61h3.57v-.44H10.53v-.52h2.62v-.62H14v.62h2.56v1h1.08V236H16.56v1H14v.42h3v.55H14v.44h3.65V239Zm1.15,3.22v-2.85h5.89v2.84h-.86v-.26h-4.2v.27Zm.83-1.85h4.2v-.45h-4.2Zm0,1h4.2v-.49h-4.2Zm2.45-6h1.73v-.44H14Zm0,1.06h1.73V236H14Z"/><path class="cls-3" d="M9.42,245.32v-.67h3.64v.67Zm.41,6.07v-3.06h2.85V251h-2.1v.38Zm0-4.85v-.66h2.86v.66Zm0,1.22v-.66h2.86v.66Zm.05-3.65v-.67h2.84v.67Zm.68,6.21h1.35V249H10.58Zm2.87-5.88v-.82h3.9v4.21H16.5v-.47H14.37v2.82c0,.18,0,.3.1.35a.77.77,0,0,0,.45.08h1.53a.42.42,0,0,0,.44-.25,4.53,4.53,0,0,0,.15-1.18,2,2,0,0,0,.79.35,3.45,3.45,0,0,1-.35,1.5,1.08,1.08,0,0,1-1,.39H14.83a1.55,1.55,0,0,1-1-.26,1.3,1.3,0,0,1-.28-1v-3.63h3v-2.11Z"/><path class="cls-3" d="M9.73,256.44c0-.06,0-.1.09-.1a.08.08,0,0,1,.07,0,1.21,1.21,0,0,0,.8.35c.26,0,1.37-.09,3.33-.28.31-1.46.48-2.42.52-2.89,0-.07,0-.11-.15-.11a5.78,5.78,0,0,0-.87.18,4.81,4.81,0,0,0-1,.31,1,1,0,0,1-.43.13.89.89,0,0,1-.68-.43,1.4,1.4,0,0,1-.34-.88c0-.07,0-.1.11-.1a.09.09,0,0,1,.06,0A1.21,1.21,0,0,0,12,253a11.89,11.89,0,0,0,2.16-.3,1.77,1.77,0,0,0,.27-.14.67.67,0,0,1,.29-.12,1.84,1.84,0,0,1,.79.32c.36.2.54.39.54.54a.56.56,0,0,1-.2.35,1.07,1.07,0,0,0-.24.34c0,.08-.13.42-.29,1s-.28,1-.38,1.36l.65-.06a2.17,2.17,0,0,0,.43-.08,1.07,1.07,0,0,1,.25-.07,1.74,1.74,0,0,1,.86.3c.32.21.49.4.49.57a.41.41,0,0,1-.12.31.35.35,0,0,1-.24.12c-.08,0-.42,0-1-.13a9.88,9.88,0,0,0-1.59-.14,11.67,11.67,0,0,0-1.5.1,10.27,10.27,0,0,0-1.15.19c-.22,0-.45.12-.68.19a2,2,0,0,1-.53.1.93.93,0,0,1-.74-.43A1.43,1.43,0,0,1,9.73,256.44Z"/><path class="cls-3" d="M9.85,262.62c0-.07,0-.1.11-.1l.07,0a1.08,1.08,0,0,0,.75.35c.25,0,1-.06,2.29-.18l2.28-.21a3.11,3.11,0,0,0,.58-.1l.26-.06a1.67,1.67,0,0,1,.85.32c.33.22.49.41.49.59a.44.44,0,0,1-.11.3.32.32,0,0,1-.24.13c-.08,0-.38-.05-.89-.13a9,9,0,0,0-1.53-.13,11,11,0,0,0-2.84.35,6,6,0,0,1-1,.22.92.92,0,0,1-.73-.46A1.5,1.5,0,0,1,9.85,262.62Zm1.29-3.14a.08.08,0,0,1,.09-.09h.07a1.51,1.51,0,0,0,.93.33,6.92,6.92,0,0,0,1.49-.14,5.07,5.07,0,0,0,.92-.24,1.27,1.27,0,0,1,.27-.11,1.89,1.89,0,0,1,.81.2c.27.13.41.27.41.43a.4.4,0,0,1-.12.29.58.58,0,0,1-.44.15l-1.75.19c-1,.11-1.53.16-1.71.16a.94.94,0,0,1-.62-.41A1.28,1.28,0,0,1,11.14,259.48Z"/><path class="cls-3" d="M12.23,266.51c0-.06,0-.1.09-.1l.16.06a3.33,3.33,0,0,1,.49.24,1.32,1.32,0,0,1,.81,1.13.45.45,0,0,1-.13.33.37.37,0,0,1-.29.13.39.39,0,0,1-.38-.18,3.67,3.67,0,0,1-.25-.64,3.52,3.52,0,0,0-.49-.91S12.23,266.54,12.23,266.51Zm.42,4.48a.06.06,0,0,1,0-.06,7.76,7.76,0,0,0,1.92-1.41,8.5,8.5,0,0,0,1.4-1.73,2.78,2.78,0,0,0,.49-1.3c0-.15-.13-.28-.38-.41a.08.08,0,0,1-.05-.07c0-.08.16-.13.48-.13h0a1.08,1.08,0,0,1,.7.32.84.84,0,0,1,.36.59.49.49,0,0,1-.15.27,2.16,2.16,0,0,0-.19.26,7.37,7.37,0,0,1-1.78,2.29,7,7,0,0,1-2.76,1.45h0C12.68,271.06,12.65,271,12.65,271Zm1.12-5c0-.05,0-.08.1-.08h0a4.13,4.13,0,0,1,.67.29,1.2,1.2,0,0,1,.71,1.06.44.44,0,0,1-.15.35.47.47,0,0,1-.31.12.42.42,0,0,1-.26-.07.41.41,0,0,1-.12-.18c0-.06-.06-.16-.1-.3a3.37,3.37,0,0,0-.55-1.14A.07.07,0,0,1,13.77,266Z"/><path class="cls-3" d="M11.68,272.35c0-.08.11-.16.33-.23a2.26,2.26,0,0,1,.5-.1,1.68,1.68,0,0,1,.81.27c.3.17.46.33.46.48a.67.67,0,0,1-.12.33,1.35,1.35,0,0,0-.15.49,12,12,0,0,0-.06,1.25,5.79,5.79,0,0,1,2.27.64,1.17,1.17,0,0,1,.66,1,.6.6,0,0,1-.14.39.51.51,0,0,1-.4.16.61.61,0,0,1-.41-.13,2.79,2.79,0,0,1-.4-.45,3.48,3.48,0,0,0-.5-.56,4.84,4.84,0,0,0-1.09-.69c0,.54,0,1,0,1.48s0,.91,0,1.4,0,.82,0,1a.81.81,0,0,1-.1.45.44.44,0,0,1-.4.15.57.57,0,0,1-.5-.33,1.58,1.58,0,0,1-.19-.84,2.93,2.93,0,0,1,.05-.41,6,6,0,0,0,.11-.74c0-.31.05-1.05.05-2.19a15.61,15.61,0,0,0-.1-2.28c0-.23-.26-.39-.64-.46A.09.09,0,0,1,11.68,272.35Z"/><path class="cls-3" d="M9.16,284.91l4.45-4.45,4.45,4.45-4.45,4.44Zm.52,0,3.93,3.92,3.93-3.92L13.61,281Z"/><path class="cls-3" d="M11.22,294.23a.9.9,0,0,1-.25-.59,1.42,1.42,0,0,1,.09-.52s0,0,0,0l.05,0a.6.6,0,0,0,.45.26,1.54,1.54,0,0,0,.63-.2,4.68,4.68,0,0,1,2-.56,1.82,1.82,0,0,1,1.38.56,2.27,2.27,0,0,1,.53,1.62A3.19,3.19,0,0,1,15,297.35a4.63,4.63,0,0,1-2.91,1s-.06,0-.06-.05,0,0,0,0a4.56,4.56,0,0,0,2.19-1.39,3.71,3.71,0,0,0,.79-2.42,1.37,1.37,0,0,0-.29-1,.91.91,0,0,0-.72-.31,1.48,1.48,0,0,0-.79.21,8.43,8.43,0,0,0-1,.84l-.1.1a.47.47,0,0,1-.33.16A.75.75,0,0,1,11.22,294.23Zm.7-3.92s0-.05,0-.05h0a4.44,4.44,0,0,0,1,.4,4.6,4.6,0,0,0,1.2.18c.63,0,.95.21.95.59s-.18.36-.55.36l-.63,0a6.25,6.25,0,0,0-1.85.41s-.06,0-.06,0a.05.05,0,0,1,0,0,8.67,8.67,0,0,1,.91-.59.05.05,0,0,0,0,0l0,0a2,2,0,0,1-.64-.44A1.38,1.38,0,0,1,11.92,290.31Z"/><path class="cls-3" d="M10.61,303.77a.49.49,0,0,1-.15-.36.64.64,0,0,1,.08-.36,1.51,1.51,0,0,1,.14-.21l.27-.25q.6-.55,3-3.35a.09.09,0,0,0,0-.05s0,0-.1,0a4.14,4.14,0,0,0-.68.25,5.54,5.54,0,0,0-.83.42l-.08.05a.57.57,0,0,1-.25,0,.78.78,0,0,1-.46-.28.81.81,0,0,1-.29-.63c0-.23,0-.35.09-.35l.06,0a.52.52,0,0,0,.44.25,6.36,6.36,0,0,0,1.76-.39,1.9,1.9,0,0,0,.38-.17.48.48,0,0,1,.25-.1,1.1,1.1,0,0,1,.65.3c.24.19.37.35.37.46a.24.24,0,0,1-.12.24l-.15.08a30,30,0,0,0-2.28,2.21l.17-.07.35-.13a3.66,3.66,0,0,1,1.3-.2,2,2,0,0,1,1.5.59,2,2,0,0,1,.58,1.46,2.18,2.18,0,0,1-.84,1.75,3.29,3.29,0,0,1-2.19.7,2.13,2.13,0,0,1-1.51-.46.88.88,0,0,1-.28-.69.72.72,0,0,1,.33-.65,1.53,1.53,0,0,1,.83-.21,1.62,1.62,0,0,1,1.54,1.08,1.63,1.63,0,0,0,.83-.56,1.58,1.58,0,0,0,.35-1,1.35,1.35,0,0,0-.41-1,1.48,1.48,0,0,0-1.05-.39,2.84,2.84,0,0,0-1.61.51,3.55,3.55,0,0,0-1.16,1.22c-.17.3-.34.45-.52.45A.5.5,0,0,1,10.61,303.77Zm1.86.72c0,.29.33.43,1,.43a1.19,1.19,0,0,0,.25,0,1,1,0,0,0-.36-.51.87.87,0,0,0-.46-.17.54.54,0,0,0-.32.08A.24.24,0,0,0,12.47,304.49Z"/><path class="cls-3" d="M10.29,307.72s0-.06,0-.06l.07,0a1.2,1.2,0,0,0,.55.3,2.64,2.64,0,0,0,.61.1l.54,0a8.29,8.29,0,0,0,.15-1,.41.41,0,0,0-.1-.31,1,1,0,0,0-.23-.14c-.07,0-.11-.07-.11-.1s.06-.1.18-.14a1.21,1.21,0,0,1,.38-.06,1.12,1.12,0,0,1,.7.22.57.57,0,0,1,.3.46.25.25,0,0,1-.08.18.52.52,0,0,0-.12.17,3.58,3.58,0,0,0-.23.67,3.79,3.79,0,0,0,1-.3,1.75,1.75,0,0,1,.52-.19.58.58,0,0,1,.31.11.33.33,0,0,1,.17.27c0,.22-.16.39-.49.52a7,7,0,0,1-1.73.39c-.2.77-.36,1.43-.47,2,0,0,0,0,0,0h0a4,4,0,0,1,2.33-.88,2.17,2.17,0,0,1,1.46.46,1.64,1.64,0,0,1,.55,1.3,1.8,1.8,0,0,1-.31,1,2.09,2.09,0,0,1-.8.7,4.67,4.67,0,0,1-1.05.37,4.72,4.72,0,0,1-1.13.13c-.38,0-.57,0-.57-.08l0,0a5.65,5.65,0,0,0,1.26-.41,5.2,5.2,0,0,0,.83-.49,2.06,2.06,0,0,0,.51-.55,1.37,1.37,0,0,0,.2-.76,1.05,1.05,0,0,0-.3-.75,1.14,1.14,0,0,0-.84-.31,2.11,2.11,0,0,0-1.22.51A4.46,4.46,0,0,0,12.2,312l0,.06a.25.25,0,0,1-.05.07l-.06,0s-.09,0-.19,0-.23-.09-.38-.26a.81.81,0,0,1-.23-.54,1,1,0,0,1,.07-.22,16.33,16.33,0,0,0,.62-2.41h-.13a1.94,1.94,0,0,1-1-.24A1.2,1.2,0,0,1,10.29,307.72Z"/><path class="cls-3" d="M9.92,320.21a4.29,4.29,0,0,1,.83-2.38,3,3,0,0,1-.16-.94,2.28,2.28,0,0,1,.08-.7,1.21,1.21,0,0,1,.17-.36c.05-.06.09-.09.11-.09l0,.05a5.63,5.63,0,0,0,.32,1.42,4.37,4.37,0,0,1,1.59-1.15V316c0-.48-.12-.77-.35-.86a.65.65,0,0,0-.15-.05s-.06,0-.06-.05.05-.1.15-.14a.91.91,0,0,1,.35-.06.87.87,0,0,1,.73.24,1.35,1.35,0,0,1,.17.76,3,3,0,0,1,.78-.09,2.45,2.45,0,0,1,1.79.74,2.79,2.79,0,0,1,.75,2.06,4.08,4.08,0,0,1-.46,2.08c.43.34.65.64.65.89a.35.35,0,0,1-.4.39.51.51,0,0,1-.3-.07,1.15,1.15,0,0,1-.24-.27,2.78,2.78,0,0,0-.25-.32,1.84,1.84,0,0,1-1.28.45,1.67,1.67,0,0,1-1-.27.82.82,0,0,1-.38-.7.89.89,0,0,1,.3-.7,1.12,1.12,0,0,1,.75-.26,2.83,2.83,0,0,1,1.36.38,4.26,4.26,0,0,0,.26-1.59,2.67,2.67,0,0,0-.47-1.61,1.54,1.54,0,0,0-1.3-.63,2.15,2.15,0,0,0-.6.07,9.65,9.65,0,0,1-.83,3.21.53.53,0,0,1,.23.41.57.57,0,0,1-.12.37.38.38,0,0,1-.28.13.76.76,0,0,1-.27-.05c-.51.81-1,1.22-1.56,1.22S9.92,321.18,9.92,320.21Zm.76-.2c0,.51.13.76.39.76s.5-.27.81-.8a5.74,5.74,0,0,1-.87-1.45A3.65,3.65,0,0,0,10.68,320Zm.84-2.29a4.32,4.32,0,0,0,.79,1.34,8.22,8.22,0,0,0,.59-2.45A3.61,3.61,0,0,0,11.52,317.72ZM14,320.31a.38.38,0,0,0-.11.28.36.36,0,0,0,.21.31.92.92,0,0,0,.51.13,1.12,1.12,0,0,0,.82-.35,1.85,1.85,0,0,0-1.12-.47A.43.43,0,0,0,14,320.31Z"/><path class="cls-3" d="M166.83,20.06,158,28.87l-8.85-8.81L158,11.23Z"/><path class="cls-3" d="M166.23,44.93c-1-.09-1.93-.14-2.87-.14H152.82c-1,0-2,.05-3.08.14V41.84a26.35,26.35,0,0,0,3,.12h10.55a28.11,28.11,0,0,0,3-.12ZM151.5,31.3a24.91,24.91,0,0,0,2.61.11h7.68a21.26,21.26,0,0,0,2.66-.11v3a22.18,22.18,0,0,0-2.64-.11h-7.65a19.41,19.41,0,0,0-2.66.11Z"/><path class="cls-3" d="M163.9,50.64A7.87,7.87,0,0,1,166,56a8,8,0,1,1-16,0,7.86,7.86,0,0,1,2.64-5.92A8.1,8.1,0,0,1,158,48,7.85,7.85,0,0,1,163.9,50.64Zm-11.38.43a7.28,7.28,0,0,0-1.89,4.9,7.35,7.35,0,0,0,14.69,0,7.18,7.18,0,0,0-2.44-5.46,7.3,7.3,0,0,0-10.36.54Z"/><path class="cls-3" d="M166.23,80.88c-1-.09-1.93-.15-2.87-.15H152.82c-1,0-2,.06-3.08.15v-3.1a23.84,23.84,0,0,0,3,.13h10.55a25.4,25.4,0,0,0,3-.13ZM151.5,67.24a22.42,22.42,0,0,0,2.61.11h7.68a19.48,19.48,0,0,0,2.66-.11v3a22.18,22.18,0,0,0-2.64-.11h-7.65a19.41,19.41,0,0,0-2.66.11Z"/><path class="cls-3" d="M166.23,98.32c-1-.09-1.93-.14-2.87-.14H152.82c-1,0-2,0-3.08.14V95.23a26,26,0,0,0,3,.13h10.55a27.81,27.81,0,0,0,3-.13ZM151.5,84.69a24.91,24.91,0,0,0,2.61.11h7.68a21.26,21.26,0,0,0,2.66-.11v3a22.18,22.18,0,0,0-2.64-.11h-7.65a19.41,19.41,0,0,0-2.66.11Z"/><path class="cls-3" d="M152.29,107.85v-.36c-.44.45-.6.62-1.11,1.09a8.18,8.18,0,0,0-1.82-2.4,11.22,11.22,0,0,0,3.46-4.23,5.36,5.36,0,0,0,.45-1.31l3,.51c-.16.33-.18.37-.38.84l-.27.58h8a14.83,14.83,0,0,0,2.09-.11v2.77a17.46,17.46,0,0,0-2.09-.11h-3.28v1.75h2.55a19.88,19.88,0,0,0,2.11-.08v2.64c-.6-.05-1.13-.07-2-.07h-2.64v2.37h3.82a17.59,17.59,0,0,0,2.15-.11v2.82a18.82,18.82,0,0,0-2.15-.11h-3.82v1.53a14.24,14.24,0,0,0,.11,2.2h-3a17.35,17.35,0,0,0,.11-2.25v-1.48h-5.66a18.81,18.81,0,0,0-2.17.11v-2.82a18.69,18.69,0,0,0,2.17.11h.42Zm1.89-2.73a16.19,16.19,0,0,1-1.35,1.73c.28,0,.39,0,.68,0h4v-1.75Zm3.35,6.61v-2.37H155v2.37Z"/><path class="cls-3" d="M153.87,121.44a20.15,20.15,0,0,0-.13-2.41h3.12a21.62,21.62,0,0,0-.13,2.41v2.64l6.73-1.3a20.92,20.92,0,0,0,2.43-.63l.41,2.93a16.78,16.78,0,0,0-2.27.33l-7.3,1.4v5.42c0,.26.05.38.22.44a8.61,8.61,0,0,0,2.25.14c2.17,0,2.9-.12,3.17-.52s.37-1.37.42-3.61a10.05,10.05,0,0,0,2.75,1.08c-.13,2.62-.31,3.64-.73,4.35-.64,1-1.69,1.27-6.19,1.27-4,0-4.75-.34-4.75-2.33v-5.7l-1.93.37a16.33,16.33,0,0,0-2.13.54l-.45-2.89c.69-.06,1.49-.16,2.31-.31l2.2-.44Z"/><path class="cls-3" d="M154.47,148.49a10.94,10.94,0,0,1-2.66,5.68,9.12,9.12,0,0,0-2.31-2.36,6.7,6.7,0,0,0,1.73-2.84c.55-1.62.73-3.75.73-8.72a26,26,0,0,0-.11-2.82,22.8,22.8,0,0,0,2.39.09h8.21a18.23,18.23,0,0,0,2.29-.09,16,16,0,0,0-.09,2.24v11.61c0,1.18-.24,1.82-.8,2.2a4.61,4.61,0,0,1-2.68.48c-.55,0-1.2,0-2.07-.06a11,11,0,0,0-.77-2.84,21,21,0,0,0,2.84.24c.51,0,.62-.08.62-.4v-2.41Zm7.32-2.49v-1.77h-6.95c0,.75-.06,1.08-.11,1.77Zm0-4.26v-1.58h-6.94v1.58Z"/><path class="cls-3" d="M166.23,170.05c-1-.09-1.93-.14-2.87-.14H152.82c-1,0-2,.05-3.08.14V167a26,26,0,0,0,3,.13h10.55a27.81,27.81,0,0,0,3-.13ZM151.5,156.42a24.91,24.91,0,0,0,2.61.11h7.68a21.26,21.26,0,0,0,2.66-.11v3a22.18,22.18,0,0,0-2.64-.11h-7.65a19.41,19.41,0,0,0-2.66.11Z"/><path class="cls-3" d="M156.44,175.19a18.32,18.32,0,0,0-.15-2.6h3.26a17.67,17.67,0,0,0-.14,2.6v3.39h4.33a21.61,21.61,0,0,0,2.56-.13v3.06a23.45,23.45,0,0,0-2.56-.13h-4.33v5.45a24.67,24.67,0,0,0,.14,2.94h-3.26a26.19,26.19,0,0,0,.15-2.94v-5.45h-4.3a21,21,0,0,0-2.47.13v-3.06a21.07,21.07,0,0,0,2.47.13h4.3Z"/><path class="cls-3" d="M166.23,207.11a21.29,21.29,0,0,0-2.8-.13H152.74a29,29,0,0,0-3,.13V204a26.13,26.13,0,0,0,2.93.12h10.69a26.74,26.74,0,0,0,2.89-.12Zm-15.34-15.45a19,19,0,0,0,2.54.11h9a21.13,21.13,0,0,0,2.62-.11v3a19.93,19.93,0,0,0-2.6-.11h-9a16.83,16.83,0,0,0-2.58.11Zm1.2,6a14.35,14.35,0,0,0,2.29.11h7.17a22.31,22.31,0,0,0,2.33-.11v3.06c-.82-.07-1.43-.11-2.31-.11h-7.13a17.7,17.7,0,0,0-2.35.11Z"/><path class="cls-3" d="M151.73,214.2h-1.67v8.46h1.67v.75h-2.51v-10h2.51Z"/><path class="cls-3" d="M157.17,216.26V213.6h.91v2.66h3.3v.88h-3.3v3.93h4V222h-8.81v-.91h3.93v-3.93H154v-.88Z"/><path class="cls-3" d="M163.64,222.66h1.67V214.2h-1.67v-.8h2.5v10h-2.5Z"/><path class="cls-3" d="M157.64,246.55V230h.69v16.57Z"/><path class="cls-3" d="M166.23,267.86c-1-.09-1.93-.15-2.87-.15H152.82c-1,0-2,.06-3.08.15v-3.1a23.84,23.84,0,0,0,3,.13h10.55a25.4,25.4,0,0,0,3-.13ZM151.5,254.22a22.42,22.42,0,0,0,2.61.11h7.68a19.48,19.48,0,0,0,2.66-.11v3a22.18,22.18,0,0,0-2.64-.11h-7.65a19.41,19.41,0,0,0-2.66.11Z"/><path class="cls-3" d="M156.44,273a18.13,18.13,0,0,0-.15-2.6h3.26a17.5,17.5,0,0,0-.14,2.6v3.38h4.33a21.78,21.78,0,0,0,2.56-.12v3.05a23.5,23.5,0,0,0-2.56-.12h-4.33v5.44a25,25,0,0,0,.14,2.95h-3.26a26.25,26.25,0,0,0,.15-2.95v-5.44h-4.3a21.07,21.07,0,0,0-2.47.12v-3.05a21.18,21.18,0,0,0,2.47.12h4.3Z"/><path class="cls-3" d="M150,291.52c0-.68,0-1.37-.11-2.13.62.05,1.12.07,2.14.07h12a19.71,19.71,0,0,0,2.13-.09,19.86,19.86,0,0,0-.09,2.15v11.76a16.57,16.57,0,0,0,.09,2.11h-2.82v-.95H152.72v.95h-2.85a14,14,0,0,0,.11-2.13Zm2.74,10.39h10.54v-2.05c-1,.07-1.22.09-1.83.09a3.87,3.87,0,0,1-2.06-.3c-.44-.23-.62-.67-.62-1.47V292h-1.42a19.46,19.46,0,0,1-.42,4.77,6.86,6.86,0,0,1-2.57,4.08,9.84,9.84,0,0,0-1.62-1.86Zm0-3.44a4.41,4.41,0,0,0,1.7-2.84,15.27,15.27,0,0,0,.29-3.66h-2Zm8.6-1.44c0,.33.07.37.71.37a8.2,8.2,0,0,0,1.23-.06V292h-1.94Z"/><path class="cls-3" d="M152.34,313.46h-1.67v8.46h1.67v.75h-2.51v-10h2.51Z"/><path class="cls-3" d="M155.31,321.56v-8.22h6v8.06h-1v-.51h-4v.67Zm5-4.92v-2.39h-4v2.39Zm0,3.37v-2.54h-4V320Z"/><path class="cls-3" d="M164.25,321.92h1.67v-8.46h-1.67v-.79h2.5v10h-2.5Z"/><path class="cls-3" d="M130.81,26.9q1.66-2,1.84-6.21c0-.71,0-1.62.07-2.76h-1.66V16.67h2.45V14.39h1.35v2.28h2.44v1.26H134c0,.61,0,1.21,0,1.82h2.68q0,6.69-.57,7.49a1.25,1.25,0,0,1-.8.52,9.9,9.9,0,0,1-1.66,0,2.87,2.87,0,0,0-.36-1.23c.36,0,.77.05,1.24.05a.54.54,0,0,0,.47-.22,4.14,4.14,0,0,0,.23-1.37q.08-1.15.15-4h-1.44q-.28,4.63-2.12,6.89A3.13,3.13,0,0,0,130.81,26.9Zm5.83-7.34a7.89,7.89,0,0,0,1.9-2.25,11.68,11.68,0,0,0,1.28-2.95h1.37a14.32,14.32,0,0,0,1.47,3,7.12,7.12,0,0,0,1.91,2.06,11,11,0,0,0-.7,1.36,8.73,8.73,0,0,1-1.93-2.16,12.84,12.84,0,0,1-1.38-2.71,12.39,12.39,0,0,1-1.34,2.71,8.79,8.79,0,0,1-1.92,2.18A4.79,4.79,0,0,0,136.64,19.56Zm1.1,5.17.82-1.05a26.23,26.23,0,0,1,2.79,1.42,13.68,13.68,0,0,1,2.15,1.53l-.89,1.19a14.06,14.06,0,0,0-2.15-1.6A22.48,22.48,0,0,0,137.74,24.73Zm1.19-3.95.89-.85a10.51,10.51,0,0,1,2.65,2.15l-.93,1a8.68,8.68,0,0,0-1.14-1.16A11.82,11.82,0,0,0,138.93,20.78Z"/><path class="cls-3" d="M136.3,38.19a1.93,1.93,0,0,1-.58-1.4,2,2,0,0,1,2-2,2,2,0,0,1,2,2,2,2,0,0,1-2,2A1.93,1.93,0,0,1,136.3,38.19Z"/><path class="cls-3" d="M130.8,53.52a2,2,0,0,1-.77-1.43c0-.47.08-.71.24-.71a.21.21,0,0,1,.14.07,1.64,1.64,0,0,0,1.22.66,23,23,0,0,0,3.74-.89V49.89c0-1.32,0-2.07,0-2.24a.55.55,0,0,0-.32-.45,4.75,4.75,0,0,0-1-.39.17.17,0,0,1-.13-.16c0-.18.24-.32.7-.43a6.11,6.11,0,0,1,1-.16,3,3,0,0,1,1.51.47c.51.31.77.6.77.87a1.57,1.57,0,0,1-.22.67,3.12,3.12,0,0,0-.31.87c-.05.31-.11.91-.18,1.78l3.78-1.08a4.54,4.54,0,0,0,.89-.36,1.3,1.3,0,0,1,.56-.19,2.64,2.64,0,0,1,1.41.74q.9.75.9,1.2a.48.48,0,0,1-.21.38,3.22,3.22,0,0,1-.51.33,2,2,0,0,0-.42.25,29.5,29.5,0,0,1-3.79,2.72h-.1c-.18,0-.27-.06-.27-.19a.21.21,0,0,1,.05-.13,18.18,18.18,0,0,0,2.3-3.34.7.7,0,0,0,0-.14q0-.18-.21-.18h-.07a35.84,35.84,0,0,0-4.43,1.46c-.1,1.39-.14,2.63-.14,3.72,0,.72.12,1.17.34,1.36a2.45,2.45,0,0,0,1.41.27,13.06,13.06,0,0,0,1.89-.12q.83-.13,1.26-.24l.48-.12a2.8,2.8,0,0,1,1.22.25.8.8,0,0,1,.55.73q0,1.26-4.5,1.26a10.41,10.41,0,0,1-2.67-.22,2.1,2.1,0,0,1-1-.54,3.23,3.23,0,0,1-.59-2.12c0-1.6,0-2.79,0-3.57a11.74,11.74,0,0,0-1.93.86,8,8,0,0,1-.72.42,1.08,1.08,0,0,1-.46.09A2.22,2.22,0,0,1,130.8,53.52Z"/><path class="cls-3" d="M132.08,71a.25.25,0,0,1,.07-.17.22.22,0,0,1,.15-.08.18.18,0,0,1,.14.06c.65.65,1.16,1,1.52,1a7.41,7.41,0,0,0,3-1.26,35.28,35.28,0,0,0,4.42-3.15A23.79,23.79,0,0,0,144.94,64a.18.18,0,0,1,.16-.08.19.19,0,0,1,.21.22.29.29,0,0,1,0,.09,24.06,24.06,0,0,1-9,9.08,4.22,4.22,0,0,0-.59.51,1.09,1.09,0,0,1-.69.4,2.58,2.58,0,0,1-2-1A3.67,3.67,0,0,1,132.08,71Zm0-8.71c0-.14.09-.22.25-.22a6.77,6.77,0,0,1,2.34.44,5.79,5.79,0,0,1,2,1.16,2,2,0,0,1,.77,1.44,1.13,1.13,0,0,1-.31.82,1,1,0,0,1-.81.34A1.74,1.74,0,0,1,135,65.4c-.37-.49-.62-.84-.77-1a11.11,11.11,0,0,0-2-1.9A.19.19,0,0,1,132.13,62.33Z"/><path class="cls-3" d="M130.82,85.09a.15.15,0,0,1,.07-.14,22.82,22.82,0,0,0,3.53-4c1.11-1.56,1.66-2.63,1.66-3.2,0-.33-.28-.65-.85-1a.18.18,0,0,1-.09-.16c0-.17.3-.25.91-.25a4.45,4.45,0,0,1,1.84.41c.63.27,1,.54,1,.81a.8.8,0,0,1-.21.48l-.29.39-.15.22-.14.19-.14.2c.39,0,1-.09,1.67-.2s1.17-.2,1.33-.25a3.28,3.28,0,0,0,.59-.3,1.15,1.15,0,0,1,.56-.21,2.66,2.66,0,0,1,1.27.62c.56.42.84.79.84,1.12q0,.24-.42.57a2.47,2.47,0,0,0-.5.5,30.09,30.09,0,0,1-2.51,3.7c1.07.83,1.6,1.6,1.6,2.31a1,1,0,0,1-.29.76.92.92,0,0,1-.63.29,1.79,1.79,0,0,1-.48,0,1,1,0,0,1-.34-.24,4.07,4.07,0,0,1-.3-.35c-.09-.11-.22-.29-.4-.55l-.49-.66a19.93,19.93,0,0,1-8.11,5l-.07,0a.23.23,0,0,1-.16-.06.21.21,0,0,1-.08-.16.16.16,0,0,1,.11-.15,23.59,23.59,0,0,0,7.22-5.89,11.7,11.7,0,0,0-3.4-2.29,16.48,16.48,0,0,1-3.78,2.7l-.09,0C130.89,85.29,130.82,85.22,130.82,85.09Zm4.46-2.86a19.05,19.05,0,0,1,3.95,1.46,16.69,16.69,0,0,0,2-3.56.78.78,0,0,0,0-.14c0-.12-.1-.18-.29-.17a6.67,6.67,0,0,0-1.07.17c-.52.1-1,.22-1.35.33a3.22,3.22,0,0,1-.76.18,1.42,1.42,0,0,1-.66-.34A22.67,22.67,0,0,1,135.28,82.23Z"/><path class="cls-3" d="M135.57,92.92c0-.12.12-.23.36-.34a2.6,2.6,0,0,1,1-.16,2.64,2.64,0,0,1,1.47.56c.52.37.79.72.79,1a2,2,0,0,1-.21.74,5,5,0,0,0-.3,1,29.06,29.06,0,0,0-.1,3.15l.07,6.44c0,.9-.32,1.35-1,1.35s-1.16-.72-1.16-2.17c0,0,.06-.58.18-1.66a43.61,43.61,0,0,0,.18-4.53c0-1.93,0-3.26-.11-4a1.35,1.35,0,0,0-.85-1.1C135.7,93.16,135.57,93,135.57,92.92Z"/><path class="cls-3" d="M132.1,109.94c0-.14.21-.28.65-.41a3.5,3.5,0,0,1,.95-.21,2.62,2.62,0,0,1,1.51.59c.51.38.76.72.76,1a1.12,1.12,0,0,1-.21.56,2,2,0,0,0-.27.58c-.11.76-.22,2-.3,3.79a20.61,20.61,0,0,0,5.07-2.9.74.74,0,0,0,.28-.51,1.3,1.3,0,0,0-.15-.55,1.44,1.44,0,0,1-.15-.38c0-.12.08-.18.23-.18a2.51,2.51,0,0,1,1.7.8,2.19,2.19,0,0,1,.85,1.44.38.38,0,0,1-.18.36l-.27.16a6.57,6.57,0,0,1-.71.3,49.16,49.16,0,0,1-6.7,2.38c0,.4,0,.91,0,1.52s0,1,0,1.22a1.19,1.19,0,0,0,.25.6.88.88,0,0,0,.62.35,10.8,10.8,0,0,0,1.38.06,12.71,12.71,0,0,0,2-.16,14.22,14.22,0,0,0,1.63-.32c.41-.1.64-.16.7-.16,1.32,0,2,.33,2,1a1,1,0,0,1-.86,1,18,18,0,0,1-5.15.51c-.71,0-1.31,0-1.78-.06a3,3,0,0,1-1.19-.32,4,4,0,0,1-.73-.47,1.49,1.49,0,0,1-.38-.83,6.89,6.89,0,0,1-.14-1.06c0-.29,0-.78,0-1.46l.08-6.26a2.62,2.62,0,0,0-.21-1.33,2.2,2.2,0,0,0-1.15-.53A.14.14,0,0,1,132.1,109.94Zm9.16-.58c0-.13.07-.2.23-.2h0a5.64,5.64,0,0,1,2.26,1.1,1.41,1.41,0,0,1,.53,1,.64.64,0,0,1-.73.68c-.22,0-.48-.23-.78-.68a8.08,8.08,0,0,0-1.49-1.78A.16.16,0,0,1,141.26,109.36Zm1.63-1.32c0-.12.08-.18.23-.18h0c1.89.43,2.84,1.1,2.84,2,0,.43-.2.65-.6.65a.58.58,0,0,1-.42-.17,4.2,4.2,0,0,1-.49-.57,8.06,8.06,0,0,0-1.53-1.6A.19.19,0,0,1,142.89,108Z"/><path class="cls-3" d="M129.59,137.69a.18.18,0,0,1,0-.11,13.51,13.51,0,0,0,3-4.13,10.08,10.08,0,0,0,1.15-4.3c0-.38-.36-.73-1.08-1.07a.19.19,0,0,1-.15-.19c0-.16.16-.27.48-.35a3.93,3.93,0,0,1,1-.11,3,3,0,0,1,1.37.55c.57.35.86.7.86,1a1.44,1.44,0,0,1-.21.62,3.24,3.24,0,0,0-.24.57,10.81,10.81,0,0,1-1.94,4.33,11.21,11.21,0,0,1-4,3.33s0,0-.09,0S129.59,137.82,129.59,137.69Zm6.72-11.78c0-.19.16-.32.48-.4a4.85,4.85,0,0,1,1-.11,2.71,2.71,0,0,1,1.37.5c.55.33.82.64.82.92a1,1,0,0,1-.23.55,1.73,1.73,0,0,0-.29.64,51,51,0,0,0-.23,5.87c0,.2.07.3.2.3a.56.56,0,0,0,.2,0,17.46,17.46,0,0,0,3-1.67,31.14,31.14,0,0,0,3.1-2.42.17.17,0,0,1,.14-.06c.15,0,.23.07.23.2a.24.24,0,0,1,0,.11,20.32,20.32,0,0,1-5.93,5.88,2.75,2.75,0,0,0-.36.32,1.45,1.45,0,0,1-.93.54c-.26,0-.59-.23-1-.69a1.3,1.3,0,0,1-.47-1.66,6.26,6.26,0,0,0,.19-1.1c0-.48.07-1.54.07-3.19s0-2.77,0-3.38c0-.41-.43-.72-1.17-.92C136.35,126.09,136.31,126,136.31,125.91Z"/><path class="cls-3" d="M130,154.34v-1.67h15.3v1.67Zm1-11.75V140.9h13.34v1.69Zm1.15,5.71v-1.69H143v1.69Z"/><path class="cls-3" d="M130.28,173.38V157.8h3.77l.25-.07,1.09.62c-.67,2.11-1.2,3.7-1.6,4.75a5.73,5.73,0,0,1,1.38,3.7v.14a2.24,2.24,0,0,1-.71,2,3.25,3.25,0,0,1-1.79.37h-.23a3,3,0,0,0-.4-1.42l.7,0h.3a.75.75,0,0,0,.37-.15c.22-.16.32-.51.32-1.05a5.26,5.26,0,0,0-1.35-3.41c.29-.84.67-2.18,1.16-4h-1.78v14.1Zm4.64-10c.31-.07.69-.14,1.13-.21v-5.9h1.47v2h2.53v1.34h-2.53v2.26l2.65-.57.13,1.24c-.3.09-2,.49-5,1.23Zm1.41,9.93v-7.51h2.6c.23-.77.39-1.34.46-1.72l1.65.32c-.06.15-.14.38-.26.7s-.19.55-.25.7H145v7.43h-1.62v-.51h-5.51v.59Zm1.55-4.73h5.51v-1.41h-5.51Zm0,2.77h5.51v-1.49h-5.51Zm2.84-8.75v-5.33h1.5v2.4a13.4,13.4,0,0,0,2.33-1.37l1.12,1.06a18.89,18.89,0,0,1-3.45,1.6v1.62c0,.25,0,.41.08.46s.19.09.41.09h1.41a.37.37,0,0,0,.39-.27,6.4,6.4,0,0,0,.12-1.33,3.24,3.24,0,0,0,1.34.57,4.13,4.13,0,0,1-.46,1.9,1.4,1.4,0,0,1-1.23.5h-1.8a1.88,1.88,0,0,1-1.41-.39A2.36,2.36,0,0,1,140.72,162.62Z"/><path class="cls-3" d="M140.17,189.38c0,.66-.3,1-.91,1a1,1,0,0,1-.8-.47,2.53,2.53,0,0,1-.46-1.06q0-.12-.15-1.14c-.08-.67-.23-1.57-.47-2.68a21.29,21.29,0,0,0-3.26,1.16,2.86,2.86,0,0,1-1.26.46,2.12,2.12,0,0,1-1.51-.63,1.93,1.93,0,0,1-.66-1.45c0-.12.07-.18.2-.18l.1,0a1.73,1.73,0,0,0,1,.43q.42,0,5.1-1.24c-.29-1.3-.48-2.13-.57-2.51-1,.27-1.54.45-1.73.53l-.68.32a1.67,1.67,0,0,1-.7.2,2,2,0,0,1-1.24-.62,1.76,1.76,0,0,1-.7-1.28c0-.12,0-.18.16-.18l.1,0a1.6,1.6,0,0,0,.84.29,36.62,36.62,0,0,0,3.61-.77,20.48,20.48,0,0,0-.6-2,1,1,0,0,0-.4-.45,6.16,6.16,0,0,0-1-.42c-.07,0-.11-.08-.11-.19s.23-.35.69-.49a3.9,3.9,0,0,1,1.13-.2,3,3,0,0,1,1.2.34c.49.23.73.49.73.78l-.16.87a8.31,8.31,0,0,0,.18,1.35,17,17,0,0,0,2-.64,3.19,3.19,0,0,1,.84-.29,3,3,0,0,1,1.15.26c.41.17.61.37.61.6,0,.46-.28.74-.85.85-1.56.31-2.69.55-3.42.73l.55,2.49A21.49,21.49,0,0,0,142.5,182a1.31,1.31,0,0,1,.48-.16,3.17,3.17,0,0,1,1.37.28q.6.27.6.66c0,.5-.27.77-.83.82a35.71,35.71,0,0,0-5.09,1c.32,1.47.59,2.56.81,3.26A5.81,5.81,0,0,1,140.17,189.38Zm1.23-13.11a.15.15,0,0,1,.07-.12.3.3,0,0,1,.16-.05h0a5.4,5.4,0,0,1,2.3,1.12,1.36,1.36,0,0,1,.51,1,.63.63,0,0,1-.19.49.68.68,0,0,1-.53.18c-.23,0-.49-.23-.77-.68a8.46,8.46,0,0,0-1.53-1.84A.16.16,0,0,1,141.4,176.27Zm1.67-1.24c0-.12.07-.17.21-.17h0c1.91.42,2.86,1.1,2.86,2,0,.43-.23.64-.62.64a.72.72,0,0,1-.42-.18,5,5,0,0,1-.64-.8,6.47,6.47,0,0,0-1.36-1.38A.16.16,0,0,1,143.07,175Z"/><path class="cls-3" d="M134.59,196.85v-.09c0-.23,0-.35.16-.35s0,0,.05,0a1.58,1.58,0,0,0,1,.37,17.46,17.46,0,0,0,2.74-.57,14.67,14.67,0,0,0-.66-2,2,2,0,0,0-1.09-.73.13.13,0,0,1-.08-.13c0-.06,0-.09.07-.1a3.29,3.29,0,0,1,1.31-.36,4.16,4.16,0,0,1,1.24.23c.47.16.7.34.7.55l-.11,1a9.31,9.31,0,0,0,.15,1.16l3.2-.89.44-.21a1.32,1.32,0,0,1,.45-.15,2,2,0,0,1,1.21.63,1.71,1.71,0,0,1,.72,1.13c0,.18-.19.33-.58.45a.94.94,0,0,0-.31.16l-1,.82a10.07,10.07,0,0,1-1.49,1.14,3,3,0,0,1-.74.39c-.07,0-.1,0-.1-.08s0-.09,0-.1a15.16,15.16,0,0,0,1.52-2.85.31.31,0,0,0,0-.11c0-.06,0-.08-.1-.08-.3,0-1.31.33-3,.85.29,1.24.63,2.55,1,3.91a22.09,22.09,0,0,1,.58,2.28c0,.56-.27.83-.8.83a1.19,1.19,0,0,1-.93-.41,1.7,1.7,0,0,1-.41-1,34.75,34.75,0,0,0-.94-5.11c-.5.18-1,.35-1.37.52a4.78,4.78,0,0,0-.64.39,1.29,1.29,0,0,1-.72.27,1.36,1.36,0,0,1-.8-.39,1.8,1.8,0,0,1-.59-.68A2.06,2.06,0,0,1,134.59,196.85Z"/><path class="cls-3" d="M131.94,210.92a.2.2,0,0,1,.23-.23.15.15,0,0,1,.14.07,2,2,0,0,0,1.39.66c.48,0,1.55-.1,3.19-.3s2.69-.35,3.16-.43a5.4,5.4,0,0,0,1.06-.28,1.58,1.58,0,0,1,.55-.16,2.36,2.36,0,0,1,1.38.68c.55.46.83.85.83,1.18,0,.16-.17.38-.5.66a2.71,2.71,0,0,0-.67.77,15,15,0,0,1-9.39,7.41l-.07,0a.21.21,0,0,1-.24-.23q0-.15.09-.18a17.74,17.74,0,0,0,4.94-3.82,13.8,13.8,0,0,0,2.76-4.47.46.46,0,0,0,0-.14c0-.11-.06-.16-.18-.16a17.52,17.52,0,0,0-2.65.39c-1.32.26-2.18.45-2.56.55a5.76,5.76,0,0,0-1,.37,1.63,1.63,0,0,1-.6.2,1.61,1.61,0,0,1-1.34-.83A3,3,0,0,1,131.94,210.92Zm1.54-3.7c0-.12.06-.18.16-.18l.09,0a4.21,4.21,0,0,0,2.07.39,10.53,10.53,0,0,0,3.39-.71,2.89,2.89,0,0,1,.73-.18,3,3,0,0,1,1.4.27.84.84,0,0,1,.5.79c0,.35-.24.58-.74.68a25,25,0,0,1-5.36.77,2.75,2.75,0,0,1-1.44-.53A1.55,1.55,0,0,1,133.48,207.22Z"/><path class="cls-3" d="M132.74,223.5c0-.17.17-.3.52-.4a4,4,0,0,1,1-.14,3,3,0,0,1,1.34.53c.58.35.87.67.87,1a1.56,1.56,0,0,1-.19.6,2.29,2.29,0,0,0-.23.83c0,.28,0,1.24,0,2.89v2c0,.86-.32,1.28-.95,1.28a.94.94,0,0,1-.77-.56,2.44,2.44,0,0,1-.35-1.31c0-.08,0-.34.13-.78a7.53,7.53,0,0,0,.12-1.35c0-1.78,0-2.81-.06-3.08a2.73,2.73,0,0,0-.11-.53c0-.07,0-.13-.08-.19a.35.35,0,0,0-.13-.15l-.14-.11a.67.67,0,0,0-.2-.11l-.19-.08-.22-.08a1.43,1.43,0,0,1-.26-.11A.15.15,0,0,1,132.74,223.5Zm2,13.05a.15.15,0,0,1,.09-.14,10.94,10.94,0,0,0,3.66-3.13,8.32,8.32,0,0,0,1.44-4.25c.06-.57.09-1.37.09-2.39a13,13,0,0,0-.14-2.68c-.1-.23-.49-.45-1.19-.68a.19.19,0,0,1-.15-.19c0-.21.23-.4.67-.58a2.94,2.94,0,0,1,1.1-.28,3,3,0,0,1,1.27.5q.84.5.84.87a1.16,1.16,0,0,1-.19.55,2.1,2.1,0,0,0-.22.75c-.05.75-.1,2.12-.18,4.13a7.65,7.65,0,0,1-1.89,4.87,10.6,10.6,0,0,1-4.92,2.84h0C134.81,236.74,134.73,236.68,134.73,236.55Z"/><path class="cls-3" d="M135.57,239.45c0-.12.12-.23.36-.34a2.6,2.6,0,0,1,1-.16,2.64,2.64,0,0,1,1.47.56c.52.37.79.72.79,1a2,2,0,0,1-.21.74,5,5,0,0,0-.3,1.05,29.06,29.06,0,0,0-.1,3.15l.07,6.44c0,.9-.32,1.35-1,1.35s-1.16-.72-1.16-2.17c0,0,.06-.57.18-1.66a43.61,43.61,0,0,0,.18-4.53c0-1.93,0-3.26-.11-4a1.35,1.35,0,0,0-.85-1.1C135.7,239.69,135.57,239.57,135.57,239.45Z"/><g id="QaEIQm.tif"><path class="cls-3" d="M120.86,24.78c.93,1,2,2,2.83,3.12a6.21,6.21,0,0,1,1.54,5.2,2.51,2.51,0,0,1-2.59,2.22,14.12,14.12,0,0,1-6.47-1.52,7.74,7.74,0,0,1-1.85-.9c-1.6-1.31-3.08-.68-4.5.1l2,2.35c.49-.07,1.28-.2,2.07-.28a16.47,16.47,0,0,1,8.42,1.07c1,.42,1.83,1,1.8,2.25A1.35,1.35,0,0,1,123,39.88a6.68,6.68,0,0,1-2.48,0c-3-.71-5.89-.21-8.87.31v1.85c1.8-.12,3.61-.35,5.42-.34a13.35,13.35,0,0,1,6,1.48,3.84,3.84,0,0,1,2.13,2.23,2.13,2.13,0,0,1-2.65,2.9,2.23,2.23,0,0,1-.62-.19c-2.94-1.47-6-1.13-9-.61a56.43,56.43,0,0,1-14.67,1,11.58,11.58,0,0,1-4-1.14,2.82,2.82,0,0,1-.67-4.65c.42-.45.89-.86,1.36-1.3-.38-.23-.73-.41-1.06-.64a1.48,1.48,0,0,1-.75-1.75,2,2,0,0,1,1.32-1c1.53-.25,3.09-.3,4.64-.47,1.24-.14,2.47-.33,3.7-.52.67-.1,1.34-.25,2-.38.17-1.44-.46-2-1.75-1.66-2.19.58-4.38,1.28-6.69.78-1.39-.29-2.81-.68-3.33-2.21s.26-2.73,1.19-3.83c.54-.64,1.16-1.21,1.8-1.88-1.63-.52-3.33-.93-4-3.08-.09,1.14-.23,2-.22,2.85,0,4.51.12,9,.17,13.55a37.78,37.78,0,0,1,0,4.64,3,3,0,0,1-2.94,2.86,3.22,3.22,0,0,1-3.37-2.26,6.45,6.45,0,0,1-.51-2.26q.08-5.88.31-11.77c.13-3.11.37-6.21.58-9.32.08-1.21.16-2.42.31-3.63a1.77,1.77,0,0,0-.61-1.82A1.51,1.51,0,0,1,85,15.89,1.59,1.59,0,0,1,86.74,15c2.1.07,4,.57,5.21,2.52a1.14,1.14,0,0,0,.94.29c3.09-.39,6.18-.77,9.25-1.27,2.29-.38,4.58-.85,6.84-1.41a26.64,26.64,0,0,0,8.38-4,1.44,1.44,0,0,0,.51-.53.94.94,0,0,0,0-.68c-.06-.11-.39-.18-.57-.14-.93.24-1.85.52-2.78.79-4.77,1.43-9.52,2.9-14.31,4.26a16.77,16.77,0,0,1-6.81.82,29.4,29.4,0,0,1-4.92-1.27,2.94,2.94,0,0,1-1.31-1,1.59,1.59,0,0,1,1-2.7c1.31-.22,2.66-.19,4-.38,3.91-.56,7.8-1.19,11.7-1.76,3.54-.53,7.07-1.2,10.63-1.45a15.27,15.27,0,0,1,9.94,2.57,3.26,3.26,0,0,1,.81.76c1,1.22.77,2.26-.54,3a13.86,13.86,0,0,1-1.34.66c-.42.18-.86.33-1.38.53a11.61,11.61,0,0,1,1.16.78,2.19,2.19,0,0,1,.48,2.73,1.66,1.66,0,0,1-2.14.6c-3-.88-6-.28-9,.21-5.53.9-11,1.84-16.58,2.69a25.43,25.43,0,0,1-3.71,0v1.91a13,13,0,0,0,2.41.11c2.8-.38,5.59-.78,8.36-1.32,4.27-.83,8.51-1.88,12.79-2.63a14.75,14.75,0,0,1,6.76.35c2.09.61,3.08,2,2.74,3.82a1.39,1.39,0,0,1-1.53,1.31C122.72,25.13,121.78,24.92,120.86,24.78ZM95.67,31.2l.08.33a11.07,11.07,0,0,0,1.73,0,65.79,65.79,0,0,0,11.92-3.36c2.25-.8,4.49-1.62,6.74-2.44-.19-.75-.6-1-1.26-.86A9.15,9.15,0,0,1,114,25c-6,.72-11.58,3-17.08,5.42A10.24,10.24,0,0,0,95.67,31.2Zm9.19,10c-1.89.56-3.6,1-5.27,1.58-1.17.39-2.31.9-3.45,1.39-.21.1-.34.4-.51.6a4.38,4.38,0,0,0,.73.48,1.25,1.25,0,0,0,.64,0c2.49-.49,5-1,7.45-1.52a.69.69,0,0,0,.39-.51C104.89,42.61,104.86,42,104.86,41.18Zm9.92-10.43,0,.33c1.21.17,2.41.41,3.63.51.74.06,1-.39.71-1.08a17.82,17.82,0,0,0-.87-1.57Z"/><path class="cls-3" d="M79.83,188.75c.8.84,1.55,1.5,2.2,2.33a2.9,2.9,0,0,1-.12,4.09c-1.22,1.27-2.53,2.33-3.79,3.49-.13.12-.24.26-.39.42,1.44.45,2.83.81,4.19,1.33a5.48,5.48,0,0,1,1.67,1.16,2.68,2.68,0,0,1,.68,2.49c-.16,1.06-.75,1.45-1.4,1.5a6.43,6.43,0,0,1-2.51-.11,18.72,18.72,0,0,0-10.77.21c-1.24.33-2.36,1.51-3.49,2.47a26.06,26.06,0,0,1,4.61-1.19,12.78,12.78,0,0,1,9,3.19c1,.84,1.3,2.24,1.34,3.8.08,3.31.14,6.63.19,9.94,0,1.63-.43,2.57-1.53,3a5.57,5.57,0,0,1-4.58-.3,5.91,5.91,0,0,0-2.88-.74c-3.47.36-6.93,1-10.4,1.42-2.54.28-5.09.83-7.6-.4-2.22-1.09-2.91-2.42-2.88-5.76,0-1,0-2.08,0-3.07-1.48.48-2.94,1.06-4.43,1.41A3.25,3.25,0,0,1,43.68,218a4.32,4.32,0,0,1-.89-3.52c.22-1.28,1.13-1.09,1.79-1.26A31.44,31.44,0,0,0,54,208.49c-1,.13-1.91.29-2.87.4-2.38.29-4.75.3-6.94-1.33a5,5,0,0,1-1.4-1.9c-.47-1-.14-1.85.73-1.95.68-.09,1.38.06,2-.06,3-.53,6-1.13,9-1.7a18.47,18.47,0,0,1,2-.42c.82-.06,1.19-.55,1-1.77a11.28,11.28,0,0,1,0-1.14c-.69.17-1.32.3-1.94.48a12.42,12.42,0,0,1-7.51.1,4.63,4.63,0,0,1-2-1.35,1.49,1.49,0,0,1,.38-2.37,6.13,6.13,0,0,1,1.19-.31l9.87-2.3c.1-1.83-.83-2.8-2.1-2.59a24.86,24.86,0,0,1-4.92.53,7.88,7.88,0,0,1-3.43-1.14c-1.31-.75-2.05-2.32-2.09-4.45,0-3-.13-6-.12-9a7.33,7.33,0,0,0-.68-3.45,3.84,3.84,0,0,1-.38-3.17A1.63,1.63,0,0,1,46,168.45c1.27.33,2.49,1.1,3.76,1.37a8.54,8.54,0,0,0,3.66.12c3.54-.8,7-2,10.57-2.71a19.33,19.33,0,0,1,13.46,1.51,13,13,0,0,1,1.45,1c1.79,1.27,2.72,3.2,2.61,6.27-.09,2.44.07,4.9.17,7.35S81.3,187.53,79.83,188.75ZM51.25,177.49a9.12,9.12,0,0,0,2.34,0c3.79-1,7.56-2.11,11.34-3.15,2.87-.79,5.76-2.26,8.65.46,0-.6,0-1,0-1.47,0-.63-.07-1.27-.16-1.89-.27-1.9-.57-2.2-1.87-1.69-3.78,1.5-7.53,3.12-11.32,4.53-2.15.8-4.34,1.72-6.61,1a21.86,21.86,0,0,1-2.36-1.11Zm5.63,40.18a12.46,12.46,0,0,0,2.33-.29c1.94-.65,3.86-1.41,5.79-2.13,2.23-.84,4.46-1.77,6.8-1.25.63.14,1.26.33,1.92.5,0-.87,0-1.63,0-2.39,0-1.56-.29-1.87-1.35-1.44-2.07.83-4.11,1.79-6.18,2.61-2.42,1-4.83,2.21-7.41,1.89-.63-.08-1.26-.27-1.9-.41Zm8.5-26.95h2.51c2.24,0,4.49-.09,6.48,1.87.16.16.51-.1.94-.21-2.13-2.66-2.15-2.73-1.11-5-3.33-1.36-6.52.05-9.76.51C64.79,189,65.07,189.82,65.38,190.72ZM51.2,180.37c0,.92,0,1.73,0,2.53,0,1.48.47,2.17,1.5,2.17a11,11,0,0,0,2.12-.25,10.64,10.64,0,0,0,6.26-4.8C57.85,180.71,54.64,182.74,51.2,180.37ZM67,218.68c-3.34,1-6.56,3.44-10.13,1,0,.73,0,1.31,0,1.88.12,1.69.48,2.11,1.65,2,.56-.07,1.12-.1,1.67-.22,1.1-.24,2.31-.19,3.26-.88A27.9,27.9,0,0,0,67,218.68Zm6.53-41.22c-3.22,1.55-6.63,1.64-9.52,4.28,3.13-.82,6.27-1.47,9.52-.76Zm-5.74,44h6v-4.87Zm3.54-25.75-6.07.8v3.24C67.48,199.64,69.32,198.45,71.34,195.73Z"/><path class="cls-3" d="M104.83,94.2c1,.64,1.74,1.22,2.58,1.73a1.14,1.14,0,0,0,.85,0c4.55-1.92,8.29-.3,11.75,2.63a5.66,5.66,0,0,1,1.85,4.61q0,4,0,8a1.11,1.11,0,0,0,.8,1.23,10.92,10.92,0,0,1,2.37,1.45,3.28,3.28,0,0,1,1,1.35c.75,1.86-.22,3.2-2.21,3.07a17.7,17.7,0,0,1-1.87-.33c0,.69,0,1.35,0,2a37.65,37.65,0,0,1-.24,4.64c-.42,2.45-2,3.44-4.49,3.28a14.92,14.92,0,0,1-6.38-2.2c-4-2.23-8-4.42-11.89-6.68-1.06-.61-2.06-.22-3.08-.06-.13,0-.29.43-.29.67,0,1.09.08,2.18.08,3.27a18.57,18.57,0,0,1-.12,2.69A2.57,2.57,0,0,1,93.24,128a2.7,2.7,0,0,1-3.08-1.43,16.47,16.47,0,0,1-.93-3.75,12.92,12.92,0,0,1,0-2.71c0-.53-.17-.71-.65-.92a21.38,21.38,0,0,1-3-1.66,2.74,2.74,0,0,1-1-1.24,2,2,0,0,1,0-1.49c.15-.27.86-.29,1.33-.29.87,0,1.73.1,2.6.12.71,0,1.06-.26,1.09-1.11.09-3.21.27-6.41.48-9.61a3.48,3.48,0,0,0-.94-3.16,2.15,2.15,0,0,1-.58-1.14,1.55,1.55,0,0,1,2.07-1.9c1.34.35,2.61,1,3.92,1.45a3.37,3.37,0,0,0,1.3.27,16,16,0,0,0,6-1.33l-1.65-2.42c-.7.14-1.51.33-2.32.48A19,19,0,0,1,86.78,95a6,6,0,0,1-1.66-1,1.18,1.18,0,0,1,.55-2.13,3.2,3.2,0,0,1,1.1-.17c3.69.33,7.06-1,10.47-2a70,70,0,0,1,12.55-3.18,20.3,20.3,0,0,1,14,3,6.15,6.15,0,0,1,1.77,1.75c1,1.58.11,3.23-1.77,3.43a8.74,8.74,0,0,1-4.62-.81l-2.57-1.11a6.62,6.62,0,0,0-4.47-.38C109.74,92.94,107.3,93.56,104.83,94.2Zm9.36,27V117l-11.77,1.13v.21Zm.1-10.31c0-1-.07-2,0-2.95s-.4-1.18-1.15-1.05c-1.7.31-3.39.69-5,1v3.66Zm.16-7.6c-.16-1.64-.29-3.2-.49-4.75-.07-.6-.49-.64-1-.37l-4,2.23a2.07,2.07,0,0,0-.71,3.06C111.73,102.62,111.76,102.55,114.45,103.28Zm-12.83,7a6.39,6.39,0,0,1-6.11-.84v4.23c1.95-.32,3.82-.61,5.68-.94a.69.69,0,0,0,.41-.48C101.65,111.6,101.62,111,101.62,110.23Zm-5.89-7.31v4a4.29,4.29,0,0,0,1.3.12c1.42-.35,2.83-.76,4.22-1.2a.83.83,0,0,0,.46-.57,14,14,0,0,0,0-1.61C99.61,104.36,97.62,104.47,95.73,102.92Z"/><path class="cls-3" d="M51.08,316.34c-.46.38-.83.73-1.23,1-2.17,1.52-4.7-.22-5.4-3.71-.32-1.6-.1-2.16,1-2.66a2.72,2.72,0,0,0,.93-.64c1.89-2.07,3.8-4.11,5.65-6.28a2.62,2.62,0,0,0-.5-4.14c-2.3-1.33-3.56-4.15-3.56-8.3,0-3.92.07-7.84.15-11.76a5.28,5.28,0,0,0-1-3.85,2.71,2.71,0,0,1-.36-1.81c.14-.56.72-1.27,1.06-1.21a8.33,8.33,0,0,1,3.51,1.13c1.62,1.1,3.21.83,4.83.45.79-.19,1.56-.55,2.36-.83-.62-2.35-.77-2.47-2.28-2-2.92.89-5.87,1.43-8.76-.06a10.22,10.22,0,0,1-2.83-2.56,3.37,3.37,0,0,1-.32-2.15,1.55,1.55,0,0,1,1.19-1c4.69-.14,9.14-2.31,13.68-3.63,3.91-1.14,7.79-2.63,11.73-3.41a11.6,11.6,0,0,1,10.45,3,4.17,4.17,0,0,1,.92,1.37c1,2.23.19,4.75-1.56,4.73a14,14,0,0,1-4-.78c-3.36-1.07-6.62-.12-9.87,1-.54.18-1.07.42-1.64.65.42,1.26.89,1.75,1.81,1.53,3.85-.91,7.43.32,10.71,3.5a8.59,8.59,0,0,1,2.44,6.45c0,5,0,10,0,15a11.68,11.68,0,0,1-.6,3.23c-1.06,3.23-3.9,3.72-5.49,1a1.68,1.68,0,0,0-.83-.77,23,23,0,0,0-2.48-.28l0,.36a6.26,6.26,0,0,1,.73.37,21.74,21.74,0,0,1,4,2.79c2.09,2.17,2.32,4.77,1,8.08-.11.28-.21.56-.33.86,1.24.65,2.45,1.19,3.62,1.93a4.81,4.81,0,0,1,2.47,4c.26,3.32-1.71,6-3.93,5a53.15,53.15,0,0,1-6.47-3.61,1.37,1.37,0,0,0-1.82.13c-4.23,3.38-8.68,4.83-13.43,3.17C54.32,320.88,52.54,319.06,51.08,316.34Zm21.9-24c0-3.79,0-7.6,0-11.41,0-1.88-.1-3.78-.27-5.64-.12-1.35-.85-2.12-1.61-1.66-2,1.24-4,2.62-6.06,4a2,2,0,0,0,.91.71,32.67,32.67,0,0,1,4,2.29,2.11,2.11,0,0,1-.13,3.2,5.15,5.15,0,0,1-1.23.68c-.73.31-1.47.57-2.34.9A24.33,24.33,0,0,1,69.39,287a1.79,1.79,0,0,1,0,3,37.26,37.26,0,0,1-3.55,2.15c-.34.2-.68.42-1.08.67ZM60.9,283.41l0-.4-6.83-1.95c0,2.34,0,4.64,0,6.94,0,1.64.06,3.29.18,4.91.1,1.28.68,1.8,1.53,1.73,1.85-.17,2.77-2.4,4.24-4.06-.59-.18-.95-.24-1.29-.39a8.67,8.67,0,0,1-2.21-1.07,2.16,2.16,0,0,1,0-3.37,11.3,11.3,0,0,1,2-1.26C59.3,284.07,60.11,283.76,60.9,283.41Zm-.06,23.33c2.18.55,4.13,1.05,6.09,1.53.55.13,1.22.52,1.63.19a8,8,0,0,0,2.86-4.29c.31-1.13-.06-1.84-.88-1.83a6,6,0,0,0-1.57.27A26.06,26.06,0,0,0,60.84,306.74Zm-7.43,6.86c3.17,2.41,6,1.18,8.91-.63-1.78-1-3.57-1.83-5.36-2.63a.53.53,0,0,0-.54.12C55.45,311.44,54.49,312.46,53.41,313.6Zm9-13.62,0-.18-5.62.87-.1.39c.46.53,1,1.63,1.36,1.48A40.18,40.18,0,0,0,62.42,300Z"/><path class="cls-3" d="M99,50.35c-.88-.52-1.66-1-2.42-1.44a1.88,1.88,0,0,1-1.16-2,1.7,1.7,0,0,1,1.78-1.48,16.56,16.56,0,0,1,3.79.25c3.29.7,6.41,1.81,8.86,4.29a3.4,3.4,0,0,0,1,.55c4.41,2,8.63,4.35,12,7.88,1.33,1.38,2.54,2.85,2.48,5-.08,2.67-1.64,4.31-4.33,4.34-1.39,0-2.78-.13-4-.2a41.87,41.87,0,0,1,3.74,2.17,9.76,9.76,0,0,1,2.28,2.3,4.29,4.29,0,0,1,0,5.08c-.42.69-.93,1.32-1.41,2,.71.43,1.43.81,2.07,1.28,1.93,1.39,2.36,3.66,1.07,5.29a3.17,3.17,0,0,1-3.33,1.15.32.32,0,0,1-.09,0c-3.9-2.06-8-1.28-12.07-.87q-3.43.36-6.88.57c-2.18.12-4.36.21-6.54.17A13.41,13.41,0,0,1,92.42,86c-2.36-.69-3-2.61-3.12-4.79-.12-1.8-.13-3.62-.36-5.4a5.55,5.55,0,0,0-1-2.34c-.87-1.2-.85-2.06.33-3,.73-.55,1.49-1.08,2.28-1.64a23.3,23.3,0,0,1-3-1.32,4.86,4.86,0,0,1-1.6-6.84,14.33,14.33,0,0,1,4.13-4.15c2.8-2,5.65-3.87,8.47-5.81ZM94.85,75.5c.07.75.09,1.34.18,1.92.38,2.72,1.35,3.48,4.07,3.15q3.84-.46,7.66-1c3.49-.52,3.53-.51,5.58-3.4a30.26,30.26,0,0,0,2.1-3.73,3.42,3.42,0,0,0,.12-1.21,4.91,4.91,0,0,0-1.15,0,12.12,12.12,0,0,0-2,.74c-2,1-3.91,2-5.91,3C102.1,76.49,98.65,77.44,94.85,75.5ZM115.52,67a22.68,22.68,0,0,1-5.24-3.88,1.13,1.13,0,0,0-1,0c-3.65,1.67-7.31,3.31-10.9,5.08-1.82.9-3.52,2-5.49,3.2.47.22.64.38.77.36a30.42,30.42,0,0,0,3.69-.86c2.91-1,5.78-2.1,8.69-3.11,2.5-.87,5-1.72,7.73-1.16Zm-4.13-11.86c-2-2-2.07-2-4.37-1l-.17.08c-4.08,1.85-8.16,3.69-12.22,5.58a18.28,18.28,0,0,0-2.44,1.55.46.46,0,0,0,.25.87,5.39,5.39,0,0,0,1.66-.09c2.14-.67,4.29-1.29,6.35-2.15C104.09,58.47,107.67,56.79,111.39,55.14Zm1.22,6.19,0,.31a22.63,22.63,0,0,0,2.79.57c1.37.1,1.92-.86,1.24-2.08a7.5,7.5,0,0,0-.67-.87Z"/><path class="cls-3" d="M50.56,64.3c.78-.91,1.59-1.81,2.33-2.75a1.62,1.62,0,0,0,.21-.9,36.82,36.82,0,0,1,2.27-12l.18-.44c2.2-5.07,6.91-6.31,11.2-2.92.68.54,1.18,1.31,1.82,1.92a1.73,1.73,0,0,0,1,.52A12,12,0,0,1,79,51.29a13.4,13.4,0,0,1,3.63,7.27,22.43,22.43,0,0,1-.33,10.24c-1.41,5-4.83,7.8-9.63,8.94-1,.24-2.28.05-3.06.6s-1,1.81-1.57,2.71a7,7,0,0,1-5.41,3.37A9.08,9.08,0,0,1,56,83.26,1.88,1.88,0,0,1,55.25,82c0-.3.61-.73,1-.88A8,8,0,0,0,60.55,78a4.15,4.15,0,0,0,.35-.57,1.67,1.67,0,0,0,.07-.3c-.73-.37-1.48-.68-2.17-1.1a10.13,10.13,0,0,1-4.43-5.19c-.3-.77-.66-.95-1.39-.77s-1.39.21-2.3.34c.47,1.08.85,2,1.31,3s1.11,2,1.62,3a3,3,0,0,1-.18,3.28,2.89,2.89,0,0,1-3,.88c-2-.34-3.15-1.7-4.1-3.36a21.68,21.68,0,0,1-2.47-11.16c0-4.1,1-8,1.86-12A4.46,4.46,0,0,0,46,52.79a4,4,0,0,0-.5-1.34c-.13-.24-.41-.39-.61-.6a2.37,2.37,0,0,1-.48-2.58,1.93,1.93,0,0,1,2.08-1,5.49,5.49,0,0,1,5.16,6c-.22,2.59-.69,5.15-1,7.73-.14,1-.21,2.09-.31,3.13Zm20,7.37A23.41,23.41,0,0,0,73.08,69c2.34-3.29,2.64-7.13,2.53-11A13,13,0,0,0,75,54.5c-.61-2-1.94-2.42-3.74-1.57A1.83,1.83,0,0,0,70.15,55c.19,2.4.3,4.81.35,7.22C70.56,65.28,70.51,68.3,70.51,71.67Zm-6.87-9.91-.29-.06-5.12,6a6.91,6.91,0,0,0,4.7,4.34C63.17,68.55,63.41,65.15,63.64,61.76Zm-6.06-5.71c1.87-1.85,3.68-3.62,5.47-5.41a.81.81,0,0,0,.2-.6,13.59,13.59,0,0,0-.41-2.46c-.49-1.58-1.4-1.76-2.53-.55-.1.12-.21.24-.3.37C58.32,50,58,53.05,57.58,56.05Z"/><path class="cls-3" d="M103.69,171.43a61.3,61.3,0,0,1,6-1.47,14.84,14.84,0,0,1,9.85,1.65,4,4,0,0,1,2.11,3.23c.13,1.35-.45,2.26-1.79,2.28a17.42,17.42,0,0,1-3.51-.41,7.62,7.62,0,0,0-4.42.29c1,.83,2,1.64,3,2.56a6.48,6.48,0,0,1,1.38,2,3.41,3.41,0,0,0,1.81,1.83,13.59,13.59,0,0,1,5.85,17.82,11.2,11.2,0,0,1-8.14,5.84,19.28,19.28,0,0,1-8,0,6.07,6.07,0,0,1-1.9-.72c-1.17-.69-1.13-1.89.11-2.41a18.15,18.15,0,0,1,3.4-1,10.39,10.39,0,0,0,8.1-12.35,5.57,5.57,0,0,0-2.3-3.45l-9.82,11.06c0-.1,0,0,0,.12a2.91,2.91,0,0,1,.2,3.49,4.12,4.12,0,0,1-3.68,1.82,1.62,1.62,0,0,1-.91-.17c-1-.74-1.82-.29-2.59.44a5.08,5.08,0,0,1-.53.38c-3.56,2.71-6.82,1.77-9.31-1.17-3.08-3.64-4.13-8.41-.33-12.59a15.65,15.65,0,0,1,3.11-2.93c1.91-1.17,2.95-2.61,2.67-4.88a5.25,5.25,0,0,1,.11-1.11l-1.17.12a8.29,8.29,0,0,1-6.32-1.66,3.81,3.81,0,0,1-1-1.12c-.67-1.24-.18-1.86,1.18-2a29.42,29.42,0,0,0,4.5-1.07c1.4-.41,2.74-1,4.14-1.43.92-.26,1-1,1.08-1.66.05-.36-.37-.81-.63-1.18s-.82-.8-1-1.29a1.81,1.81,0,0,1,1.49-2.5,7.33,7.33,0,0,1,6.27,2A6.9,6.9,0,0,1,103.69,171.43Zm5.21,6.23-.16-.18c-2.38.67-4.77,1.34-7.14,2a.77.77,0,0,0-.5.46c-.16.8-.24,1.62-.33,2.33l8.82-1.47C108.91,180,108,179,108.9,177.66ZM94.37,191.44a11.61,11.61,0,0,0-3.23,3.68,2.41,2.41,0,0,0,.45,2.61,1.63,1.63,0,0,0,1.86.74,14.44,14.44,0,0,0,2.28-1.25.62.62,0,0,0,.16-.54C95.42,195,94.91,193.29,94.37,191.44Zm7.47.66.34,0,6.16-6.6a22.37,22.37,0,0,0-7,1.55.75.75,0,0,0-.4.58C101.22,189.15,101.54,190.62,101.84,192.1Z"/><path class="cls-3" d="M63.38,251.86c-.7,2.25-1.25,4.43-2.05,6.51a6.18,6.18,0,0,1-6.63,4.13c-5.83-.43-9.59-4-10.41-10.05a38.93,38.93,0,0,1,.83-12.82c.45-2.27.93-4.54,1.48-6.78a3.22,3.22,0,0,0-.8-3.26,3.8,3.8,0,0,1-.91-1.94c-.28-2.14,1.1-3.7,3.15-3.32a11.69,11.69,0,0,1,7.51,4.28,4.3,4.3,0,0,1,.55,4.55,30,30,0,0,1-2,3.7A27.21,27.21,0,0,0,50,246.11a13.55,13.55,0,0,0-.16,6.11,2.3,2.3,0,0,0,1.71,1.95,2.08,2.08,0,0,0,2.26-1,24,24,0,0,0,2.37-4c2.07-4.93,4-9.93,6-14.85a45.59,45.59,0,0,1,3.35-6.66c1.83-2.91,4.32-3.41,7.31-1.8a14.11,14.11,0,0,1,5.35,5.79,34.79,34.79,0,0,1,4.39,14.71,28.12,28.12,0,0,1-.32,8.92c-1.22,5.07-6.1,6.11-9.21,4.05-2.72-1.8-5.24-3.91-7.85-5.9C64.62,252.9,64,252.37,63.38,251.86Zm.25-2.06c2.88.4,5.61.81,8.35,1.15,1.85.22,2.69-.53,2.58-2.45-.16-2.91-.35-5.84-.78-8.72a24.55,24.55,0,0,0-2.51-8.24,8,8,0,0,0-1.41-1.89c-.79-.76-1.56-.59-2.07.38a6.87,6.87,0,0,0-.7,1.79q-1.35,6.39-2.62,12.82C64.14,246.3,63.92,248,63.63,249.8Z"/><path class="cls-3" d="M116.77,218.82c0,2.39,0,4.59,0,6.8,0,1.61-.23,3.22-.31,4.84-.12,2.54-1.92,3.32-4.08,3.43-3,.17-5.76-.86-8.47-2-1.45-.61-2.86-1.32-4.54-2.1.12,1.87.16,3.54.37,5.19a2,2,0,0,0,2,1.82,34,34,0,0,0,4.84-.1c2.85-.26,5.68-.77,8.53-.95a10.88,10.88,0,0,1,3.81.63,2.79,2.79,0,0,1,1.92,2.74,2.73,2.73,0,0,1-1.66,2.81,18.37,18.37,0,0,1-4.91,1.3,81.38,81.38,0,0,1-9.24.19,21.65,21.65,0,0,1-5.42-.85c-4.38-1.27-6.65-4.29-6.78-8.86-.08-2.89,0-5.78,0-8.69-1.2-.11-2.15-.14-3.09-.31a6.55,6.55,0,0,1-4-2.07,2.43,2.43,0,0,1-.58-1.8c.08-.36,1-.62,1.53-.79,1.78-.53,3.58-1,5.36-1.52.19-.05.38-.46.39-.71a23.36,23.36,0,0,0,0-3.45,4.06,4.06,0,0,0-.8-1.66c-.26-.41-.77-.67-1-1.09A1.7,1.7,0,0,1,92.14,209a6.55,6.55,0,0,1,7.4,6c0,.15,0,.3.09.51.2-.05.37-.07.54-.13,2.89-1,5.78-2.12,8.69-3.15.52-.18.78-.4.72-1s-.06-1.37-.08-2a2.36,2.36,0,0,0-1-2,1.68,1.68,0,0,1-.72-2,1.66,1.66,0,0,1,1.67-1.1,6.93,6.93,0,0,1,7.35,6.28c0,.63.24.82.84.94a13.56,13.56,0,0,1,6,2.77,4.86,4.86,0,0,1,1.91,3.41c.13,1.41-.57,2.41-2,2.39a29,29,0,0,1-4.13-.55C118.61,219.23,117.78,219,116.77,218.82Zm-17.3,8.94c1.17.11,2.24.25,3.32.3,1.62.06,3.24.12,4.86.07,1.27,0,1.72-.59,1.77-1.9s.1-2.73.14-4.1c0-.52,0-1,0-1.62-3.31,1-6.48,2-9.65,2.94a.74.74,0,0,0-.42.51C99.45,225.2,99.47,226.44,99.47,227.76Z"/><path class="cls-3" d="M82.91,23.1c-.13,6-1.74,11.19-5.81,15.3a16.36,16.36,0,0,1-10.6,4.91A21.31,21.31,0,0,1,52.72,40.1,14.77,14.77,0,0,1,50,37.59a1.94,1.94,0,0,1-.27-2.49c.6-.85,1.46-.59,2.31-.44,5.38,1,10.78.88,15.77-1.42,5.45-2.51,7.94-7.29,7.79-13.46a7.63,7.63,0,0,0-2.2-5.56,2.64,2.64,0,0,0-3.18-.66,56.72,56.72,0,0,0-5.18,2.86c-2.3,1.47-4.49,3.15-6.78,4.63s-4.91,2.36-7.66,1.62a8.6,8.6,0,0,1-6.51-6.13c-.55-1.95.57-3.23,2.49-3A6.46,6.46,0,0,0,50,13.15c4.08-1.72,8.18-3.43,12.32-5a14.84,14.84,0,0,1,20.34,12C82.83,21.21,82.85,22.31,82.91,23.1Z"/><path class="cls-3" d="M67.37,131.34c-.69-.76-1.31-1.39-1.86-2.09a2.38,2.38,0,0,1-.47-2.68A2.51,2.51,0,0,1,67.45,125a11.13,11.13,0,0,1,2.93.46A21.25,21.25,0,0,1,78.16,130a9.77,9.77,0,0,1,1.37,1.57c1.5,2.13,1.07,4.45-1.24,5.56a24.19,24.19,0,0,1-5.23,1.68A155.49,155.49,0,0,0,53.58,144c-1,.38-2,1-3.06,1.45l0,.42a10.21,10.21,0,0,0,1.36.69c3.42,1.17,6.87,2.28,10.28,3.47,4.54,1.58,9.17,2.94,13.42,5.28a18,18,0,0,1,3.46,2.43,4.73,4.73,0,0,1,1.12,6.09,5.23,5.23,0,0,1-5.69,2.73,11.68,11.68,0,0,1-5-2.62,66.78,66.78,0,0,0-14.7-9.12c-1.9-.87-3.7-2-5.54-3a3.05,3.05,0,0,1-.32-.22c-3.62-2.6-3.79-5.82-.51-8.85,2.73-2.51,6-4.1,9.17-5.91,2.89-1.65,5.81-3.25,8.71-4.88C66.65,131.78,67,131.56,67.37,131.34Z"/><path class="cls-3" d="M109.23,288.18c-.63-.69-1.23-1.28-1.76-1.93a2.32,2.32,0,0,1-.58-2.65,2.74,2.74,0,0,1,2.57-1.56,11.94,11.94,0,0,1,5.44,1.51,17.53,17.53,0,0,1,6.19,4.4c2,2.35,1.55,4.8-1.29,6a52.61,52.61,0,0,1-6.73,1.84c-5.85,1.55-11.72,3.07-17.56,4.66a6.28,6.28,0,0,0-3.2,1.77,18.52,18.52,0,0,0,1.87.87c3.31,1.08,6.64,2.1,9.95,3.21,4.53,1.53,9.16,2.84,13.41,5.11a18.15,18.15,0,0,1,3.45,2.36,4.43,4.43,0,0,1,1.06,5.89,5.26,5.26,0,0,1-5.7,2.61,12.08,12.08,0,0,1-5-2.56,67,67,0,0,0-14.53-8.73,51.5,51.5,0,0,1-6-3.21c-1.6-1-2.88-2.34-2.81-4.44a5,5,0,0,1,2.09-3.82,51.87,51.87,0,0,1,5.68-3.89c4.05-2.32,8.19-4.49,12.3-6.72Z"/><path class="cls-3" d="M95.7,158.78c-.92-.48-1.55-.76-2.12-1.12a2.79,2.79,0,0,1-1.36-2.13c-.13-1.29.41-1.79,1.68-1.63a17.53,17.53,0,0,0,2.41.11c.51,0,.77-.24.91-.81.34-1.35.34-2.59-.8-3.56a3.78,3.78,0,0,0-1-.53c-1.11-.44-2.13-1-2.25-2.34-.1-1,.43-1.74,1.44-1.59,2.63.38,5-.48,7.5-1.13,2.83-.75,5.67-1.6,8.64-1.25a13,13,0,0,1,4,1.21,3.1,3.1,0,0,1,1.33,1.77c.35,1.05-.33,1.82-1.45,1.86a9.25,9.25,0,0,1-1.48-.13c-.46,0-.91-.14-1.22-.19.13,1.18.25,2.35.42,3.51a.85.85,0,0,0,.45.57,8.13,8.13,0,0,1,4.21,2.14c-.08-1.78-.15-3.38-.23-5a73.77,73.77,0,0,1,1.21-16.45,21.19,21.19,0,0,0,.32-2.22,4,4,0,0,0-.12-1.38c-.25-1-1-1.18-1.63-.42a23.25,23.25,0,0,0-2.12,3.07c-1,1.7-1.81,3.47-2.74,5.2-1.33,2.52-3.23,3-5.44,1.14a23.1,23.1,0,0,1-2.88-3.4,8.4,8.4,0,0,1-.6-1l-.26.06c.11,1.52.22,3,.32,4.58a27,27,0,0,1,.11,3,2.56,2.56,0,0,1-2.42,2.51,4.65,4.65,0,0,1-4.79-2.08,22.43,22.43,0,0,1-3.76-10.82,2.49,2.49,0,1,1,5-.47c.34,1.71.6,3.43.92,5.15a8.52,8.52,0,0,0,.43,1.26l.28,0a8.6,8.6,0,0,0,.54-1.1c.58-1.9,1.13-3.81,1.7-5.72a13.25,13.25,0,0,1,.54-1.49,2,2,0,0,1,3.6-.6,17.08,17.08,0,0,1,1.83,2.8c1.24,2.23,1.36,2.27,3.05.42.88-1,1.71-2,2.57-3a4.76,4.76,0,0,1,5.2-1.62,16.75,16.75,0,0,1,6.31,3.12,4.9,4.9,0,0,1,1.79,4.49c-.3,3.75-.81,7.49-.87,11.25a92.43,92.43,0,0,0,.68,9.38c.25,3,.68,6,.79,9,.08,2.44-1.63,4-4.06,4.27a7.56,7.56,0,0,1-6.66-2.41c-1-1-2-2-3.12-3.11l-.13,2c-.13,2.08-1.38,3.11-3.33,2.72a2.43,2.43,0,0,1-1.9-2.55c0-2,0-4,0-6v-1.06c-1.46.29-2.83.64-4.23.82a2.2,2.2,0,0,0-2.14,2,18.82,18.82,0,0,1-1.57,4.26c-.72,1.51-1.85,2.05-3.06,1.75-1.38-.35-3-2.12-3-3.4a2.4,2.4,0,0,1,.61-1.15C94.31,160.59,95,159.73,95.7,158.78Zm6.12-9.81v4c1.7-.35,3.27-.66,4.83-1,.17,0,.33-.4.37-.63a3.6,3.6,0,0,0-1.3-3.26Zm15.54,6.64-.22-.14c-1.2,2.76-3.12,1.12-4.87.8,0,.82,0,1.53,0,2.24a.67.67,0,0,0,.39.51c1.15.26,2.31.48,3.47.69a.94.94,0,0,0,1.2-1C117.4,157.71,117.36,156.66,117.36,155.61Z"/><path class="cls-3" d="M84.46,152.88q.62-7.26,1.22-14.52c.09-1,.14-2,.28-3a3.14,3.14,0,0,0-1-3,1.73,1.73,0,0,1-.3-2,1.52,1.52,0,0,1,1.73-.85,12.67,12.67,0,0,1,3,.6c2.06.75,2.86,2.43,2.57,4.61-1.17,8.79-1.41,17.56.34,26.32a12.58,12.58,0,0,1,.07,4.24A2.6,2.6,0,0,1,88,166.93a8,8,0,0,1-2-3.05c-1.11-2.92-1.16-6-1.27-9.12,0-.62,0-1.25,0-1.87Z"/><path class="cls-3" d="M92.86,258.88a37.71,37.71,0,0,1-4.25-.52,4.72,4.72,0,0,1-3-2.46c-.76-1.39-.38-2.15,1.12-2.67,2.61-.91,5.19-1.89,7.76-2.9a1.93,1.93,0,0,0,.6-3c-.24-.25-.49-.48-.72-.73a1.88,1.88,0,0,1-.42-2.07,1.78,1.78,0,0,1,1.72-1.09c2.59-.17,4.39,1.16,5.69,3.23a1.29,1.29,0,0,0,1.37.73,8.06,8.06,0,0,1,4.79,1.29,1.88,1.88,0,0,1,.39,3.16,12.81,12.81,0,0,1-2.91,2c-1.13.59-2.37.95-3.52,1.5a1.72,1.72,0,0,0-.83,1,39.68,39.68,0,0,0-1.16,5.14c.23-.21.48-.41.7-.63a33,33,0,0,1,8.2-6.13c6.09-3,12.89-1.08,16,4.66a5.88,5.88,0,0,1,.73,4.15,4.78,4.78,0,0,1-5.25,3.5,29.52,29.52,0,0,0-5.35-.55,13.42,13.42,0,0,0-9.18,3.81c-1.85,1.84-1.3,4,1.16,4.87a19.12,19.12,0,0,0,8.51.49,51.31,51.31,0,0,1,5.67-.42,4.4,4.4,0,0,1,2.4.83,3.06,3.06,0,0,1-.33,5.32,13.23,13.23,0,0,1-4.37,1.21,33.24,33.24,0,0,1-11.51-.51,11.1,11.1,0,0,1-3.41-1.46c-2.84-1.87-3.68-5.4-2.29-9a14,14,0,0,1,5.26-6.29,32.68,32.68,0,0,1,9.28-4.3l.88-.29s0,0,0-.07c-1.11-1.77-4.11-2.79-6.3-2.19a14.57,14.57,0,0,0-8,5.77c-2.15,3-4.12,6.08-6.06,9.2a15.63,15.63,0,0,0-.85,2.74A36.9,36.9,0,0,1,93,281.63c-1.15,1.95-3.43,2-5,.37a6.68,6.68,0,0,1-1.67-3.48,4.25,4.25,0,0,1,.53-2.67c1.2-2.65,2.36-5.34,3.33-8.09C91.17,264.8,92,261.76,92.86,258.88Z"/><path class="cls-3" d="M117.51,252.73a2.12,2.12,0,0,1-1.94-1.25c-.6-1-1.11-2.15-1.66-3.24-.78-1.53-1.5-3.1-3.43-3.56a1,1,0,0,1-.51-.85c.08-.35.48-.88.74-.88a7.38,7.38,0,0,1,3,.35,11.05,11.05,0,0,1,5.82,7C120,251.72,119.07,252.75,117.51,252.73Z"/><path class="cls-3" d="M117.61,241.22a21.48,21.48,0,0,1,3,1.21,11.73,11.73,0,0,1,4.65,5.34,2.08,2.08,0,0,1-.62,2.81,2.16,2.16,0,0,1-2.93-.81c-.8-1.18-1.45-2.46-2.18-3.7s-1.49-2.52-3.11-2.88a1,1,0,0,1-.57-.82,1.14,1.14,0,0,1,.62-.79,3.1,3.1,0,0,1,1.08-.18Z"/><path class="cls-3" d="M74.77,101.69a6.25,6.25,0,0,0-6.46-2.28,15.71,15.71,0,0,0-8.56,6.69c-1.94,2.83-3.71,5.79-5.47,8.76a14.65,14.65,0,0,0-.77,2.56,40.4,40.4,0,0,1-2.33,5.86c-1.28,2.28-3.8,2.34-5.34.23a12.22,12.22,0,0,1-1.43-3.3c-.35-1,.13-1.88.55-2.82,1.09-2.41,2.13-4.86,3-7.37,1.13-3.37,2.07-6.81,3.09-10.23-.92,0-1.71,0-2.49,0A5.69,5.69,0,0,1,43.77,97c-.91-1.52-.5-2.39,1.12-3,2.61-.93,5.19-2,7.76-3a2.1,2.1,0,0,0,.62-3,8.42,8.42,0,0,0-.59-.61A2.12,2.12,0,0,1,52,85a2,2,0,0,1,2.1-1.13,6,6,0,0,1,5.26,3.3,1.31,1.31,0,0,0,1.43.82,8,8,0,0,1,4.48,1.12c1.63,1,1.83,2.5.4,3.78a14.1,14.1,0,0,1-2.92,1.87c-1,.53-2.15.86-3.18,1.38a1.9,1.9,0,0,0-.89,1,40.82,40.82,0,0,0-1.15,5.3c.76-.74,1.52-1.49,2.29-2.22,2.8-2.62,5.81-4.89,9.53-5.9a11.41,11.41,0,0,1,13.46,6.85c1.34,3.49-.51,6.73-4.13,7a19.37,19.37,0,0,1-3.49-.52,13.91,13.91,0,0,0-11.86,3.9c-1.85,1.81-1.27,4.12,1.13,5a18.56,18.56,0,0,0,8.51.53,52.19,52.19,0,0,1,5.85-.46,3.55,3.55,0,0,1,3.51,4.4,3.18,3.18,0,0,1-2.27,2.36,17.28,17.28,0,0,1-3.71.89A33.52,33.52,0,0,1,65,123.8a11.15,11.15,0,0,1-3.34-1.45c-2.93-1.91-3.8-5.6-2.37-9.44a14.29,14.29,0,0,1,5.21-6.42A32.12,32.12,0,0,1,73.73,102Z"/><path class="cls-3" d="M75.53,93.79a7.76,7.76,0,0,1-1.69-1.33,17.12,17.12,0,0,1-1.39-2.61c-.39-.77-.76-1.55-1.15-2.32a4.25,4.25,0,0,0-2.46-2.23,1.31,1.31,0,0,1-.75-1A1.36,1.36,0,0,1,69,83.4a4.43,4.43,0,0,1,3.57.73,12.69,12.69,0,0,1,5,6.52C78.18,92.32,77.32,93.55,75.53,93.79Z"/><path class="cls-3" d="M75.73,81.66a20.36,20.36,0,0,1,3,1.25A12,12,0,0,1,83.16,88c.74,1.48.54,2.78-.44,3.34s-2.28.25-3.16-1.14c-.69-1.1-1.26-2.29-1.9-3.43-.75-1.35-1.5-2.68-3.16-3.07a1.07,1.07,0,0,1-.56-.85,1.21,1.21,0,0,1,.61-.82,3.2,3.2,0,0,1,1.09-.18Z"/></g></svg>