<svg id="レイヤー_1" data-name="レイヤー 1" xmlns="http://www.w3.org/2000/svg" viewBox="0 0 637.66 57.21"><defs><style>.cls-1{fill:#040000;}</style></defs><path class="cls-1" d="M0,56.1V54.91c6.54-.37,8-.74,8-7.13V12.42C8,6,6.54,5.66,0,5.29V4.1H14.19L42.49,47V12.42c0-6.38-1.12-6.76-7.73-7.13V4.1H53V5.29c-6.53.37-7.72.75-7.72,7.13V56.1H43.23l-32.46-49v40.7c0,6.39,1.41,6.76,8,7.13V56.1Z"/><path class="cls-1" d="M69.35,40.87,61.48,51.12c-1.94,2.45-.52,3.42,3.78,3.79V56.1H52.19V54.91c2.75-.37,4.31-1.19,6.31-3.79l9.36-12.18L59.4,28c-2.08-2.68-3-3.57-5.8-3.79V23H67.86v1.19c-4.53.37-5,1.63-3.34,3.79l6,7.8,6-7.8c1.56-2,1-3.42-3.71-3.79V23H86.43v1.19A8.6,8.6,0,0,0,79.6,28l-7.5,9.73L82.5,51.12c2.15,2.75,3.34,3.42,5.34,3.79V56.1H74.1V54.91c5.28-.22,5.05-1.49,3.27-3.79Z"/><path class="cls-1" d="M91.18,56.1V54.91c6.54-.37,7.88-.74,7.88-7.13V12.42c0-6.38-.82-6.76-7.88-7.13V4.1H117c10.77,0,19.31,3.87,19.31,13,0,8.84-8.54,12.78-19.31,12.78H103.51v17.9c0,6.39,1.34,6.76,7.88,7.13V56.1ZM105.74,6.56a2,2,0,0,0-2.23,2.22V27.43H117c9.21,0,14.12-3.49,14.12-10.33S126.24,6.56,117,6.56Z"/><path class="cls-1" d="M183.92,18.36l-1,.45c-5-8.84-11.59-13.37-20.35-13.37-12.7,0-19.09,10.25-19.09,24.66s6.31,24.66,19.09,24.66c8,0,16.41-3.71,19.09-12.11l2.52.82c-3.27,8.76-10.47,13.74-21.61,13.74-14,0-24.29-11.81-24.29-27.11S148.49,3,162.53,3c5.79,0,10.77,1.63,13.74,3.94l1.11-2.83h1.49Z"/><path class="cls-1" d="M196.42,53.13a3.49,3.49,0,1,1-7,0,3.49,3.49,0,0,1,7,0Z"/><path class="cls-1" d="M225,53.65c12.18,0,16.79-4.39,22.43-11.15l1,.67L241.16,56.1H204.32V54.91c6.53-.37,7.87-.74,7.87-7.13V12.42c0-6.38-1.34-6.76-7.87-7.13V4.1h20.2V5.29c-6.53.37-7.87.75-7.87,7.13v39a2,2,0,0,0,2.23,2.23Z"/><path class="cls-1" d="M252.06,56.1V54.91c4.38-.37,5.42-1.26,5.42-4.16v-20c0-1.86-.74-2.53-2.52-2.53h-2.9v-.81l8.24-5.57h1.34V50.75c0,2.9,1,3.79,5.42,4.16V56.1ZM262.9,9.3A3.27,3.27,0,1,1,259.64,6,3.19,3.19,0,0,1,262.9,9.3Z"/><path class="cls-1" d="M284.4,56.1l-9.14-24.81c-1.86-5.13-2.6-6.76-6.31-7.13V23h14.26v1.19c-5.94.37-5.35,2.23-4,5.87l7.57,20.64,8-20.2c1.63-4.08.6-5.94-4.08-6.31V23h12.85v1.19c-2.9.37-4.46,2.08-6.47,7.13l-9.8,24.81Z"/><path class="cls-1" d="M308.23,35.15a41.81,41.81,0,0,0-.23,4.38c0,8.55,3.27,15.53,12.78,15.53,5.12,0,9.28-3.42,11.36-8.77l2.08.82c-2.3,5.94-7.13,10.1-13.44,10.1-11.66,0-17.6-7.8-17.6-17.68s5.71-17.67,16-17.67c7.65,0,13.59,4.53,13.59,13.29Zm20-2.15c0-5.87-3.94-9-9.06-9-6.61,0-9.51,3.71-10.62,9Z"/><path class="cls-1" d="M452.92,53.13a3.5,3.5,0,1,1-3.49-3.42A3.42,3.42,0,0,1,452.92,53.13Z"/><path class="cls-1" d="M366.63,56.1l-9.14-24.81c-1.85-5.13-2.6-6.76-6.31-7.13V23h14.26v1.19c-5.94.37-5.35,2.23-4,5.87L369,50.67,377,30.47c1.64-4.08.6-5.94-4.08-6.31V23h12.85v1.19c-2.9.37-4.46,2.08-6.46,7.13L369.45,56.1Z"/><path class="cls-1" d="M420.78,39.53c0,9.88-6.76,17.68-16.56,17.68s-16.56-7.8-16.56-17.68,6.75-17.67,16.56-17.67S420.78,29.65,420.78,39.53Zm-4.83,0C416,31,412.61,24,404.22,24s-11.74,7-11.74,15.52,3.35,15.53,11.74,15.53S416,48.08,416,39.53Z"/><path class="cls-1" d="M423.55,56.1V54.91c4.39-.37,5.43-1.26,5.43-4.16V11.9c0-1.85-.75-2.52-2.53-2.52h-2.9V8.56L431.8,3h1.33V50.75c0,2.9,1,3.79,5.43,4.16V56.1Z"/><path class="cls-1" d="M475,57.21c-7,0-14.64-2.3-14.64-6.83a3,3,0,0,1,2.83-3.12c5.42,0,5.27,7.5,11.81,7.5,9.13,0,13.44-5.87,13.44-13.82,0-8.17-6.16-14-14.78-14a22.09,22.09,0,0,0-9.8,2.08l-1.19-.52L466.14,4.1h20.13c1.26,0,2-.52,2.15-1.63h1.26l-.81,6.09H467.92L466,22.9a22.17,22.17,0,0,1,7.65-1.19c12.11,0,18.87,8.61,18.87,18.19C492.51,48.89,486.19,57.21,475,57.21Z"/><path class="cls-1" d="M532,30.1c0,14.56-5.57,27.11-17.53,27.11S497,44.66,497,30.1,502.53,3,514.49,3,532,15.54,532,30.1Zm-5.2,0c0-13.15-1.93-24.66-12.33-24.66S502.16,17,502.16,30.1s1.93,24.66,12.33,24.66S526.82,43.17,526.82,30.1Z"/><path class="cls-1" d="M554.57,57.21h-8.92V2.63h8.92V4.16h-5.75V55.75h5.75Z"/><path class="cls-1" d="M628.74,2.63h8.92V57.21h-8.92V55.69h5.76V4.1h-5.76Z"/><path class="cls-1" d="M575.4,41.79a18.34,18.34,0,0,1,.07,1.93c0,9.56-6.61,11.62-8.63,11.62-1.45,0-2.33-.75-2.33-1.56s.7-1.62,2.33-2.19a10.5,10.5,0,0,0,7.56-9.87ZM588.81,9.06c-.25.81-.94,1-2.39.93-2.45,6.44-8.12,12.06-21.21,15l-.57-1.24c11.58-3,16.68-8.69,18.76-15.18H572.57c-.44,4.12-3.59,6.43-6,6.43-1.13,0-1.89-.5-1.89-1.37a2.41,2.41,0,0,1,1.51-2,7.62,7.62,0,0,0,4.91-7.06h1.2a11,11,0,0,1,.31,2.37H592V0l5.92.5c-.13,1-.82,1.44-3.08,1.75V6.93h21.08l2.33-2.37,4.35,4.18a4.09,4.09,0,0,1-2.46.57A35.46,35.46,0,0,1,613.3,15l-.88-.5a43.82,43.82,0,0,0,3.52-5.93H601.78l-.44.06v8.81c0,1.37.06,1.37,2.39,1.37H615.5c1.89,0,2,0,3.66-3.87h.63v3.56c1.51.37,1.82.5,1.82,1,0,1.25-1.57,1.81-6.11,1.81H603.61c-4.54,0-5.1-.75-5.1-4V8.56H586.73Zm2.46,11.18a1.46,1.46,0,0,1-1.39.68,6.44,6.44,0,0,1-1-.12A77.9,77.9,0,0,1,581,32c8.12-.12,18.57-.37,29.46-.69a55.54,55.54,0,0,0-11.21-6.06l.19-.93c14.61,3.06,19.33,8.8,19.33,11.43a1.24,1.24,0,0,1-1.32,1.37,3,3,0,0,1-1-.19,20.28,20.28,0,0,0-4.22-4.24c-8.81.68-21.46,1.5-38.84,2.37a2.43,2.43,0,0,1-1.57,1.31L569.23,32c2.52,0,5.86,0,9.89-.06a95.91,95.91,0,0,0,7.43-13.87Zm14.41,26.48-.06,7.06c1.64.44,1.89.56,1.89,1.06,0,1.31-1.64,1.88-6.55,1.88H586.8c-4.72,0-5.54-.63-5.54-3.94V41.29l4.85.56c-.13.69-.51,1-2,1.19v9.74c0,1.44.06,1.44,2.77,1.44H601c1.25,0,1.76-.07,2.2-.88A57.41,57.41,0,0,0,605,46.72ZM586,36.1c9.63,1.19,12.78,5.25,12.78,7.5,0,.93-.5,1.56-1.32,1.56a2.14,2.14,0,0,1-1-.25c-1.82-3.06-6.8-6.5-10.64-7.93Zm22.29,5.37c10.57,3.63,13.85,9.06,13.85,12.06,0,1.37-.63,2.25-1.58,2.25a2.76,2.76,0,0,1-1.32-.5c-1.13-4.75-6.73-10.31-11.46-13.06Z"/></svg>